%TF.GenerationSoftware,KiCad,Pcbnew,10.0.0*%
%TF.CreationDate,2026-03-29T20:07:52+03:00*%
%TF.ProjectId,Christmas Ornaments,43687269-7374-46d6-9173-204f726e616d,A*%
%TF.SameCoordinates,Original*%
%TF.FileFunction,Paste,Top*%
%TF.FilePolarity,Positive*%
%FSLAX46Y46*%
G04 Gerber Fmt 4.6, Leading zero omitted, Abs format (unit mm)*
G04 Created by KiCad (PCBNEW 10.0.0) date 2026-03-29 20:07:52*
%MOMM*%
%LPD*%
G01*
G04 APERTURE LIST*
G04 Aperture macros list*
%AMRoundRect*
0 Rectangle with rounded corners*
0 $1 Rounding radius*
0 $2 $3 $4 $5 $6 $7 $8 $9 X,Y pos of 4 corners*
0 Add a 4 corners polygon primitive as box body*
4,1,4,$2,$3,$4,$5,$6,$7,$8,$9,$2,$3,0*
0 Add four circle primitives for the rounded corners*
1,1,$1+$1,$2,$3*
1,1,$1+$1,$4,$5*
1,1,$1+$1,$6,$7*
1,1,$1+$1,$8,$9*
0 Add four rect primitives between the rounded corners*
20,1,$1+$1,$2,$3,$4,$5,0*
20,1,$1+$1,$4,$5,$6,$7,0*
20,1,$1+$1,$6,$7,$8,$9,0*
20,1,$1+$1,$8,$9,$2,$3,0*%
G04 Aperture macros list end*
%ADD10RoundRect,0.250000X-0.450000X0.262500X-0.450000X-0.262500X0.450000X-0.262500X0.450000X0.262500X0*%
%ADD11RoundRect,0.250000X0.132583X-0.503814X0.503814X-0.132583X-0.132583X0.503814X-0.503814X0.132583X0*%
%ADD12RoundRect,0.250000X-0.262500X-0.450000X0.262500X-0.450000X0.262500X0.450000X-0.262500X0.450000X0*%
%ADD13RoundRect,0.150000X-0.825000X-0.150000X0.825000X-0.150000X0.825000X0.150000X-0.825000X0.150000X0*%
%ADD14RoundRect,0.243750X-0.494975X-0.150260X-0.150260X-0.494975X0.494975X0.150260X0.150260X0.494975X0*%
%ADD15RoundRect,0.243750X-0.243750X-0.456250X0.243750X-0.456250X0.243750X0.456250X-0.243750X0.456250X0*%
%ADD16RoundRect,0.250000X-0.132583X0.503814X-0.503814X0.132583X0.132583X-0.503814X0.503814X-0.132583X0*%
%ADD17RoundRect,0.250000X0.503814X0.132583X0.132583X0.503814X-0.503814X-0.132583X-0.132583X-0.503814X0*%
%ADD18RoundRect,0.243750X0.456250X-0.243750X0.456250X0.243750X-0.456250X0.243750X-0.456250X-0.243750X0*%
%ADD19RoundRect,0.250000X-0.503814X-0.132583X-0.132583X-0.503814X0.503814X0.132583X0.132583X0.503814X0*%
%ADD20RoundRect,0.250000X0.450000X-0.262500X0.450000X0.262500X-0.450000X0.262500X-0.450000X-0.262500X0*%
%ADD21RoundRect,0.243750X-0.456250X0.243750X-0.456250X-0.243750X0.456250X-0.243750X0.456250X0.243750X0*%
%ADD22RoundRect,0.243750X0.243750X0.456250X-0.243750X0.456250X-0.243750X-0.456250X0.243750X-0.456250X0*%
%ADD23RoundRect,0.243750X0.494975X0.150260X0.150260X0.494975X-0.494975X-0.150260X-0.150260X-0.494975X0*%
%ADD24RoundRect,0.250000X0.262500X0.450000X-0.262500X0.450000X-0.262500X-0.450000X0.262500X-0.450000X0*%
%ADD25RoundRect,0.243750X-0.150260X0.494975X-0.494975X0.150260X0.150260X-0.494975X0.494975X-0.150260X0*%
%ADD26RoundRect,0.243750X0.150260X-0.494975X0.494975X-0.150260X-0.150260X0.494975X-0.494975X0.150260X0*%
G04 APERTURE END LIST*
D10*
%TO.C,R5*%
X128580000Y-111417500D03*
X128580000Y-113242500D03*
%TD*%
D11*
%TO.C,R2*%
X138534765Y-87375235D03*
X139825235Y-86084765D03*
%TD*%
D12*
%TO.C,R3*%
X142667500Y-97330000D03*
X144492500Y-97330000D03*
%TD*%
D13*
%TO.C,U2*%
X130655000Y-93192500D03*
X130655000Y-94462500D03*
X130655000Y-95732500D03*
X130655000Y-97002500D03*
X130655000Y-98272500D03*
X130655000Y-99542500D03*
X130655000Y-100812500D03*
X130655000Y-102082500D03*
X135605000Y-102082500D03*
X135605000Y-100812500D03*
X135605000Y-99542500D03*
X135605000Y-98272500D03*
X135605000Y-97002500D03*
X135605000Y-95732500D03*
X135605000Y-94462500D03*
X135605000Y-93192500D03*
%TD*%
%TO.C,U1*%
X120335000Y-95342500D03*
X120335000Y-96612500D03*
X120335000Y-97882500D03*
X120335000Y-99152500D03*
X125285000Y-99152500D03*
X125285000Y-97882500D03*
X125285000Y-96612500D03*
X125285000Y-95342500D03*
%TD*%
D14*
%TO.C,D4*%
X141417087Y-110167087D03*
X142742913Y-111492913D03*
%TD*%
D15*
%TO.C,D3*%
X146642500Y-97330000D03*
X148517500Y-97330000D03*
%TD*%
D16*
%TO.C,R6*%
X118625235Y-107284765D03*
X117334765Y-108575235D03*
%TD*%
D17*
%TO.C,R8*%
X118625235Y-87375235D03*
X117334765Y-86084765D03*
%TD*%
D18*
%TO.C,D1*%
X128580000Y-79267500D03*
X128580000Y-77392500D03*
%TD*%
D19*
%TO.C,R4*%
X138534765Y-107284765D03*
X139825235Y-108575235D03*
%TD*%
D20*
%TO.C,R1*%
X128580000Y-83242500D03*
X128580000Y-81417500D03*
%TD*%
D21*
%TO.C,D5*%
X128580000Y-115392500D03*
X128580000Y-117267500D03*
%TD*%
D22*
%TO.C,D7*%
X110517501Y-97330000D03*
X108642499Y-97330000D03*
%TD*%
D23*
%TO.C,D8*%
X115742913Y-84492913D03*
X114417087Y-83167087D03*
%TD*%
D24*
%TO.C,R7*%
X114492500Y-97330000D03*
X112667500Y-97330000D03*
%TD*%
D25*
%TO.C,D6*%
X115742913Y-110167087D03*
X114417087Y-111492913D03*
%TD*%
D26*
%TO.C,D2*%
X141417087Y-84492913D03*
X142742913Y-83167087D03*
%TD*%
M02*
