%TF.GenerationSoftware,KiCad,Pcbnew,10.0.0*%
%TF.CreationDate,2026-03-29T20:07:52+03:00*%
%TF.ProjectId,Christmas Ornaments,43687269-7374-46d6-9173-204f726e616d,A*%
%TF.SameCoordinates,Original*%
%TF.FileFunction,Soldermask,Bot*%
%TF.FilePolarity,Negative*%
%FSLAX46Y46*%
G04 Gerber Fmt 4.6, Leading zero omitted, Abs format (unit mm)*
G04 Created by KiCad (PCBNEW 10.0.0) date 2026-03-29 20:07:52*
%MOMM*%
%LPD*%
G01*
G04 APERTURE LIST*
G04 APERTURE END LIST*
G36*
X128836790Y-106202939D02*
G01*
X129000952Y-106256279D01*
X129154748Y-106334642D01*
X129294393Y-106436099D01*
X129416447Y-106558153D01*
X129517904Y-106697798D01*
X129596267Y-106851594D01*
X129649607Y-107015756D01*
X129676609Y-107186241D01*
X129676609Y-107358851D01*
X129649607Y-107529336D01*
X129596267Y-107693498D01*
X129517904Y-107847294D01*
X129416447Y-107986939D01*
X129294393Y-108108993D01*
X129154748Y-108210450D01*
X129000952Y-108288813D01*
X128836790Y-108342153D01*
X128666305Y-108369155D01*
X128493695Y-108369155D01*
X128323210Y-108342153D01*
X128159048Y-108288813D01*
X128005252Y-108210450D01*
X127865607Y-108108993D01*
X127743553Y-107986939D01*
X127642096Y-107847294D01*
X127563733Y-107693498D01*
X127510393Y-107529336D01*
X127483391Y-107358851D01*
X127483391Y-107186241D01*
X127510393Y-107015756D01*
X127563733Y-106851594D01*
X127642096Y-106697798D01*
X127743553Y-106558153D01*
X127865607Y-106436099D01*
X128005252Y-106334642D01*
X128159048Y-106256279D01*
X128323210Y-106202939D01*
X128493695Y-106175937D01*
X128666305Y-106175937D01*
X128836790Y-106202939D01*
G37*
G36*
X129618268Y-85380158D02*
G01*
X129650711Y-85401835D01*
X129672388Y-85434278D01*
X129680000Y-85472546D01*
X129680000Y-87472546D01*
X129672388Y-87510814D01*
X129650711Y-87543257D01*
X129618268Y-87564934D01*
X129580000Y-87572546D01*
X127580000Y-87572546D01*
X127541732Y-87564934D01*
X127509289Y-87543257D01*
X127487612Y-87510814D01*
X127480000Y-87472546D01*
X127480000Y-85472546D01*
X127487612Y-85434278D01*
X127509289Y-85401835D01*
X127541732Y-85380158D01*
X127580000Y-85372546D01*
X129580000Y-85372546D01*
X129618268Y-85380158D01*
G37*
M02*
