%TF.GenerationSoftware,KiCad,Pcbnew,10.0.0*%
%TF.CreationDate,2026-03-29T20:07:52+03:00*%
%TF.ProjectId,Christmas Ornaments,43687269-7374-46d6-9173-204f726e616d,A*%
%TF.SameCoordinates,Original*%
%TF.FileFunction,Legend,Bot*%
%TF.FilePolarity,Positive*%
%FSLAX46Y46*%
G04 Gerber Fmt 4.6, Leading zero omitted, Abs format (unit mm)*
G04 Created by KiCad (PCBNEW 10.0.0) date 2026-03-29 20:07:52*
%MOMM*%
%LPD*%
G01*
G04 APERTURE LIST*
%ADD10C,0.200000*%
%ADD11C,0.150000*%
%ADD12C,0.120000*%
G04 APERTURE END LIST*
D10*
G36*
X135023959Y-110248222D02*
G01*
X135080718Y-110281242D01*
X135116142Y-110315605D01*
X135136161Y-110361353D01*
X135174508Y-110353538D01*
X135195244Y-110363493D01*
X135220181Y-110405073D01*
X135248269Y-110464424D01*
X135297362Y-110428276D01*
X135526706Y-110586789D01*
X135526706Y-110648339D01*
X135526706Y-110675450D01*
X135526706Y-110694745D01*
X135505945Y-110757271D01*
X135566762Y-110863272D01*
X135646873Y-110970006D01*
X135646873Y-110987836D01*
X135618541Y-111013726D01*
X135676915Y-111081870D01*
X135676915Y-111134138D01*
X135604375Y-111167599D01*
X135597292Y-111190558D01*
X135710132Y-111201060D01*
X135742128Y-111279462D01*
X135795861Y-111411842D01*
X135827124Y-111476078D01*
X135830055Y-111533230D01*
X135880369Y-111621891D01*
X135923600Y-111708597D01*
X135900886Y-111774054D01*
X135908457Y-111804340D01*
X135961458Y-111727404D01*
X136020565Y-111830718D01*
X136073810Y-111907899D01*
X136067704Y-111954305D01*
X136071856Y-111969204D01*
X136148792Y-112082044D01*
X136160272Y-112139441D01*
X136232812Y-112217599D01*
X136413796Y-112568087D01*
X136564249Y-112803782D01*
X136625799Y-112949106D01*
X136732044Y-113049002D01*
X136750362Y-113128136D01*
X136856364Y-113245861D01*
X136911318Y-113350153D01*
X136968227Y-113396559D01*
X136953084Y-113462749D01*
X136960167Y-113501584D01*
X136962609Y-113503293D01*
X137079113Y-113463482D01*
X137162400Y-113454933D01*
X137230544Y-113551165D01*
X137277438Y-113661563D01*
X137313586Y-113727752D01*
X137295268Y-113811528D01*
X137237627Y-113814703D01*
X137208562Y-113811772D01*
X137180230Y-113806643D01*
X137156050Y-113818611D01*
X137160202Y-113839616D01*
X137429602Y-114258981D01*
X137497990Y-114348862D01*
X137505073Y-114394535D01*
X137502386Y-114443384D01*
X137509469Y-114450223D01*
X137563691Y-114468785D01*
X137714145Y-114742826D01*
X137838709Y-114872274D01*
X137898443Y-114942914D01*
X137914912Y-115000990D01*
X137912226Y-115043244D01*
X137960830Y-115101374D01*
X138025310Y-115154863D01*
X138132777Y-115284068D01*
X138212400Y-115333893D01*
X138243663Y-115385429D01*
X138177980Y-115414738D01*
X138120321Y-115460167D01*
X138079043Y-115456992D01*
X138048025Y-115464075D01*
X137988918Y-115492651D01*
X137926880Y-115463831D01*
X137824542Y-115414249D01*
X137780188Y-115331031D01*
X137746629Y-115294326D01*
X137654794Y-115250118D01*
X137611074Y-115113098D01*
X137663646Y-115060957D01*
X137675066Y-115033963D01*
X137667739Y-115010272D01*
X137516064Y-114913796D01*
X137490662Y-114873984D01*
X137413726Y-114748199D01*
X137282323Y-114482219D01*
X137223949Y-114407969D01*
X137230055Y-114357411D01*
X137237871Y-114301479D01*
X137221507Y-114268995D01*
X137170704Y-114280230D01*
X137040034Y-114060167D01*
X136932568Y-113895059D01*
X136896908Y-113833510D01*
X136779183Y-113811772D01*
X136644605Y-113787348D01*
X136525903Y-113800781D01*
X136442372Y-113809330D01*
X136397676Y-113803956D01*
X136274577Y-113780997D01*
X136106538Y-113719937D01*
X136030334Y-113806887D01*
X135874752Y-113781730D01*
X135745547Y-113751933D01*
X135650293Y-113776845D01*
X135567983Y-113760481D01*
X135399455Y-113798339D01*
X135357445Y-113795652D01*
X135248025Y-113792965D01*
X135119064Y-113790279D01*
X135045547Y-113779288D01*
X134971786Y-113779288D01*
X134885080Y-113770983D01*
X134805457Y-113784905D01*
X134655491Y-113757306D01*
X134593540Y-113767025D01*
X134500397Y-113803224D01*
X134383405Y-113844745D01*
X134302991Y-113869731D01*
X134222937Y-113914354D01*
X134174760Y-113945885D01*
X134141605Y-113954166D01*
X134106678Y-113943663D01*
X134085916Y-113814234D01*
X134051625Y-113757231D01*
X134007759Y-113740942D01*
X133920734Y-113764302D01*
X133861946Y-113834975D01*
X133813098Y-114041360D01*
X133772065Y-114137348D01*
X133727857Y-114310272D01*
X133634312Y-114454375D01*
X133505596Y-114443628D01*
X133501933Y-114473670D01*
X133526601Y-114506154D01*
X133578625Y-114567459D01*
X133495338Y-114642442D01*
X133520983Y-114730614D01*
X133515610Y-114772379D01*
X133509748Y-114858353D01*
X133453084Y-114941151D01*
X133455526Y-114981939D01*
X133381032Y-115212260D01*
X133329497Y-115333161D01*
X133241325Y-115571297D01*
X133045443Y-115503398D01*
X132948234Y-115495094D01*
X132810969Y-115443070D01*
X132814145Y-115397397D01*
X132802305Y-115357450D01*
X132759923Y-115311912D01*
X132910376Y-115071332D01*
X132981695Y-114874473D01*
X133030624Y-114797570D01*
X133068157Y-114769692D01*
X133120669Y-114748688D01*
X133158527Y-114701549D01*
X133097467Y-114658983D01*
X133081835Y-114621193D01*
X133114039Y-114546191D01*
X133245478Y-114450223D01*
X133240348Y-114373775D01*
X133410830Y-113997152D01*
X133470425Y-113880893D01*
X133634801Y-113554584D01*
X133637036Y-113550188D01*
X134037557Y-113550188D01*
X134045456Y-113568120D01*
X134073217Y-113575101D01*
X134275450Y-113558736D01*
X134519448Y-113583405D01*
X134645478Y-113591465D01*
X134805212Y-113618576D01*
X134873356Y-113599769D01*
X134947606Y-113605143D01*
X135021612Y-113596838D01*
X135100258Y-113607585D01*
X135159853Y-113591465D01*
X135315924Y-113591465D01*
X135410446Y-113571926D01*
X135583370Y-113657166D01*
X135647356Y-113638200D01*
X135710865Y-113573147D01*
X135891605Y-113553119D01*
X136076008Y-113512330D01*
X136319518Y-113512330D01*
X136471437Y-113529672D01*
X136503921Y-113473496D01*
X136589895Y-113484487D01*
X136649979Y-113449316D01*
X136708108Y-113472763D01*
X136680997Y-113397048D01*
X136605038Y-113261493D01*
X136572554Y-113185533D01*
X136509783Y-113117634D01*
X136435289Y-112979637D01*
X136409888Y-112878520D01*
X136398221Y-112819975D01*
X136380823Y-112797187D01*
X136272805Y-112695996D01*
X136135115Y-112477229D01*
X136036929Y-112254235D01*
X136106538Y-112211493D01*
X136091151Y-112186580D01*
X136005666Y-112194396D01*
X136000781Y-112194396D01*
X135952665Y-112172170D01*
X135966343Y-112096210D01*
X135886489Y-112045140D01*
X135820286Y-111943314D01*
X135799178Y-111903898D01*
X135758004Y-111869064D01*
X135700607Y-111736685D01*
X135542337Y-111436510D01*
X135424368Y-111257236D01*
X135404096Y-111257236D01*
X135395634Y-111177601D01*
X135361598Y-111089197D01*
X135330707Y-111048428D01*
X135277822Y-111008597D01*
X135203328Y-111138290D01*
X135157166Y-111219867D01*
X135107829Y-111378625D01*
X135017459Y-111491221D01*
X134976671Y-111586231D01*
X134936127Y-111656573D01*
X134919762Y-111762330D01*
X134853328Y-111865889D01*
X134813028Y-111943803D01*
X134770041Y-111940383D01*
X134737876Y-111948392D01*
X134713377Y-111972868D01*
X134763935Y-111995582D01*
X134757190Y-112054920D01*
X134727787Y-112125031D01*
X134685000Y-112218474D01*
X134657445Y-112326043D01*
X134626671Y-112379043D01*
X134558039Y-112499455D01*
X134498443Y-112583475D01*
X134479881Y-112650642D01*
X134441535Y-112738813D01*
X134346524Y-112725380D01*
X134326985Y-112806957D01*
X134341151Y-112928590D01*
X134296699Y-113027508D01*
X134252491Y-113123496D01*
X134234584Y-113145049D01*
X134145757Y-113313272D01*
X134070041Y-113396071D01*
X134061737Y-113459330D01*
X134037557Y-113550188D01*
X133637036Y-113550188D01*
X133725502Y-113376149D01*
X133751304Y-113303503D01*
X133782561Y-113144502D01*
X133872594Y-112973800D01*
X134037801Y-112784731D01*
X134029009Y-112721228D01*
X134075170Y-112712191D01*
X134113272Y-112646245D01*
X134049525Y-112607655D01*
X134167739Y-112371228D01*
X134226845Y-112280125D01*
X134234905Y-112204654D01*
X134263090Y-112113986D01*
X134330893Y-112021960D01*
X134345059Y-111932079D01*
X134399281Y-111795792D01*
X134432254Y-111711039D01*
X134508213Y-111634103D01*
X134560725Y-111584277D01*
X134529951Y-111517110D01*
X134571472Y-111391325D01*
X134637396Y-111264959D01*
X134686022Y-111225484D01*
X134807655Y-111187627D01*
X134847466Y-111129741D01*
X134740488Y-111073565D01*
X134740488Y-111003468D01*
X134776392Y-110814668D01*
X134825668Y-110709761D01*
X134846978Y-110625624D01*
X134879706Y-110445129D01*
X134899458Y-110313228D01*
X134933630Y-110255292D01*
X134977892Y-110238743D01*
X135023959Y-110248222D01*
G37*
G36*
X132701060Y-112787906D02*
G01*
X132651967Y-112716343D01*
X132547920Y-112660411D01*
X132465366Y-112607655D01*
X132427508Y-112564180D01*
X132333954Y-112576477D01*
X132299769Y-112597885D01*
X132208422Y-112821612D01*
X132205736Y-112892930D01*
X132175938Y-112987941D01*
X132158353Y-113056085D01*
X132081416Y-113098583D01*
X132042581Y-113216064D01*
X131992512Y-113372379D01*
X131980055Y-113438569D01*
X131927543Y-113487173D01*
X131892372Y-113579253D01*
X131854270Y-113633719D01*
X131762435Y-113797362D01*
X131788813Y-113885289D01*
X131707969Y-113940732D01*
X131665959Y-114004968D01*
X131599769Y-114106573D01*
X131563377Y-114183754D01*
X131533091Y-114195478D01*
X131503943Y-114181739D01*
X131474961Y-114126845D01*
X131354305Y-113904340D01*
X131329881Y-113844501D01*
X131286161Y-113765610D01*
X131207759Y-113567529D01*
X131145676Y-113549350D01*
X131117878Y-113524298D01*
X131139371Y-113413412D01*
X131121416Y-113349750D01*
X131026287Y-113150362D01*
X131016273Y-113093698D01*
X131030439Y-112996489D01*
X130947397Y-112853363D01*
X130914912Y-112715122D01*
X130885302Y-112664776D01*
X130795722Y-112600327D01*
X130606678Y-112566378D01*
X130580788Y-112592023D01*
X130659923Y-112794012D01*
X130741256Y-112967424D01*
X130810621Y-113117145D01*
X130845303Y-113181137D01*
X130973775Y-113528206D01*
X131027020Y-113628590D01*
X131066831Y-113684277D01*
X131088569Y-113758039D01*
X131119099Y-113813482D01*
X131296420Y-114138325D01*
X131367250Y-114312714D01*
X131435882Y-114362540D01*
X131400711Y-114458039D01*
X131485952Y-114505422D01*
X131643000Y-114608248D01*
X131693803Y-114647327D01*
X131743628Y-114653921D01*
X131786615Y-114579183D01*
X131807864Y-114483684D01*
X131871123Y-114421646D01*
X131898478Y-114340314D01*
X131961004Y-114220146D01*
X132034521Y-114064808D01*
X132067739Y-114006922D01*
X132076531Y-113903119D01*
X132089232Y-113854515D01*
X132109847Y-113836878D01*
X132169344Y-113815924D01*
X132169344Y-113792721D01*
X132131242Y-113735812D01*
X132146455Y-113684887D01*
X132199141Y-113632986D01*
X132288046Y-113618087D01*
X132327124Y-113499141D01*
X132374508Y-113361632D01*
X132368646Y-113337697D01*
X132353258Y-113263447D01*
X132414808Y-113215087D01*
X132485118Y-113153761D01*
X132542791Y-113072937D01*
X132701060Y-112787906D01*
G37*
G36*
X129150258Y-112542930D02*
G01*
X129202526Y-112545617D01*
X129325380Y-112580055D01*
X129437732Y-112580055D01*
X129548374Y-112625484D01*
X129723496Y-112678485D01*
X129805073Y-112720739D01*
X129932323Y-112749560D01*
X129998757Y-112793279D01*
X130070321Y-112848234D01*
X130000711Y-112923461D01*
X129883963Y-112960097D01*
X129780648Y-112990383D01*
X129700537Y-112970355D01*
X129651933Y-112911737D01*
X129615052Y-112887801D01*
X129514529Y-112823441D01*
X129381556Y-112761039D01*
X129293872Y-112706817D01*
X129209609Y-112650886D01*
X129158318Y-112715610D01*
X129092128Y-112709504D01*
X129013726Y-112725868D01*
X128925799Y-112725868D01*
X128721612Y-112763237D01*
X128582393Y-112929078D01*
X128499106Y-112934207D01*
X128334731Y-112978171D01*
X128477613Y-113155003D01*
X128455143Y-113243175D01*
X128466951Y-113299983D01*
X128500816Y-113339651D01*
X128617320Y-113362365D01*
X128832986Y-113389476D01*
X128939476Y-113389476D01*
X128989302Y-113395094D01*
X129041814Y-113400956D01*
X129129253Y-113431486D01*
X129293384Y-113450781D01*
X129433579Y-113515017D01*
X129598932Y-113560202D01*
X129661458Y-113630544D01*
X129709574Y-113625659D01*
X129808736Y-113676706D01*
X129982393Y-113763900D01*
X130161423Y-113937313D01*
X130237871Y-114079218D01*
X130274752Y-114164703D01*
X130274752Y-114168122D01*
X130247152Y-114288290D01*
X130220774Y-114392581D01*
X130158492Y-114415052D01*
X130127814Y-114480897D01*
X130091325Y-114520565D01*
X129947466Y-114594082D01*
X129861737Y-114630474D01*
X129746210Y-114641709D01*
X129532009Y-114677369D01*
X129416238Y-114647327D01*
X129301933Y-114655631D01*
X129079916Y-114608981D01*
X129024228Y-114603363D01*
X128923845Y-114551584D01*
X128824682Y-114562330D01*
X128748722Y-114545722D01*
X128668855Y-114529113D01*
X128451967Y-114447048D01*
X128491290Y-114623147D01*
X128422658Y-114658318D01*
X128308108Y-114622170D01*
X128242407Y-114603119D01*
X128138360Y-114556224D01*
X128049944Y-114509818D01*
X128003782Y-114438011D01*
X128035533Y-114359853D01*
X128055073Y-114306364D01*
X128091218Y-114243474D01*
X128100502Y-114203293D01*
X128089428Y-114158846D01*
X128050676Y-114106817D01*
X128059436Y-114042093D01*
X128387732Y-114042093D01*
X128405806Y-114079827D01*
X128446106Y-114113168D01*
X128462226Y-114202561D01*
X128556748Y-114248478D01*
X128613900Y-114332498D01*
X128731625Y-114379392D01*
X128833475Y-114424089D01*
X128893558Y-114412609D01*
X128966587Y-114447292D01*
X129111667Y-114499804D01*
X129189092Y-114483196D01*
X129247711Y-114519099D01*
X129313900Y-114489546D01*
X129387173Y-114530090D01*
X129421612Y-114527404D01*
X129502700Y-114516901D01*
X129550083Y-114459016D01*
X129661458Y-114427264D01*
X129792128Y-114351304D01*
X129865645Y-114416762D01*
X129887871Y-114373042D01*
X129861249Y-114311249D01*
X129817529Y-114230404D01*
X129863203Y-114164703D01*
X129882254Y-114010097D01*
X129903991Y-113979567D01*
X129895443Y-113954898D01*
X129826256Y-113927870D01*
X129798722Y-113904584D01*
X129739616Y-113821053D01*
X129649537Y-113755028D01*
X129490732Y-113672798D01*
X129347117Y-113615157D01*
X129264319Y-113566064D01*
X129259923Y-113566064D01*
X129195931Y-113582672D01*
X129138534Y-113568262D01*
X128978799Y-113552386D01*
X128920914Y-113534068D01*
X128837871Y-113577055D01*
X128785847Y-113577055D01*
X128704026Y-113574124D01*
X128597536Y-113579986D01*
X128482742Y-113577055D01*
X128427787Y-113609783D01*
X128446838Y-113702107D01*
X128444152Y-113734103D01*
X128438778Y-113863796D01*
X128438778Y-113908736D01*
X128441465Y-113981277D01*
X128387732Y-114042093D01*
X128059436Y-114042093D01*
X128081451Y-113879427D01*
X128078764Y-113820076D01*
X128067773Y-113723112D01*
X128070949Y-113657655D01*
X128129870Y-113619908D01*
X128144221Y-113588534D01*
X128132040Y-113559627D01*
X128081207Y-113518681D01*
X128092442Y-113302281D01*
X128115157Y-113163551D01*
X128129811Y-113163551D01*
X128152529Y-113124959D01*
X128185254Y-113019692D01*
X128177194Y-112913691D01*
X128183300Y-112870704D01*
X128251200Y-112821612D01*
X128263317Y-112768750D01*
X128294431Y-112723670D01*
X128376985Y-112750048D01*
X128436336Y-112771297D01*
X128454581Y-112764128D01*
X128461249Y-112740523D01*
X128451978Y-112716171D01*
X128411179Y-112672379D01*
X128478532Y-112618825D01*
X128520111Y-112603747D01*
X128670076Y-112576392D01*
X128735045Y-112568332D01*
X128884277Y-112529741D01*
X129054270Y-112526810D01*
X129150258Y-112542930D01*
G37*
G36*
X127316482Y-112759818D02*
G01*
X127261528Y-112663098D01*
X127117424Y-112576636D01*
X126979916Y-112501898D01*
X126932403Y-112512221D01*
X126898827Y-112542198D01*
X126887592Y-112589825D01*
X126865366Y-112676287D01*
X126873670Y-112722693D01*
X126849002Y-112771297D01*
X126707096Y-112704863D01*
X126592547Y-112666517D01*
X126477997Y-112590314D01*
X126403747Y-112560027D01*
X126334138Y-112529253D01*
X126274054Y-112540244D01*
X126266727Y-112540244D01*
X126083300Y-112483091D01*
X125998792Y-112477229D01*
X125928450Y-112492616D01*
X125872030Y-112546106D01*
X125837592Y-112553433D01*
X125761877Y-112516064D01*
X125744780Y-112512644D01*
X125706694Y-112521901D01*
X125657585Y-112555387D01*
X125619841Y-112603391D01*
X125591395Y-112680439D01*
X125758457Y-112811109D01*
X125819708Y-112875422D01*
X125851270Y-112889267D01*
X125897594Y-112872375D01*
X125969483Y-112802316D01*
X126047885Y-112807201D01*
X126168541Y-112773984D01*
X126294815Y-112741988D01*
X126331016Y-112783339D01*
X126388848Y-112801828D01*
X126483126Y-112812330D01*
X126593279Y-112845547D01*
X126637243Y-112827962D01*
X126824822Y-112972554D01*
X126885052Y-113050821D01*
X126906399Y-113187732D01*
X126906399Y-113196036D01*
X126906399Y-113283230D01*
X126903712Y-113365540D01*
X126915207Y-113399622D01*
X126963307Y-113456154D01*
X126929508Y-113503014D01*
X126920076Y-113540662D01*
X126924228Y-113581695D01*
X126884905Y-113591953D01*
X126876357Y-113679637D01*
X126862679Y-114171053D01*
X126875136Y-114205247D01*
X126949874Y-114245547D01*
X127097641Y-114279253D01*
X126933510Y-114306852D01*
X126881486Y-114294640D01*
X126851688Y-114427020D01*
X126867839Y-114486243D01*
X126918611Y-114532288D01*
X127060272Y-114560621D01*
X127175066Y-114627787D01*
X127217564Y-114640000D01*
X127273213Y-114623067D01*
X127290837Y-114574787D01*
X127249560Y-114416517D01*
X127244431Y-114386231D01*
X127258108Y-114263621D01*
X127245652Y-114210376D01*
X127180928Y-114191570D01*
X127178974Y-114153956D01*
X127187461Y-114120802D01*
X127220006Y-114072135D01*
X127220006Y-114000816D01*
X127236371Y-113872833D01*
X127228066Y-113714075D01*
X127146380Y-113670706D01*
X127126950Y-113632254D01*
X127132812Y-113598060D01*
X127182149Y-113604654D01*
X127236371Y-113578520D01*
X127236371Y-113454689D01*
X127236371Y-113397292D01*
X127236371Y-113323531D01*
X127236371Y-113301793D01*
X127239057Y-113253189D01*
X127239057Y-113208981D01*
X127205596Y-113093454D01*
X127244187Y-113041919D01*
X127255422Y-112862644D01*
X127316482Y-112759818D01*
G37*
G36*
X125424089Y-112754200D02*
G01*
X125407507Y-112708845D01*
X125339092Y-112639651D01*
X125158993Y-112517276D01*
X125020600Y-112453538D01*
X124931695Y-112545617D01*
X124976636Y-112739790D01*
X124993000Y-112861423D01*
X124993000Y-112964982D01*
X125039651Y-113030683D01*
X125025616Y-113090956D01*
X124977857Y-113158178D01*
X124995931Y-113194570D01*
X124990314Y-113329148D01*
X124993000Y-113359923D01*
X124995931Y-113421716D01*
X125009609Y-113943419D01*
X124973949Y-114131242D01*
X124968576Y-114246036D01*
X124952212Y-114342512D01*
X124964587Y-114399184D01*
X125003747Y-114451933D01*
X125108527Y-114523740D01*
X125265819Y-114639511D01*
X125317843Y-114650990D01*
X125352295Y-114642468D01*
X125391849Y-114612889D01*
X125377683Y-114519344D01*
X125347641Y-114398688D01*
X125344954Y-114265819D01*
X125325659Y-113998129D01*
X125328346Y-113949036D01*
X125313603Y-113910116D01*
X125276810Y-113897501D01*
X125254829Y-113899211D01*
X125243593Y-113847920D01*
X125259713Y-113765366D01*
X125275833Y-113691116D01*
X125323461Y-113654724D01*
X125314668Y-113560935D01*
X125317355Y-113520635D01*
X125317355Y-113481800D01*
X125291709Y-113403398D01*
X125317355Y-113334277D01*
X125317355Y-113312295D01*
X125317355Y-113293489D01*
X125323461Y-113224124D01*
X125167237Y-113187560D01*
X125145408Y-113173077D01*
X125148339Y-113170390D01*
X125190865Y-113145724D01*
X125244082Y-113137173D01*
X125360341Y-113143524D01*
X125350327Y-113080020D01*
X125372065Y-112810376D01*
X125383926Y-112784717D01*
X125424089Y-112754200D01*
G37*
G36*
X125374996Y-111652421D02*
G01*
X125374996Y-111649979D01*
X125364713Y-111589474D01*
X125321958Y-111519861D01*
X125232358Y-111436022D01*
X125162505Y-111365680D01*
X125107794Y-111321960D01*
X124980788Y-111154410D01*
X124908004Y-111122903D01*
X124840593Y-111165645D01*
X124798631Y-111211546D01*
X124785394Y-111264563D01*
X124797597Y-111307616D01*
X124838150Y-111347362D01*
X125077997Y-111543733D01*
X125154933Y-111593558D01*
X125250921Y-111659016D01*
X125342512Y-111701270D01*
X125365755Y-111690633D01*
X125374996Y-111652421D01*
G37*
G36*
X124187732Y-112879009D02*
G01*
X124218377Y-112850773D01*
X124227787Y-112817704D01*
X124194815Y-112679706D01*
X124124717Y-112403468D01*
X124009923Y-112395163D01*
X124046803Y-112299420D01*
X124055840Y-112254968D01*
X123987208Y-112031486D01*
X123918087Y-111825101D01*
X123825031Y-111669762D01*
X123769099Y-111681974D01*
X123725380Y-111695163D01*
X123674333Y-111665610D01*
X123629881Y-111650956D01*
X123614982Y-111619448D01*
X123677020Y-111611632D01*
X123706085Y-111507096D01*
X123691775Y-111472288D01*
X123621821Y-111391325D01*
X123579078Y-111338080D01*
X123529009Y-111262854D01*
X123464528Y-111165645D01*
X123444745Y-111145861D01*
X123364145Y-111052072D01*
X123246420Y-110971472D01*
X123237627Y-110980265D01*
X123169972Y-110946315D01*
X123164598Y-110884766D01*
X122809469Y-110601200D01*
X122726671Y-110551130D01*
X122652177Y-110501793D01*
X122584033Y-110482742D01*
X122460446Y-110408248D01*
X122385219Y-110432672D01*
X122347850Y-110333265D01*
X122237208Y-110354759D01*
X122229392Y-110306154D01*
X122105073Y-110266587D01*
X121907236Y-110219692D01*
X121825659Y-110195268D01*
X121720635Y-110171088D01*
X121654445Y-110121018D01*
X121586057Y-110123949D01*
X121451723Y-110089023D01*
X121359155Y-110074856D01*
X121277822Y-110086092D01*
X121243140Y-110091221D01*
X120878241Y-110080230D01*
X120777911Y-110107661D01*
X120681137Y-110183789D01*
X120613237Y-110247048D01*
X120575980Y-110225755D01*
X120524333Y-110128101D01*
X120432872Y-110176869D01*
X120372658Y-110189651D01*
X120336022Y-110186964D01*
X120260307Y-110170111D01*
X120171158Y-110200642D01*
X119842050Y-110292256D01*
X119700990Y-110342547D01*
X119700990Y-110437557D01*
X119708806Y-110436336D01*
X119760341Y-110492267D01*
X119859482Y-110583376D01*
X119900048Y-110601444D01*
X119993593Y-110565052D01*
X120354340Y-110427543D01*
X120388534Y-110340348D01*
X120452281Y-110355003D01*
X120506748Y-110369169D01*
X120686999Y-110311284D01*
X120753433Y-110270251D01*
X120775170Y-110237278D01*
X120886545Y-110270739D01*
X121042128Y-110270739D01*
X121261214Y-110270739D01*
X121328869Y-110262679D01*
X121515715Y-110308841D01*
X121683021Y-110328136D01*
X121849595Y-110360865D01*
X121954131Y-110406782D01*
X122090418Y-110469309D01*
X122188848Y-110537697D01*
X122382274Y-110630774D01*
X122510477Y-110718124D01*
X122589651Y-110800013D01*
X122747676Y-110874019D01*
X122760132Y-110938011D01*
X122905945Y-111055491D01*
X122970914Y-111115087D01*
X123079113Y-111242337D01*
X123129916Y-111259923D01*
X123148478Y-111258946D01*
X123138464Y-111287522D01*
X123273775Y-111519309D01*
X123393454Y-111652177D01*
X123455980Y-111796036D01*
X123513133Y-111932568D01*
X123537801Y-112012191D01*
X123633300Y-112210516D01*
X123668715Y-112374159D01*
X123715122Y-112551967D01*
X123738225Y-112585556D01*
X123804270Y-112611074D01*
X123785759Y-112667298D01*
X123740767Y-112719762D01*
X123769588Y-112815017D01*
X123748094Y-112963272D01*
X123744919Y-112976217D01*
X123752136Y-113001610D01*
X123774473Y-113019204D01*
X123990628Y-113101025D01*
X124010167Y-113123740D01*
X123997955Y-113149630D01*
X123944954Y-113244152D01*
X123920774Y-113300327D01*
X123795478Y-113403398D01*
X123748339Y-113530893D01*
X123722449Y-113639825D01*
X123738080Y-113639825D01*
X123724159Y-113718960D01*
X123687522Y-113729218D01*
X123654794Y-113812749D01*
X123647711Y-113812749D01*
X123635743Y-113890418D01*
X123612051Y-113991779D01*
X123562714Y-114090697D01*
X123485533Y-114328834D01*
X123496751Y-114354122D01*
X123536336Y-114364005D01*
X123515331Y-114416517D01*
X123433265Y-114425310D01*
X123378799Y-114454131D01*
X123274263Y-114583091D01*
X123192442Y-114656852D01*
X123130160Y-114735498D01*
X122977508Y-114830509D01*
X122964927Y-114888418D01*
X122936720Y-114923565D01*
X122806782Y-114988534D01*
X122683440Y-115062540D01*
X122590872Y-115106015D01*
X122506364Y-115149734D01*
X122415505Y-115185394D01*
X122352491Y-115232288D01*
X122301444Y-115273810D01*
X122264634Y-115247262D01*
X122228171Y-115239127D01*
X121910167Y-115323879D01*
X121553328Y-115326566D01*
X121508387Y-115343907D01*
X121434382Y-115372728D01*
X121392616Y-115340244D01*
X121353538Y-115318506D01*
X121319832Y-115321193D01*
X121301758Y-115323879D01*
X121081207Y-115293838D01*
X120834521Y-115238883D01*
X120714354Y-115269169D01*
X120670794Y-115257679D01*
X120580753Y-115206887D01*
X120451549Y-115176601D01*
X120294745Y-115115785D01*
X120229288Y-115130195D01*
X120178155Y-115123307D01*
X120000921Y-115070355D01*
X119764494Y-114988778D01*
X119721995Y-114937487D01*
X119616727Y-114884975D01*
X119530234Y-114846373D01*
X119454549Y-114834661D01*
X119396420Y-114848339D01*
X119387028Y-114791301D01*
X119369553Y-114765785D01*
X119275031Y-114717913D01*
X119173182Y-114665401D01*
X119107725Y-114693733D01*
X119130033Y-114834694D01*
X119166343Y-114925764D01*
X119203956Y-115030300D01*
X119240104Y-115075973D01*
X119471646Y-115126043D01*
X119600607Y-115172693D01*
X119748129Y-115208108D01*
X119868297Y-115232777D01*
X119996769Y-115268192D01*
X120111563Y-115284556D01*
X120309888Y-115336824D01*
X120394884Y-115334138D01*
X120498932Y-115331451D01*
X120498932Y-115340000D01*
X120516030Y-115383669D01*
X120572205Y-115399595D01*
X120595408Y-115396908D01*
X120648653Y-115391535D01*
X120676985Y-115396664D01*
X121013063Y-115473112D01*
X121260481Y-115500711D01*
X121468332Y-115511702D01*
X121475170Y-115511702D01*
X121505118Y-115540730D01*
X121547222Y-115552735D01*
X121763621Y-115558108D01*
X121829645Y-115548255D01*
X121949490Y-115508527D01*
X122014947Y-115498025D01*
X122045089Y-115508163D01*
X122085045Y-115547362D01*
X122226950Y-115541500D01*
X122278768Y-115480186D01*
X122315610Y-115465296D01*
X122323670Y-115465296D01*
X122424054Y-115467983D01*
X122474124Y-115473356D01*
X122583603Y-115454825D01*
X122737173Y-115387627D01*
X122999490Y-115262330D01*
X123302595Y-115083300D01*
X123327020Y-115020530D01*
X123263272Y-115020530D01*
X123263272Y-114990244D01*
X123279332Y-114923402D01*
X123320669Y-114900118D01*
X123362315Y-114936624D01*
X123392233Y-114946036D01*
X123492372Y-114876182D01*
X123679218Y-114747222D01*
X123737103Y-114667110D01*
X123764459Y-114637069D01*
X123860202Y-114494431D01*
X123986796Y-114292865D01*
X124082230Y-114074234D01*
X124146943Y-113835952D01*
X124091256Y-113802491D01*
X124091256Y-113759260D01*
X124151339Y-113718227D01*
X124175519Y-113599281D01*
X124191639Y-113542372D01*
X124224856Y-113480823D01*
X124227787Y-113375554D01*
X124238778Y-113254166D01*
X124222903Y-113200676D01*
X124249769Y-113096629D01*
X124239347Y-113033472D01*
X124206782Y-112971088D01*
X124187732Y-112879009D01*
G37*
G36*
X117428066Y-112511667D02*
G01*
X117561667Y-112522658D01*
X117769762Y-112588604D01*
X117844745Y-112602526D01*
X118047955Y-112742721D01*
X118247990Y-112865819D01*
X118462923Y-113064389D01*
X118523251Y-113193349D01*
X118615331Y-113301793D01*
X118663447Y-113427822D01*
X118702037Y-113626880D01*
X118695117Y-113804107D01*
X118682254Y-113862575D01*
X118611912Y-114012295D01*
X118641465Y-114079218D01*
X118545233Y-114185464D01*
X118496629Y-114271926D01*
X118478815Y-114298165D01*
X118411388Y-114346908D01*
X118317110Y-114406259D01*
X118222344Y-114489302D01*
X117995198Y-114563551D01*
X117937313Y-114599455D01*
X117883579Y-114605317D01*
X117683300Y-114624368D01*
X117581451Y-114616064D01*
X117534801Y-114613133D01*
X117440034Y-114596524D01*
X117279323Y-114621681D01*
X117189197Y-114593349D01*
X117048269Y-114574054D01*
X116812819Y-114518122D01*
X116742251Y-114504545D01*
X116686789Y-114477578D01*
X116601060Y-114423112D01*
X116537313Y-114442651D01*
X116389302Y-114173496D01*
X116352177Y-114035010D01*
X116431800Y-113994710D01*
X116483670Y-114004565D01*
X116514842Y-114031102D01*
X116607166Y-114164703D01*
X116744675Y-114266064D01*
X116912714Y-114361074D01*
X117039476Y-114376950D01*
X117173810Y-114415296D01*
X117348932Y-114434591D01*
X117486441Y-114467076D01*
X117554096Y-114451444D01*
X117721402Y-114382323D01*
X117769762Y-114387208D01*
X117815436Y-114317110D01*
X117914110Y-114296106D01*
X117934926Y-114270145D01*
X117955143Y-114194501D01*
X118045098Y-114173245D01*
X118093384Y-114146385D01*
X118128124Y-114097694D01*
X118162993Y-113995198D01*
X118245547Y-113973705D01*
X118232114Y-113874054D01*
X118283649Y-113845233D01*
X118334207Y-113613935D01*
X118352400Y-113585648D01*
X118422379Y-113529183D01*
X118361807Y-113442965D01*
X118334940Y-113318157D01*
X118124891Y-113261737D01*
X118010586Y-113264424D01*
X117881625Y-113242686D01*
X117756329Y-113231939D01*
X117655457Y-113221193D01*
X117420251Y-113216064D01*
X117406573Y-113227055D01*
X117300572Y-113218506D01*
X117112260Y-113251723D01*
X116986475Y-113140104D01*
X116810132Y-113259783D01*
X116726601Y-113237557D01*
X116633056Y-113253921D01*
X116529986Y-113216308D01*
X116445478Y-113240488D01*
X116420076Y-113215331D01*
X116459888Y-113113482D01*
X116506294Y-112988918D01*
X116512995Y-112976950D01*
X116925903Y-112976950D01*
X116928346Y-113001863D01*
X116934207Y-113023356D01*
X117091256Y-113009434D01*
X117239023Y-113047536D01*
X117308387Y-113060481D01*
X117354549Y-113004061D01*
X117447362Y-113017983D01*
X117601235Y-113044849D01*
X117605631Y-113044849D01*
X117740453Y-113009678D01*
X117776113Y-113022623D01*
X117877718Y-113144989D01*
X117932916Y-113089546D01*
X118132463Y-113010900D01*
X118134417Y-113008946D01*
X118134417Y-112999665D01*
X118074333Y-112952770D01*
X117968820Y-112861667D01*
X117768297Y-112783510D01*
X117615645Y-112744187D01*
X117525519Y-112690942D01*
X117473007Y-112693628D01*
X117206782Y-112704131D01*
X117153782Y-112766657D01*
X117060725Y-112811598D01*
X117043721Y-112820256D01*
X116984277Y-112889511D01*
X116956434Y-112922484D01*
X116925903Y-112976950D01*
X116512995Y-112976950D01*
X116539765Y-112929139D01*
X116598129Y-112859469D01*
X116835778Y-112630614D01*
X116890732Y-112604968D01*
X116951793Y-112538290D01*
X117037034Y-112590802D01*
X117084399Y-112513278D01*
X117152648Y-112467880D01*
X117248792Y-112451584D01*
X117428066Y-112511667D01*
G37*
D11*
X124311009Y-84186831D02*
X124358628Y-84329688D01*
X124358628Y-84329688D02*
X124406247Y-84377307D01*
X124406247Y-84377307D02*
X124501485Y-84424926D01*
X124501485Y-84424926D02*
X124644342Y-84424926D01*
X124644342Y-84424926D02*
X124739580Y-84377307D01*
X124739580Y-84377307D02*
X124787200Y-84329688D01*
X124787200Y-84329688D02*
X124834819Y-84234450D01*
X124834819Y-84234450D02*
X124834819Y-83853498D01*
X124834819Y-83853498D02*
X123834819Y-83853498D01*
X123834819Y-83853498D02*
X123834819Y-84186831D01*
X123834819Y-84186831D02*
X123882438Y-84282069D01*
X123882438Y-84282069D02*
X123930057Y-84329688D01*
X123930057Y-84329688D02*
X124025295Y-84377307D01*
X124025295Y-84377307D02*
X124120533Y-84377307D01*
X124120533Y-84377307D02*
X124215771Y-84329688D01*
X124215771Y-84329688D02*
X124263390Y-84282069D01*
X124263390Y-84282069D02*
X124311009Y-84186831D01*
X124311009Y-84186831D02*
X124311009Y-83853498D01*
X123834819Y-84710641D02*
X123834819Y-85282069D01*
X124834819Y-84996355D02*
X123834819Y-84996355D01*
X124834819Y-86139212D02*
X124834819Y-85567784D01*
X124834819Y-85853498D02*
X123834819Y-85853498D01*
X123834819Y-85853498D02*
X123977676Y-85758260D01*
X123977676Y-85758260D02*
X124072914Y-85663022D01*
X124072914Y-85663022D02*
X124120533Y-85567784D01*
%TO.C,BT1*%
D12*
X128080000Y-88372546D02*
X129080000Y-88372546D01*
X128580000Y-87872546D02*
X128580000Y-88872546D01*
X131680000Y-87372547D02*
G75*
G02*
X125480000Y-87372547I-3100000J-11499999D01*
G01*
%TD*%
M02*
