%TF.GenerationSoftware,KiCad,Pcbnew,10.0.0*%
%TF.CreationDate,2026-03-29T20:07:52+03:00*%
%TF.ProjectId,Christmas Ornaments,43687269-7374-46d6-9173-204f726e616d,A*%
%TF.SameCoordinates,Original*%
%TF.FileFunction,Soldermask,Top*%
%TF.FilePolarity,Negative*%
%FSLAX46Y46*%
G04 Gerber Fmt 4.6, Leading zero omitted, Abs format (unit mm)*
G04 Created by KiCad (PCBNEW 10.0.0) date 2026-03-29 20:07:52*
%MOMM*%
%LPD*%
G01*
G04 APERTURE LIST*
G04 APERTURE END LIST*
G36*
X129125219Y-116691713D02*
G01*
X129134964Y-116696257D01*
X129142281Y-116697416D01*
X129194415Y-116723979D01*
X129233417Y-116742166D01*
X129236853Y-116745602D01*
X129237932Y-116746152D01*
X129313847Y-116822067D01*
X129314396Y-116823145D01*
X129317834Y-116826583D01*
X129336023Y-116865590D01*
X129362582Y-116917715D01*
X129363740Y-116925031D01*
X129368287Y-116934781D01*
X129380000Y-117023750D01*
X129380000Y-117511250D01*
X129368287Y-117600219D01*
X129363741Y-117609967D01*
X129362583Y-117617281D01*
X129336031Y-117669392D01*
X129317834Y-117708417D01*
X129314395Y-117711855D01*
X129313847Y-117712932D01*
X129237932Y-117788847D01*
X129236855Y-117789395D01*
X129233417Y-117792834D01*
X129194397Y-117811028D01*
X129142284Y-117837582D01*
X129134969Y-117838740D01*
X129125219Y-117843287D01*
X129036250Y-117855000D01*
X128123750Y-117855000D01*
X128034781Y-117843287D01*
X128025033Y-117838741D01*
X128017718Y-117837583D01*
X127965596Y-117811025D01*
X127926583Y-117792834D01*
X127923145Y-117789396D01*
X127922067Y-117788847D01*
X127846152Y-117712932D01*
X127845602Y-117711853D01*
X127842166Y-117708417D01*
X127823981Y-117669420D01*
X127797417Y-117617284D01*
X127796257Y-117609965D01*
X127791713Y-117600219D01*
X127780000Y-117511250D01*
X127780000Y-117023750D01*
X127791713Y-116934781D01*
X127796256Y-116925036D01*
X127797416Y-116917718D01*
X127823984Y-116865573D01*
X127842166Y-116826583D01*
X127845601Y-116823147D01*
X127846152Y-116822067D01*
X127922067Y-116746152D01*
X127923147Y-116745601D01*
X127926583Y-116742166D01*
X127965567Y-116723987D01*
X128017715Y-116697417D01*
X128025034Y-116696257D01*
X128034781Y-116691713D01*
X128123750Y-116680000D01*
X129036250Y-116680000D01*
X129125219Y-116691713D01*
G37*
G36*
X129125219Y-114816713D02*
G01*
X129134964Y-114821257D01*
X129142281Y-114822416D01*
X129194415Y-114848979D01*
X129233417Y-114867166D01*
X129236853Y-114870602D01*
X129237932Y-114871152D01*
X129313847Y-114947067D01*
X129314396Y-114948145D01*
X129317834Y-114951583D01*
X129336023Y-114990590D01*
X129362582Y-115042715D01*
X129363740Y-115050031D01*
X129368287Y-115059781D01*
X129380000Y-115148750D01*
X129380000Y-115636250D01*
X129368287Y-115725219D01*
X129363741Y-115734967D01*
X129362583Y-115742281D01*
X129336031Y-115794392D01*
X129317834Y-115833417D01*
X129314395Y-115836855D01*
X129313847Y-115837932D01*
X129237932Y-115913847D01*
X129236855Y-115914395D01*
X129233417Y-115917834D01*
X129194397Y-115936028D01*
X129142284Y-115962582D01*
X129134969Y-115963740D01*
X129125219Y-115968287D01*
X129036250Y-115980000D01*
X128123750Y-115980000D01*
X128034781Y-115968287D01*
X128025033Y-115963741D01*
X128017718Y-115962583D01*
X127965596Y-115936025D01*
X127926583Y-115917834D01*
X127923145Y-115914396D01*
X127922067Y-115913847D01*
X127846152Y-115837932D01*
X127845602Y-115836853D01*
X127842166Y-115833417D01*
X127823981Y-115794420D01*
X127797417Y-115742284D01*
X127796257Y-115734965D01*
X127791713Y-115725219D01*
X127780000Y-115636250D01*
X127780000Y-115148750D01*
X127791713Y-115059781D01*
X127796256Y-115050036D01*
X127797416Y-115042718D01*
X127823984Y-114990573D01*
X127842166Y-114951583D01*
X127845601Y-114948147D01*
X127846152Y-114947067D01*
X127922067Y-114871152D01*
X127923147Y-114870601D01*
X127926583Y-114867166D01*
X127965567Y-114848987D01*
X128017715Y-114822417D01*
X128025034Y-114821257D01*
X128034781Y-114816713D01*
X128123750Y-114805000D01*
X129036250Y-114805000D01*
X129125219Y-114816713D01*
G37*
G36*
X129129868Y-112644550D02*
G01*
X129135586Y-112647345D01*
X129137962Y-112647722D01*
X129175987Y-112667096D01*
X129233377Y-112695153D01*
X129314847Y-112776623D01*
X129342907Y-112834020D01*
X129362276Y-112872034D01*
X129362652Y-112874408D01*
X129365450Y-112880132D01*
X129380000Y-112980000D01*
X129380000Y-113505000D01*
X129365450Y-113604868D01*
X129362652Y-113610589D01*
X129362277Y-113612962D01*
X129342926Y-113650939D01*
X129314847Y-113708377D01*
X129233377Y-113789847D01*
X129175955Y-113817919D01*
X129137965Y-113837276D01*
X129135591Y-113837651D01*
X129129868Y-113840450D01*
X129030000Y-113855000D01*
X128130000Y-113855000D01*
X128030132Y-113840450D01*
X128024410Y-113837652D01*
X128022037Y-113837277D01*
X127984035Y-113817914D01*
X127926623Y-113789847D01*
X127845153Y-113708377D01*
X127817104Y-113651003D01*
X127797723Y-113612965D01*
X127797346Y-113610588D01*
X127794550Y-113604868D01*
X127780000Y-113505000D01*
X127780000Y-112980000D01*
X127794550Y-112880132D01*
X127797345Y-112874413D01*
X127797722Y-112872037D01*
X127817108Y-112833987D01*
X127845153Y-112776623D01*
X127926623Y-112695153D01*
X127983971Y-112667116D01*
X128022034Y-112647723D01*
X128024411Y-112647346D01*
X128030132Y-112644550D01*
X128130000Y-112630000D01*
X129030000Y-112630000D01*
X129129868Y-112644550D01*
G37*
G36*
X114321655Y-110659410D02*
G01*
X114326519Y-110659410D01*
X114366971Y-110674133D01*
X114422603Y-110692209D01*
X114428596Y-110696563D01*
X114438702Y-110700242D01*
X114509895Y-110754870D01*
X115155130Y-111400105D01*
X115209758Y-111471298D01*
X115213436Y-111481403D01*
X115217790Y-111487396D01*
X115235865Y-111543025D01*
X115250590Y-111583481D01*
X115250590Y-111588343D01*
X115250964Y-111589495D01*
X115250964Y-111696850D01*
X115250590Y-111698001D01*
X115250590Y-111702865D01*
X115235862Y-111743328D01*
X115217790Y-111798949D01*
X115213436Y-111804940D01*
X115209758Y-111815048D01*
X115155130Y-111886241D01*
X114810415Y-112230956D01*
X114739222Y-112285584D01*
X114729114Y-112289262D01*
X114723123Y-112293616D01*
X114667502Y-112311688D01*
X114627039Y-112326416D01*
X114622175Y-112326416D01*
X114621024Y-112326790D01*
X114513670Y-112326790D01*
X114512519Y-112326416D01*
X114507655Y-112326416D01*
X114467194Y-112311689D01*
X114411570Y-112293616D01*
X114405577Y-112289262D01*
X114395472Y-112285584D01*
X114324279Y-112230956D01*
X113679044Y-111585721D01*
X113624416Y-111514528D01*
X113620738Y-111504423D01*
X113616383Y-111498429D01*
X113598307Y-111442797D01*
X113583584Y-111402345D01*
X113583584Y-111397481D01*
X113583210Y-111396330D01*
X113583210Y-111288975D01*
X113583584Y-111287823D01*
X113583584Y-111282961D01*
X113598304Y-111242516D01*
X113616383Y-111186876D01*
X113620738Y-111180881D01*
X113624416Y-111170778D01*
X113679044Y-111099585D01*
X114023759Y-110754870D01*
X114094952Y-110700242D01*
X114105054Y-110696564D01*
X114111050Y-110692209D01*
X114166686Y-110674132D01*
X114207135Y-110659410D01*
X114211999Y-110659410D01*
X114213150Y-110659036D01*
X114320504Y-110659036D01*
X114321655Y-110659410D01*
G37*
G36*
X142948001Y-110659410D02*
G01*
X142952865Y-110659410D01*
X142993317Y-110674133D01*
X143048949Y-110692209D01*
X143054942Y-110696564D01*
X143065048Y-110700242D01*
X143136241Y-110754870D01*
X143480956Y-111099585D01*
X143535584Y-111170778D01*
X143539262Y-111180883D01*
X143543616Y-111186876D01*
X143561691Y-111242505D01*
X143576416Y-111282961D01*
X143576416Y-111287823D01*
X143576790Y-111288975D01*
X143576790Y-111396330D01*
X143576416Y-111397481D01*
X143576416Y-111402345D01*
X143561688Y-111442808D01*
X143543616Y-111498429D01*
X143539263Y-111504420D01*
X143535584Y-111514528D01*
X143480956Y-111585721D01*
X142835721Y-112230956D01*
X142764528Y-112285584D01*
X142754420Y-112289262D01*
X142748429Y-112293616D01*
X142692808Y-112311688D01*
X142652345Y-112326416D01*
X142647481Y-112326416D01*
X142646330Y-112326790D01*
X142538976Y-112326790D01*
X142537825Y-112326416D01*
X142532961Y-112326416D01*
X142492500Y-112311689D01*
X142436876Y-112293616D01*
X142430883Y-112289262D01*
X142420778Y-112285584D01*
X142349585Y-112230956D01*
X142004870Y-111886241D01*
X141950242Y-111815048D01*
X141946564Y-111804943D01*
X141942209Y-111798949D01*
X141924133Y-111743317D01*
X141909410Y-111702865D01*
X141909410Y-111698001D01*
X141909036Y-111696850D01*
X141909036Y-111589495D01*
X141909410Y-111588343D01*
X141909410Y-111583481D01*
X141924130Y-111543036D01*
X141942209Y-111487396D01*
X141946564Y-111481401D01*
X141950242Y-111471298D01*
X142004870Y-111400105D01*
X142650105Y-110754870D01*
X142721298Y-110700242D01*
X142731400Y-110696564D01*
X142737396Y-110692209D01*
X142793032Y-110674132D01*
X142833481Y-110659410D01*
X142838345Y-110659410D01*
X142839496Y-110659036D01*
X142946850Y-110659036D01*
X142948001Y-110659410D01*
G37*
G36*
X129129868Y-110819550D02*
G01*
X129135586Y-110822345D01*
X129137962Y-110822722D01*
X129175987Y-110842096D01*
X129233377Y-110870153D01*
X129314847Y-110951623D01*
X129342907Y-111009020D01*
X129362276Y-111047034D01*
X129362652Y-111049408D01*
X129365450Y-111055132D01*
X129380000Y-111155000D01*
X129380000Y-111680000D01*
X129365450Y-111779868D01*
X129362652Y-111785589D01*
X129362277Y-111787962D01*
X129342926Y-111825939D01*
X129314847Y-111883377D01*
X129233377Y-111964847D01*
X129175955Y-111992919D01*
X129137965Y-112012276D01*
X129135591Y-112012651D01*
X129129868Y-112015450D01*
X129030000Y-112030000D01*
X128130000Y-112030000D01*
X128030132Y-112015450D01*
X128024410Y-112012652D01*
X128022037Y-112012277D01*
X127984035Y-111992914D01*
X127926623Y-111964847D01*
X127845153Y-111883377D01*
X127817104Y-111826003D01*
X127797723Y-111787965D01*
X127797346Y-111785588D01*
X127794550Y-111779868D01*
X127780000Y-111680000D01*
X127780000Y-111155000D01*
X127794550Y-111055132D01*
X127797345Y-111049413D01*
X127797722Y-111047037D01*
X127817108Y-111008987D01*
X127845153Y-110951623D01*
X127926623Y-110870153D01*
X127983971Y-110842116D01*
X128022034Y-110822723D01*
X128024411Y-110822346D01*
X128030132Y-110819550D01*
X128130000Y-110805000D01*
X129030000Y-110805000D01*
X129129868Y-110819550D01*
G37*
G36*
X115647481Y-109333584D02*
G01*
X115652345Y-109333584D01*
X115692797Y-109348307D01*
X115748429Y-109366383D01*
X115754422Y-109370737D01*
X115764528Y-109374416D01*
X115835721Y-109429044D01*
X116480956Y-110074279D01*
X116535584Y-110145472D01*
X116539262Y-110155577D01*
X116543616Y-110161570D01*
X116561691Y-110217199D01*
X116576416Y-110257655D01*
X116576416Y-110262517D01*
X116576790Y-110263669D01*
X116576790Y-110371024D01*
X116576416Y-110372175D01*
X116576416Y-110377039D01*
X116561688Y-110417502D01*
X116543616Y-110473123D01*
X116539262Y-110479114D01*
X116535584Y-110489222D01*
X116480956Y-110560415D01*
X116136241Y-110905130D01*
X116065048Y-110959758D01*
X116054940Y-110963436D01*
X116048949Y-110967790D01*
X115993328Y-110985862D01*
X115952865Y-111000590D01*
X115948001Y-111000590D01*
X115946850Y-111000964D01*
X115839496Y-111000964D01*
X115838345Y-111000590D01*
X115833481Y-111000590D01*
X115793020Y-110985863D01*
X115737396Y-110967790D01*
X115731403Y-110963436D01*
X115721298Y-110959758D01*
X115650105Y-110905130D01*
X115004870Y-110259895D01*
X114950242Y-110188702D01*
X114946564Y-110178597D01*
X114942209Y-110172603D01*
X114924133Y-110116971D01*
X114909410Y-110076519D01*
X114909410Y-110071655D01*
X114909036Y-110070504D01*
X114909036Y-109963149D01*
X114909410Y-109961997D01*
X114909410Y-109957135D01*
X114924130Y-109916690D01*
X114942209Y-109861050D01*
X114946564Y-109855055D01*
X114950242Y-109844952D01*
X115004870Y-109773759D01*
X115349585Y-109429044D01*
X115420778Y-109374416D01*
X115430880Y-109370738D01*
X115436876Y-109366383D01*
X115492512Y-109348306D01*
X115532961Y-109333584D01*
X115537825Y-109333584D01*
X115538976Y-109333210D01*
X115646330Y-109333210D01*
X115647481Y-109333584D01*
G37*
G36*
X141622175Y-109333584D02*
G01*
X141627039Y-109333584D01*
X141667491Y-109348307D01*
X141723123Y-109366383D01*
X141729116Y-109370738D01*
X141739222Y-109374416D01*
X141810415Y-109429044D01*
X142155130Y-109773759D01*
X142209758Y-109844952D01*
X142213436Y-109855057D01*
X142217790Y-109861050D01*
X142235865Y-109916679D01*
X142250590Y-109957135D01*
X142250590Y-109961997D01*
X142250964Y-109963149D01*
X142250964Y-110070504D01*
X142250590Y-110071655D01*
X142250590Y-110076519D01*
X142235862Y-110116982D01*
X142217790Y-110172603D01*
X142213437Y-110178594D01*
X142209758Y-110188702D01*
X142155130Y-110259895D01*
X141509895Y-110905130D01*
X141438702Y-110959758D01*
X141428594Y-110963436D01*
X141422603Y-110967790D01*
X141366982Y-110985862D01*
X141326519Y-111000590D01*
X141321655Y-111000590D01*
X141320504Y-111000964D01*
X141213150Y-111000964D01*
X141211999Y-111000590D01*
X141207135Y-111000590D01*
X141166674Y-110985863D01*
X141111050Y-110967790D01*
X141105057Y-110963436D01*
X141094952Y-110959758D01*
X141023759Y-110905130D01*
X140679044Y-110560415D01*
X140624416Y-110489222D01*
X140620738Y-110479117D01*
X140616383Y-110473123D01*
X140598307Y-110417491D01*
X140583584Y-110377039D01*
X140583584Y-110372175D01*
X140583210Y-110371024D01*
X140583210Y-110263669D01*
X140583584Y-110262517D01*
X140583584Y-110257655D01*
X140598304Y-110217210D01*
X140616383Y-110161570D01*
X140620738Y-110155575D01*
X140624416Y-110145472D01*
X140679044Y-110074279D01*
X141324279Y-109429044D01*
X141395472Y-109374416D01*
X141405574Y-109370738D01*
X141411570Y-109366383D01*
X141467206Y-109348306D01*
X141507655Y-109333584D01*
X141512519Y-109333584D01*
X141513670Y-109333210D01*
X141621024Y-109333210D01*
X141622175Y-109333584D01*
G37*
G36*
X117320226Y-107746942D02*
G01*
X117360796Y-107760124D01*
X117362741Y-107761537D01*
X117368764Y-107763605D01*
X117449670Y-107823934D01*
X118086066Y-108460330D01*
X118146395Y-108541236D01*
X118148462Y-108547259D01*
X118149874Y-108549202D01*
X118163044Y-108589735D01*
X118183805Y-108650210D01*
X118183805Y-108765426D01*
X118163032Y-108825936D01*
X118149874Y-108866431D01*
X118148464Y-108868371D01*
X118146395Y-108874399D01*
X118086066Y-108955305D01*
X117714835Y-109326536D01*
X117633929Y-109386865D01*
X117627903Y-109388933D01*
X117625962Y-109390344D01*
X117585455Y-109403505D01*
X117524956Y-109424275D01*
X117409740Y-109424275D01*
X117349280Y-109403519D01*
X117308733Y-109390345D01*
X117306789Y-109388932D01*
X117300766Y-109386865D01*
X117219860Y-109326536D01*
X116583464Y-108690140D01*
X116523135Y-108609234D01*
X116521067Y-108603210D01*
X116519655Y-108601267D01*
X116506480Y-108560719D01*
X116485725Y-108500260D01*
X116485725Y-108385044D01*
X116506480Y-108324584D01*
X116519655Y-108284038D01*
X116521067Y-108282094D01*
X116523135Y-108276071D01*
X116583464Y-108195165D01*
X116791793Y-107986836D01*
X116951914Y-107826714D01*
X116951917Y-107826711D01*
X116954695Y-107823934D01*
X117035601Y-107763605D01*
X117041622Y-107761537D01*
X117043567Y-107760125D01*
X117084118Y-107746949D01*
X117144574Y-107726195D01*
X117259790Y-107726195D01*
X117320226Y-107746942D01*
G37*
G36*
X140075903Y-107746956D02*
G01*
X140116431Y-107760125D01*
X140118373Y-107761536D01*
X140124399Y-107763605D01*
X140205305Y-107823934D01*
X140576536Y-108195165D01*
X140636865Y-108276071D01*
X140638932Y-108282094D01*
X140640344Y-108284037D01*
X140653511Y-108324562D01*
X140674275Y-108385044D01*
X140674275Y-108500260D01*
X140653516Y-108560729D01*
X140640345Y-108601266D01*
X140638933Y-108603208D01*
X140636865Y-108609234D01*
X140576536Y-108690140D01*
X139940140Y-109326536D01*
X139859234Y-109386865D01*
X139853208Y-109388933D01*
X139851267Y-109390344D01*
X139810752Y-109403508D01*
X139750260Y-109424275D01*
X139635044Y-109424275D01*
X139574544Y-109403505D01*
X139534038Y-109390344D01*
X139532096Y-109388933D01*
X139526071Y-109386865D01*
X139445165Y-109326536D01*
X139073934Y-108955305D01*
X139013605Y-108874399D01*
X139011537Y-108868375D01*
X139010125Y-108866432D01*
X138996952Y-108825892D01*
X138976195Y-108765426D01*
X138976195Y-108650210D01*
X138996936Y-108589790D01*
X139010124Y-108549203D01*
X139011538Y-108547256D01*
X139013605Y-108541236D01*
X139073934Y-108460330D01*
X139710330Y-107823934D01*
X139791236Y-107763605D01*
X139797257Y-107761537D01*
X139799202Y-107760125D01*
X139839761Y-107746946D01*
X139900210Y-107726195D01*
X140015426Y-107726195D01*
X140075903Y-107746956D01*
G37*
G36*
X128836790Y-106202939D02*
G01*
X129000952Y-106256279D01*
X129154748Y-106334642D01*
X129294393Y-106436099D01*
X129416447Y-106558153D01*
X129517904Y-106697798D01*
X129596267Y-106851594D01*
X129649607Y-107015756D01*
X129676609Y-107186241D01*
X129676609Y-107358851D01*
X129649607Y-107529336D01*
X129596267Y-107693498D01*
X129517904Y-107847294D01*
X129416447Y-107986939D01*
X129294393Y-108108993D01*
X129154748Y-108210450D01*
X129000952Y-108288813D01*
X128836790Y-108342153D01*
X128666305Y-108369155D01*
X128493695Y-108369155D01*
X128323210Y-108342153D01*
X128159048Y-108288813D01*
X128005252Y-108210450D01*
X127865607Y-108108993D01*
X127743553Y-107986939D01*
X127642096Y-107847294D01*
X127563733Y-107693498D01*
X127510393Y-107529336D01*
X127483391Y-107358851D01*
X127483391Y-107186241D01*
X127510393Y-107015756D01*
X127563733Y-106851594D01*
X127642096Y-106697798D01*
X127743553Y-106558153D01*
X127865607Y-106436099D01*
X128005252Y-106334642D01*
X128159048Y-106256279D01*
X128323210Y-106202939D01*
X128493695Y-106175937D01*
X128666305Y-106175937D01*
X128836790Y-106202939D01*
G37*
G36*
X118610696Y-106456472D02*
G01*
X118651266Y-106469654D01*
X118653211Y-106471067D01*
X118659234Y-106473135D01*
X118740140Y-106533464D01*
X119376536Y-107169860D01*
X119436865Y-107250766D01*
X119438932Y-107256789D01*
X119440344Y-107258732D01*
X119453514Y-107299265D01*
X119474275Y-107359740D01*
X119474275Y-107474956D01*
X119453502Y-107535466D01*
X119440344Y-107575961D01*
X119438934Y-107577901D01*
X119436865Y-107583929D01*
X119376536Y-107664835D01*
X119005305Y-108036066D01*
X118924399Y-108096395D01*
X118918373Y-108098463D01*
X118916432Y-108099874D01*
X118875925Y-108113035D01*
X118815426Y-108133805D01*
X118700210Y-108133805D01*
X118639750Y-108113049D01*
X118599203Y-108099875D01*
X118597259Y-108098462D01*
X118591236Y-108096395D01*
X118510330Y-108036066D01*
X117873934Y-107399670D01*
X117813605Y-107318764D01*
X117811537Y-107312740D01*
X117810125Y-107310797D01*
X117796950Y-107270249D01*
X117776195Y-107209790D01*
X117776195Y-107094574D01*
X117796950Y-107034114D01*
X117810125Y-106993568D01*
X117811537Y-106991624D01*
X117813605Y-106985601D01*
X117873934Y-106904695D01*
X118080831Y-106697798D01*
X118242384Y-106536244D01*
X118242387Y-106536241D01*
X118245165Y-106533464D01*
X118326071Y-106473135D01*
X118332092Y-106471067D01*
X118334037Y-106469655D01*
X118374588Y-106456479D01*
X118435044Y-106435725D01*
X118550260Y-106435725D01*
X118610696Y-106456472D01*
G37*
G36*
X138785433Y-106456486D02*
G01*
X138825961Y-106469655D01*
X138827903Y-106471066D01*
X138833929Y-106473135D01*
X138914835Y-106533464D01*
X139286066Y-106904695D01*
X139346395Y-106985601D01*
X139348462Y-106991624D01*
X139349874Y-106993567D01*
X139363041Y-107034092D01*
X139383805Y-107094574D01*
X139383805Y-107209790D01*
X139363046Y-107270259D01*
X139349875Y-107310796D01*
X139348463Y-107312738D01*
X139346395Y-107318764D01*
X139286066Y-107399670D01*
X138649670Y-108036066D01*
X138568764Y-108096395D01*
X138562738Y-108098463D01*
X138560797Y-108099874D01*
X138520282Y-108113038D01*
X138459790Y-108133805D01*
X138344574Y-108133805D01*
X138284074Y-108113035D01*
X138243568Y-108099874D01*
X138241626Y-108098463D01*
X138235601Y-108096395D01*
X138154695Y-108036066D01*
X137783464Y-107664835D01*
X137723135Y-107583929D01*
X137721067Y-107577905D01*
X137719655Y-107575962D01*
X137706482Y-107535422D01*
X137685725Y-107474956D01*
X137685725Y-107359740D01*
X137706466Y-107299320D01*
X137719654Y-107258733D01*
X137721068Y-107256786D01*
X137723135Y-107250766D01*
X137783464Y-107169860D01*
X138419860Y-106533464D01*
X138500766Y-106473135D01*
X138506787Y-106471067D01*
X138508732Y-106469655D01*
X138549291Y-106456476D01*
X138609740Y-106435725D01*
X138724956Y-106435725D01*
X138785433Y-106456486D01*
G37*
G36*
X131484047Y-101683305D02*
G01*
X131535408Y-101689264D01*
X131552954Y-101697011D01*
X131575671Y-101701530D01*
X131599991Y-101717780D01*
X131620793Y-101726965D01*
X131635000Y-101741172D01*
X131656777Y-101755723D01*
X131671327Y-101777499D01*
X131685534Y-101791706D01*
X131694718Y-101812506D01*
X131710970Y-101836829D01*
X131715489Y-101859548D01*
X131723235Y-101877091D01*
X131729192Y-101928440D01*
X131730000Y-101932500D01*
X131730000Y-102232500D01*
X131729192Y-102236559D01*
X131723235Y-102287908D01*
X131715489Y-102305450D01*
X131710970Y-102328171D01*
X131694716Y-102352495D01*
X131685534Y-102373293D01*
X131671329Y-102387497D01*
X131656777Y-102409277D01*
X131634997Y-102423829D01*
X131620793Y-102438034D01*
X131599995Y-102447216D01*
X131575671Y-102463470D01*
X131552950Y-102467989D01*
X131535408Y-102475735D01*
X131484061Y-102481692D01*
X131480000Y-102482500D01*
X129830000Y-102482500D01*
X129825941Y-102481692D01*
X129774591Y-102475735D01*
X129757048Y-102467989D01*
X129734329Y-102463470D01*
X129710006Y-102447218D01*
X129689206Y-102438034D01*
X129674999Y-102423827D01*
X129653223Y-102409277D01*
X129638672Y-102387500D01*
X129624465Y-102373293D01*
X129615280Y-102352491D01*
X129599030Y-102328171D01*
X129594511Y-102305454D01*
X129586764Y-102287908D01*
X129580805Y-102236549D01*
X129580000Y-102232500D01*
X129580000Y-101932500D01*
X129580804Y-101928453D01*
X129586764Y-101877091D01*
X129594511Y-101859543D01*
X129599030Y-101836829D01*
X129615278Y-101812510D01*
X129624465Y-101791706D01*
X129638674Y-101777496D01*
X129653223Y-101755723D01*
X129674996Y-101741174D01*
X129689206Y-101726965D01*
X129710010Y-101717778D01*
X129734329Y-101701530D01*
X129757043Y-101697011D01*
X129774591Y-101689264D01*
X129825952Y-101683305D01*
X129830000Y-101682500D01*
X131480000Y-101682500D01*
X131484047Y-101683305D01*
G37*
G36*
X136434047Y-101683305D02*
G01*
X136485408Y-101689264D01*
X136502954Y-101697011D01*
X136525671Y-101701530D01*
X136549991Y-101717780D01*
X136570793Y-101726965D01*
X136585000Y-101741172D01*
X136606777Y-101755723D01*
X136621327Y-101777499D01*
X136635534Y-101791706D01*
X136644718Y-101812506D01*
X136660970Y-101836829D01*
X136665489Y-101859548D01*
X136673235Y-101877091D01*
X136679192Y-101928440D01*
X136680000Y-101932500D01*
X136680000Y-102232500D01*
X136679192Y-102236559D01*
X136673235Y-102287908D01*
X136665489Y-102305450D01*
X136660970Y-102328171D01*
X136644716Y-102352495D01*
X136635534Y-102373293D01*
X136621329Y-102387497D01*
X136606777Y-102409277D01*
X136584997Y-102423829D01*
X136570793Y-102438034D01*
X136549995Y-102447216D01*
X136525671Y-102463470D01*
X136502950Y-102467989D01*
X136485408Y-102475735D01*
X136434061Y-102481692D01*
X136430000Y-102482500D01*
X134780000Y-102482500D01*
X134775941Y-102481692D01*
X134724591Y-102475735D01*
X134707048Y-102467989D01*
X134684329Y-102463470D01*
X134660006Y-102447218D01*
X134639206Y-102438034D01*
X134624999Y-102423827D01*
X134603223Y-102409277D01*
X134588672Y-102387500D01*
X134574465Y-102373293D01*
X134565280Y-102352491D01*
X134549030Y-102328171D01*
X134544511Y-102305454D01*
X134536764Y-102287908D01*
X134530805Y-102236549D01*
X134530000Y-102232500D01*
X134530000Y-101932500D01*
X134530804Y-101928453D01*
X134536764Y-101877091D01*
X134544511Y-101859543D01*
X134549030Y-101836829D01*
X134565278Y-101812510D01*
X134574465Y-101791706D01*
X134588674Y-101777496D01*
X134603223Y-101755723D01*
X134624996Y-101741174D01*
X134639206Y-101726965D01*
X134660010Y-101717778D01*
X134684329Y-101701530D01*
X134707043Y-101697011D01*
X134724591Y-101689264D01*
X134775952Y-101683305D01*
X134780000Y-101682500D01*
X136430000Y-101682500D01*
X136434047Y-101683305D01*
G37*
G36*
X131484047Y-100413305D02*
G01*
X131535408Y-100419264D01*
X131552954Y-100427011D01*
X131575671Y-100431530D01*
X131599991Y-100447780D01*
X131620793Y-100456965D01*
X131635000Y-100471172D01*
X131656777Y-100485723D01*
X131671327Y-100507499D01*
X131685534Y-100521706D01*
X131694718Y-100542506D01*
X131710970Y-100566829D01*
X131715489Y-100589548D01*
X131723235Y-100607091D01*
X131729192Y-100658440D01*
X131730000Y-100662500D01*
X131730000Y-100962500D01*
X131729192Y-100966559D01*
X131723235Y-101017908D01*
X131715489Y-101035450D01*
X131710970Y-101058171D01*
X131694716Y-101082495D01*
X131685534Y-101103293D01*
X131671329Y-101117497D01*
X131656777Y-101139277D01*
X131634997Y-101153829D01*
X131620793Y-101168034D01*
X131599995Y-101177216D01*
X131575671Y-101193470D01*
X131552950Y-101197989D01*
X131535408Y-101205735D01*
X131484061Y-101211692D01*
X131480000Y-101212500D01*
X129830000Y-101212500D01*
X129825941Y-101211692D01*
X129774591Y-101205735D01*
X129757048Y-101197989D01*
X129734329Y-101193470D01*
X129710006Y-101177218D01*
X129689206Y-101168034D01*
X129674999Y-101153827D01*
X129653223Y-101139277D01*
X129638672Y-101117500D01*
X129624465Y-101103293D01*
X129615280Y-101082491D01*
X129599030Y-101058171D01*
X129594511Y-101035454D01*
X129586764Y-101017908D01*
X129580805Y-100966549D01*
X129580000Y-100962500D01*
X129580000Y-100662500D01*
X129580804Y-100658453D01*
X129586764Y-100607091D01*
X129594511Y-100589543D01*
X129599030Y-100566829D01*
X129615278Y-100542510D01*
X129624465Y-100521706D01*
X129638674Y-100507496D01*
X129653223Y-100485723D01*
X129674996Y-100471174D01*
X129689206Y-100456965D01*
X129710010Y-100447778D01*
X129734329Y-100431530D01*
X129757043Y-100427011D01*
X129774591Y-100419264D01*
X129825952Y-100413305D01*
X129830000Y-100412500D01*
X131480000Y-100412500D01*
X131484047Y-100413305D01*
G37*
G36*
X136434047Y-100413305D02*
G01*
X136485408Y-100419264D01*
X136502954Y-100427011D01*
X136525671Y-100431530D01*
X136549991Y-100447780D01*
X136570793Y-100456965D01*
X136585000Y-100471172D01*
X136606777Y-100485723D01*
X136621327Y-100507499D01*
X136635534Y-100521706D01*
X136644718Y-100542506D01*
X136660970Y-100566829D01*
X136665489Y-100589548D01*
X136673235Y-100607091D01*
X136679192Y-100658440D01*
X136680000Y-100662500D01*
X136680000Y-100962500D01*
X136679192Y-100966559D01*
X136673235Y-101017908D01*
X136665489Y-101035450D01*
X136660970Y-101058171D01*
X136644716Y-101082495D01*
X136635534Y-101103293D01*
X136621329Y-101117497D01*
X136606777Y-101139277D01*
X136584997Y-101153829D01*
X136570793Y-101168034D01*
X136549995Y-101177216D01*
X136525671Y-101193470D01*
X136502950Y-101197989D01*
X136485408Y-101205735D01*
X136434061Y-101211692D01*
X136430000Y-101212500D01*
X134780000Y-101212500D01*
X134775941Y-101211692D01*
X134724591Y-101205735D01*
X134707048Y-101197989D01*
X134684329Y-101193470D01*
X134660006Y-101177218D01*
X134639206Y-101168034D01*
X134624999Y-101153827D01*
X134603223Y-101139277D01*
X134588672Y-101117500D01*
X134574465Y-101103293D01*
X134565280Y-101082491D01*
X134549030Y-101058171D01*
X134544511Y-101035454D01*
X134536764Y-101017908D01*
X134530805Y-100966549D01*
X134530000Y-100962500D01*
X134530000Y-100662500D01*
X134530804Y-100658453D01*
X134536764Y-100607091D01*
X134544511Y-100589543D01*
X134549030Y-100566829D01*
X134565278Y-100542510D01*
X134574465Y-100521706D01*
X134588674Y-100507496D01*
X134603223Y-100485723D01*
X134624996Y-100471174D01*
X134639206Y-100456965D01*
X134660010Y-100447778D01*
X134684329Y-100431530D01*
X134707043Y-100427011D01*
X134724591Y-100419264D01*
X134775952Y-100413305D01*
X134780000Y-100412500D01*
X136430000Y-100412500D01*
X136434047Y-100413305D01*
G37*
G36*
X131484047Y-99143305D02*
G01*
X131535408Y-99149264D01*
X131552954Y-99157011D01*
X131575671Y-99161530D01*
X131599991Y-99177780D01*
X131620793Y-99186965D01*
X131635000Y-99201172D01*
X131656777Y-99215723D01*
X131671327Y-99237499D01*
X131685534Y-99251706D01*
X131694718Y-99272506D01*
X131710970Y-99296829D01*
X131715489Y-99319548D01*
X131723235Y-99337091D01*
X131729192Y-99388440D01*
X131730000Y-99392500D01*
X131730000Y-99692500D01*
X131729192Y-99696559D01*
X131723235Y-99747908D01*
X131715489Y-99765450D01*
X131710970Y-99788171D01*
X131694716Y-99812495D01*
X131685534Y-99833293D01*
X131671329Y-99847497D01*
X131656777Y-99869277D01*
X131634997Y-99883829D01*
X131620793Y-99898034D01*
X131599995Y-99907216D01*
X131575671Y-99923470D01*
X131552950Y-99927989D01*
X131535408Y-99935735D01*
X131484061Y-99941692D01*
X131480000Y-99942500D01*
X129830000Y-99942500D01*
X129825941Y-99941692D01*
X129774591Y-99935735D01*
X129757048Y-99927989D01*
X129734329Y-99923470D01*
X129710006Y-99907218D01*
X129689206Y-99898034D01*
X129674999Y-99883827D01*
X129653223Y-99869277D01*
X129638672Y-99847500D01*
X129624465Y-99833293D01*
X129615280Y-99812491D01*
X129599030Y-99788171D01*
X129594511Y-99765454D01*
X129586764Y-99747908D01*
X129580805Y-99696549D01*
X129580000Y-99692500D01*
X129580000Y-99392500D01*
X129580804Y-99388453D01*
X129586764Y-99337091D01*
X129594511Y-99319543D01*
X129599030Y-99296829D01*
X129615278Y-99272510D01*
X129624465Y-99251706D01*
X129638674Y-99237496D01*
X129653223Y-99215723D01*
X129674996Y-99201174D01*
X129689206Y-99186965D01*
X129710010Y-99177778D01*
X129734329Y-99161530D01*
X129757043Y-99157011D01*
X129774591Y-99149264D01*
X129825952Y-99143305D01*
X129830000Y-99142500D01*
X131480000Y-99142500D01*
X131484047Y-99143305D01*
G37*
G36*
X136434047Y-99143305D02*
G01*
X136485408Y-99149264D01*
X136502954Y-99157011D01*
X136525671Y-99161530D01*
X136549991Y-99177780D01*
X136570793Y-99186965D01*
X136585000Y-99201172D01*
X136606777Y-99215723D01*
X136621327Y-99237499D01*
X136635534Y-99251706D01*
X136644718Y-99272506D01*
X136660970Y-99296829D01*
X136665489Y-99319548D01*
X136673235Y-99337091D01*
X136679192Y-99388440D01*
X136680000Y-99392500D01*
X136680000Y-99692500D01*
X136679192Y-99696559D01*
X136673235Y-99747908D01*
X136665489Y-99765450D01*
X136660970Y-99788171D01*
X136644716Y-99812495D01*
X136635534Y-99833293D01*
X136621329Y-99847497D01*
X136606777Y-99869277D01*
X136584997Y-99883829D01*
X136570793Y-99898034D01*
X136549995Y-99907216D01*
X136525671Y-99923470D01*
X136502950Y-99927989D01*
X136485408Y-99935735D01*
X136434061Y-99941692D01*
X136430000Y-99942500D01*
X134780000Y-99942500D01*
X134775941Y-99941692D01*
X134724591Y-99935735D01*
X134707048Y-99927989D01*
X134684329Y-99923470D01*
X134660006Y-99907218D01*
X134639206Y-99898034D01*
X134624999Y-99883827D01*
X134603223Y-99869277D01*
X134588672Y-99847500D01*
X134574465Y-99833293D01*
X134565280Y-99812491D01*
X134549030Y-99788171D01*
X134544511Y-99765454D01*
X134536764Y-99747908D01*
X134530805Y-99696549D01*
X134530000Y-99692500D01*
X134530000Y-99392500D01*
X134530804Y-99388453D01*
X134536764Y-99337091D01*
X134544511Y-99319543D01*
X134549030Y-99296829D01*
X134565278Y-99272510D01*
X134574465Y-99251706D01*
X134588674Y-99237496D01*
X134603223Y-99215723D01*
X134624996Y-99201174D01*
X134639206Y-99186965D01*
X134660010Y-99177778D01*
X134684329Y-99161530D01*
X134707043Y-99157011D01*
X134724591Y-99149264D01*
X134775952Y-99143305D01*
X134780000Y-99142500D01*
X136430000Y-99142500D01*
X136434047Y-99143305D01*
G37*
G36*
X121164047Y-98753305D02*
G01*
X121215408Y-98759264D01*
X121232954Y-98767011D01*
X121255671Y-98771530D01*
X121279991Y-98787780D01*
X121300793Y-98796965D01*
X121315000Y-98811172D01*
X121336777Y-98825723D01*
X121351327Y-98847499D01*
X121365534Y-98861706D01*
X121374718Y-98882506D01*
X121390970Y-98906829D01*
X121395489Y-98929548D01*
X121403235Y-98947091D01*
X121409192Y-98998440D01*
X121410000Y-99002500D01*
X121410000Y-99302500D01*
X121409192Y-99306559D01*
X121403235Y-99357908D01*
X121395489Y-99375450D01*
X121390970Y-99398171D01*
X121374716Y-99422495D01*
X121365534Y-99443293D01*
X121351329Y-99457497D01*
X121336777Y-99479277D01*
X121314997Y-99493829D01*
X121300793Y-99508034D01*
X121279995Y-99517216D01*
X121255671Y-99533470D01*
X121232950Y-99537989D01*
X121215408Y-99545735D01*
X121164061Y-99551692D01*
X121160000Y-99552500D01*
X119510000Y-99552500D01*
X119505941Y-99551692D01*
X119454591Y-99545735D01*
X119437048Y-99537989D01*
X119414329Y-99533470D01*
X119390006Y-99517218D01*
X119369206Y-99508034D01*
X119354999Y-99493827D01*
X119333223Y-99479277D01*
X119318672Y-99457500D01*
X119304465Y-99443293D01*
X119295280Y-99422491D01*
X119279030Y-99398171D01*
X119274511Y-99375454D01*
X119266764Y-99357908D01*
X119260805Y-99306549D01*
X119260000Y-99302500D01*
X119260000Y-99002500D01*
X119260804Y-98998453D01*
X119266764Y-98947091D01*
X119274511Y-98929543D01*
X119279030Y-98906829D01*
X119295278Y-98882510D01*
X119304465Y-98861706D01*
X119318674Y-98847496D01*
X119333223Y-98825723D01*
X119354996Y-98811174D01*
X119369206Y-98796965D01*
X119390010Y-98787778D01*
X119414329Y-98771530D01*
X119437043Y-98767011D01*
X119454591Y-98759264D01*
X119505952Y-98753305D01*
X119510000Y-98752500D01*
X121160000Y-98752500D01*
X121164047Y-98753305D01*
G37*
G36*
X126114047Y-98753305D02*
G01*
X126165408Y-98759264D01*
X126182954Y-98767011D01*
X126205671Y-98771530D01*
X126229991Y-98787780D01*
X126250793Y-98796965D01*
X126265000Y-98811172D01*
X126286777Y-98825723D01*
X126301327Y-98847499D01*
X126315534Y-98861706D01*
X126324718Y-98882506D01*
X126340970Y-98906829D01*
X126345489Y-98929548D01*
X126353235Y-98947091D01*
X126359192Y-98998440D01*
X126360000Y-99002500D01*
X126360000Y-99302500D01*
X126359192Y-99306559D01*
X126353235Y-99357908D01*
X126345489Y-99375450D01*
X126340970Y-99398171D01*
X126324716Y-99422495D01*
X126315534Y-99443293D01*
X126301329Y-99457497D01*
X126286777Y-99479277D01*
X126264997Y-99493829D01*
X126250793Y-99508034D01*
X126229995Y-99517216D01*
X126205671Y-99533470D01*
X126182950Y-99537989D01*
X126165408Y-99545735D01*
X126114061Y-99551692D01*
X126110000Y-99552500D01*
X124460000Y-99552500D01*
X124455941Y-99551692D01*
X124404591Y-99545735D01*
X124387048Y-99537989D01*
X124364329Y-99533470D01*
X124340006Y-99517218D01*
X124319206Y-99508034D01*
X124304999Y-99493827D01*
X124283223Y-99479277D01*
X124268672Y-99457500D01*
X124254465Y-99443293D01*
X124245280Y-99422491D01*
X124229030Y-99398171D01*
X124224511Y-99375454D01*
X124216764Y-99357908D01*
X124210805Y-99306549D01*
X124210000Y-99302500D01*
X124210000Y-99002500D01*
X124210804Y-98998453D01*
X124216764Y-98947091D01*
X124224511Y-98929543D01*
X124229030Y-98906829D01*
X124245278Y-98882510D01*
X124254465Y-98861706D01*
X124268674Y-98847496D01*
X124283223Y-98825723D01*
X124304996Y-98811174D01*
X124319206Y-98796965D01*
X124340010Y-98787778D01*
X124364329Y-98771530D01*
X124387043Y-98767011D01*
X124404591Y-98759264D01*
X124455952Y-98753305D01*
X124460000Y-98752500D01*
X126110000Y-98752500D01*
X126114047Y-98753305D01*
G37*
G36*
X131484047Y-97873305D02*
G01*
X131535408Y-97879264D01*
X131552954Y-97887011D01*
X131575671Y-97891530D01*
X131599991Y-97907780D01*
X131620793Y-97916965D01*
X131635000Y-97931172D01*
X131656777Y-97945723D01*
X131671327Y-97967499D01*
X131685534Y-97981706D01*
X131694718Y-98002506D01*
X131710970Y-98026829D01*
X131715489Y-98049548D01*
X131723235Y-98067091D01*
X131729192Y-98118440D01*
X131730000Y-98122500D01*
X131730000Y-98422500D01*
X131729192Y-98426559D01*
X131723235Y-98477908D01*
X131715489Y-98495450D01*
X131710970Y-98518171D01*
X131694716Y-98542495D01*
X131685534Y-98563293D01*
X131671329Y-98577497D01*
X131656777Y-98599277D01*
X131634997Y-98613829D01*
X131620793Y-98628034D01*
X131599995Y-98637216D01*
X131575671Y-98653470D01*
X131552950Y-98657989D01*
X131535408Y-98665735D01*
X131484061Y-98671692D01*
X131480000Y-98672500D01*
X129830000Y-98672500D01*
X129825941Y-98671692D01*
X129774591Y-98665735D01*
X129757048Y-98657989D01*
X129734329Y-98653470D01*
X129710006Y-98637218D01*
X129689206Y-98628034D01*
X129674999Y-98613827D01*
X129653223Y-98599277D01*
X129638672Y-98577500D01*
X129624465Y-98563293D01*
X129615280Y-98542491D01*
X129599030Y-98518171D01*
X129594511Y-98495454D01*
X129586764Y-98477908D01*
X129580805Y-98426549D01*
X129580000Y-98422500D01*
X129580000Y-98122500D01*
X129580804Y-98118453D01*
X129586764Y-98067091D01*
X129594511Y-98049543D01*
X129599030Y-98026829D01*
X129615278Y-98002510D01*
X129624465Y-97981706D01*
X129638674Y-97967496D01*
X129653223Y-97945723D01*
X129674996Y-97931174D01*
X129689206Y-97916965D01*
X129710010Y-97907778D01*
X129734329Y-97891530D01*
X129757043Y-97887011D01*
X129774591Y-97879264D01*
X129825952Y-97873305D01*
X129830000Y-97872500D01*
X131480000Y-97872500D01*
X131484047Y-97873305D01*
G37*
G36*
X136434047Y-97873305D02*
G01*
X136485408Y-97879264D01*
X136502954Y-97887011D01*
X136525671Y-97891530D01*
X136549991Y-97907780D01*
X136570793Y-97916965D01*
X136585000Y-97931172D01*
X136606777Y-97945723D01*
X136621327Y-97967499D01*
X136635534Y-97981706D01*
X136644718Y-98002506D01*
X136660970Y-98026829D01*
X136665489Y-98049548D01*
X136673235Y-98067091D01*
X136679192Y-98118440D01*
X136680000Y-98122500D01*
X136680000Y-98422500D01*
X136679192Y-98426559D01*
X136673235Y-98477908D01*
X136665489Y-98495450D01*
X136660970Y-98518171D01*
X136644716Y-98542495D01*
X136635534Y-98563293D01*
X136621329Y-98577497D01*
X136606777Y-98599277D01*
X136584997Y-98613829D01*
X136570793Y-98628034D01*
X136549995Y-98637216D01*
X136525671Y-98653470D01*
X136502950Y-98657989D01*
X136485408Y-98665735D01*
X136434061Y-98671692D01*
X136430000Y-98672500D01*
X134780000Y-98672500D01*
X134775941Y-98671692D01*
X134724591Y-98665735D01*
X134707048Y-98657989D01*
X134684329Y-98653470D01*
X134660006Y-98637218D01*
X134639206Y-98628034D01*
X134624999Y-98613827D01*
X134603223Y-98599277D01*
X134588672Y-98577500D01*
X134574465Y-98563293D01*
X134565280Y-98542491D01*
X134549030Y-98518171D01*
X134544511Y-98495454D01*
X134536764Y-98477908D01*
X134530805Y-98426549D01*
X134530000Y-98422500D01*
X134530000Y-98122500D01*
X134530804Y-98118453D01*
X134536764Y-98067091D01*
X134544511Y-98049543D01*
X134549030Y-98026829D01*
X134565278Y-98002510D01*
X134574465Y-97981706D01*
X134588674Y-97967496D01*
X134603223Y-97945723D01*
X134624996Y-97931174D01*
X134639206Y-97916965D01*
X134660010Y-97907778D01*
X134684329Y-97891530D01*
X134707043Y-97887011D01*
X134724591Y-97879264D01*
X134775952Y-97873305D01*
X134780000Y-97872500D01*
X136430000Y-97872500D01*
X136434047Y-97873305D01*
G37*
G36*
X121164047Y-97483305D02*
G01*
X121215408Y-97489264D01*
X121232954Y-97497011D01*
X121255671Y-97501530D01*
X121279991Y-97517780D01*
X121300793Y-97526965D01*
X121315000Y-97541172D01*
X121336777Y-97555723D01*
X121351327Y-97577499D01*
X121365534Y-97591706D01*
X121374718Y-97612506D01*
X121390970Y-97636829D01*
X121395489Y-97659548D01*
X121403235Y-97677091D01*
X121409192Y-97728440D01*
X121410000Y-97732500D01*
X121410000Y-98032500D01*
X121409192Y-98036559D01*
X121403235Y-98087908D01*
X121395489Y-98105450D01*
X121390970Y-98128171D01*
X121374716Y-98152495D01*
X121365534Y-98173293D01*
X121351329Y-98187497D01*
X121336777Y-98209277D01*
X121314997Y-98223829D01*
X121300793Y-98238034D01*
X121279995Y-98247216D01*
X121255671Y-98263470D01*
X121232950Y-98267989D01*
X121215408Y-98275735D01*
X121164061Y-98281692D01*
X121160000Y-98282500D01*
X119510000Y-98282500D01*
X119505941Y-98281692D01*
X119454591Y-98275735D01*
X119437048Y-98267989D01*
X119414329Y-98263470D01*
X119390006Y-98247218D01*
X119369206Y-98238034D01*
X119354999Y-98223827D01*
X119333223Y-98209277D01*
X119318672Y-98187500D01*
X119304465Y-98173293D01*
X119295280Y-98152491D01*
X119279030Y-98128171D01*
X119274511Y-98105454D01*
X119266764Y-98087908D01*
X119260805Y-98036549D01*
X119260000Y-98032500D01*
X119260000Y-97732500D01*
X119260804Y-97728453D01*
X119266764Y-97677091D01*
X119274511Y-97659543D01*
X119279030Y-97636829D01*
X119295278Y-97612510D01*
X119304465Y-97591706D01*
X119318674Y-97577496D01*
X119333223Y-97555723D01*
X119354996Y-97541174D01*
X119369206Y-97526965D01*
X119390010Y-97517778D01*
X119414329Y-97501530D01*
X119437043Y-97497011D01*
X119454591Y-97489264D01*
X119505952Y-97483305D01*
X119510000Y-97482500D01*
X121160000Y-97482500D01*
X121164047Y-97483305D01*
G37*
G36*
X126114047Y-97483305D02*
G01*
X126165408Y-97489264D01*
X126182954Y-97497011D01*
X126205671Y-97501530D01*
X126229991Y-97517780D01*
X126250793Y-97526965D01*
X126265000Y-97541172D01*
X126286777Y-97555723D01*
X126301327Y-97577499D01*
X126315534Y-97591706D01*
X126324718Y-97612506D01*
X126340970Y-97636829D01*
X126345489Y-97659548D01*
X126353235Y-97677091D01*
X126359192Y-97728440D01*
X126360000Y-97732500D01*
X126360000Y-98032500D01*
X126359192Y-98036559D01*
X126353235Y-98087908D01*
X126345489Y-98105450D01*
X126340970Y-98128171D01*
X126324716Y-98152495D01*
X126315534Y-98173293D01*
X126301329Y-98187497D01*
X126286777Y-98209277D01*
X126264997Y-98223829D01*
X126250793Y-98238034D01*
X126229995Y-98247216D01*
X126205671Y-98263470D01*
X126182950Y-98267989D01*
X126165408Y-98275735D01*
X126114061Y-98281692D01*
X126110000Y-98282500D01*
X124460000Y-98282500D01*
X124455941Y-98281692D01*
X124404591Y-98275735D01*
X124387048Y-98267989D01*
X124364329Y-98263470D01*
X124340006Y-98247218D01*
X124319206Y-98238034D01*
X124304999Y-98223827D01*
X124283223Y-98209277D01*
X124268672Y-98187500D01*
X124254465Y-98173293D01*
X124245280Y-98152491D01*
X124229030Y-98128171D01*
X124224511Y-98105454D01*
X124216764Y-98087908D01*
X124210805Y-98036549D01*
X124210000Y-98032500D01*
X124210000Y-97732500D01*
X124210804Y-97728453D01*
X124216764Y-97677091D01*
X124224511Y-97659543D01*
X124229030Y-97636829D01*
X124245278Y-97612510D01*
X124254465Y-97591706D01*
X124268674Y-97577496D01*
X124283223Y-97555723D01*
X124304996Y-97541174D01*
X124319206Y-97526965D01*
X124340010Y-97517778D01*
X124364329Y-97501530D01*
X124387043Y-97497011D01*
X124404591Y-97489264D01*
X124455952Y-97483305D01*
X124460000Y-97482500D01*
X126110000Y-97482500D01*
X126114047Y-97483305D01*
G37*
G36*
X108975218Y-96541713D02*
G01*
X108984963Y-96546257D01*
X108992280Y-96547416D01*
X109044414Y-96573979D01*
X109083416Y-96592166D01*
X109086852Y-96595602D01*
X109087931Y-96596152D01*
X109163846Y-96672067D01*
X109164395Y-96673145D01*
X109167833Y-96676583D01*
X109186022Y-96715590D01*
X109212581Y-96767715D01*
X109213739Y-96775031D01*
X109218286Y-96784781D01*
X109229999Y-96873750D01*
X109229999Y-97786250D01*
X109218286Y-97875219D01*
X109213740Y-97884967D01*
X109212582Y-97892281D01*
X109186030Y-97944392D01*
X109167833Y-97983417D01*
X109164394Y-97986855D01*
X109163846Y-97987932D01*
X109087931Y-98063847D01*
X109086854Y-98064395D01*
X109083416Y-98067834D01*
X109044396Y-98086028D01*
X108992283Y-98112582D01*
X108984968Y-98113740D01*
X108975218Y-98118287D01*
X108886249Y-98130000D01*
X108398749Y-98130000D01*
X108309780Y-98118287D01*
X108300032Y-98113741D01*
X108292717Y-98112583D01*
X108240595Y-98086025D01*
X108201582Y-98067834D01*
X108198144Y-98064396D01*
X108197066Y-98063847D01*
X108121151Y-97987932D01*
X108120601Y-97986853D01*
X108117165Y-97983417D01*
X108098980Y-97944420D01*
X108072416Y-97892284D01*
X108071256Y-97884965D01*
X108066712Y-97875219D01*
X108054999Y-97786250D01*
X108054999Y-96873750D01*
X108066712Y-96784781D01*
X108071255Y-96775036D01*
X108072415Y-96767718D01*
X108098983Y-96715573D01*
X108117165Y-96676583D01*
X108120600Y-96673147D01*
X108121151Y-96672067D01*
X108197066Y-96596152D01*
X108198146Y-96595601D01*
X108201582Y-96592166D01*
X108240566Y-96573987D01*
X108292714Y-96547417D01*
X108300033Y-96546257D01*
X108309780Y-96541713D01*
X108398749Y-96530000D01*
X108886249Y-96530000D01*
X108975218Y-96541713D01*
G37*
G36*
X110850220Y-96541713D02*
G01*
X110859965Y-96546257D01*
X110867282Y-96547416D01*
X110919416Y-96573979D01*
X110958418Y-96592166D01*
X110961854Y-96595602D01*
X110962933Y-96596152D01*
X111038848Y-96672067D01*
X111039397Y-96673145D01*
X111042835Y-96676583D01*
X111061024Y-96715590D01*
X111087583Y-96767715D01*
X111088741Y-96775031D01*
X111093288Y-96784781D01*
X111105001Y-96873750D01*
X111105001Y-97786250D01*
X111093288Y-97875219D01*
X111088742Y-97884967D01*
X111087584Y-97892281D01*
X111061032Y-97944392D01*
X111042835Y-97983417D01*
X111039396Y-97986855D01*
X111038848Y-97987932D01*
X110962933Y-98063847D01*
X110961856Y-98064395D01*
X110958418Y-98067834D01*
X110919398Y-98086028D01*
X110867285Y-98112582D01*
X110859970Y-98113740D01*
X110850220Y-98118287D01*
X110761251Y-98130000D01*
X110273751Y-98130000D01*
X110184782Y-98118287D01*
X110175034Y-98113741D01*
X110167719Y-98112583D01*
X110115597Y-98086025D01*
X110076584Y-98067834D01*
X110073146Y-98064396D01*
X110072068Y-98063847D01*
X109996153Y-97987932D01*
X109995603Y-97986853D01*
X109992167Y-97983417D01*
X109973982Y-97944420D01*
X109947418Y-97892284D01*
X109946258Y-97884965D01*
X109941714Y-97875219D01*
X109930001Y-97786250D01*
X109930001Y-96873750D01*
X109941714Y-96784781D01*
X109946257Y-96775036D01*
X109947417Y-96767718D01*
X109973985Y-96715573D01*
X109992167Y-96676583D01*
X109995602Y-96673147D01*
X109996153Y-96672067D01*
X110072068Y-96596152D01*
X110073148Y-96595601D01*
X110076584Y-96592166D01*
X110115568Y-96573987D01*
X110167716Y-96547417D01*
X110175035Y-96546257D01*
X110184782Y-96541713D01*
X110273751Y-96530000D01*
X110761251Y-96530000D01*
X110850220Y-96541713D01*
G37*
G36*
X113029868Y-96544550D02*
G01*
X113035586Y-96547345D01*
X113037962Y-96547722D01*
X113075987Y-96567096D01*
X113133377Y-96595153D01*
X113214847Y-96676623D01*
X113242907Y-96734020D01*
X113262276Y-96772034D01*
X113262652Y-96774408D01*
X113265450Y-96780132D01*
X113280000Y-96880000D01*
X113280000Y-97780000D01*
X113265450Y-97879868D01*
X113262652Y-97885589D01*
X113262277Y-97887962D01*
X113242926Y-97925939D01*
X113214847Y-97983377D01*
X113133377Y-98064847D01*
X113075955Y-98092919D01*
X113037965Y-98112276D01*
X113035591Y-98112651D01*
X113029868Y-98115450D01*
X112930000Y-98130000D01*
X112405000Y-98130000D01*
X112305132Y-98115450D01*
X112299410Y-98112652D01*
X112297037Y-98112277D01*
X112259035Y-98092914D01*
X112201623Y-98064847D01*
X112120153Y-97983377D01*
X112092104Y-97926003D01*
X112072723Y-97887965D01*
X112072346Y-97885588D01*
X112069550Y-97879868D01*
X112055000Y-97780000D01*
X112055000Y-96880000D01*
X112069550Y-96780132D01*
X112072345Y-96774413D01*
X112072722Y-96772037D01*
X112092108Y-96733987D01*
X112120153Y-96676623D01*
X112201623Y-96595153D01*
X112258971Y-96567116D01*
X112297034Y-96547723D01*
X112299411Y-96547346D01*
X112305132Y-96544550D01*
X112405000Y-96530000D01*
X112930000Y-96530000D01*
X113029868Y-96544550D01*
G37*
G36*
X114854868Y-96544550D02*
G01*
X114860586Y-96547345D01*
X114862962Y-96547722D01*
X114900987Y-96567096D01*
X114958377Y-96595153D01*
X115039847Y-96676623D01*
X115067907Y-96734020D01*
X115087276Y-96772034D01*
X115087652Y-96774408D01*
X115090450Y-96780132D01*
X115105000Y-96880000D01*
X115105000Y-97780000D01*
X115090450Y-97879868D01*
X115087652Y-97885589D01*
X115087277Y-97887962D01*
X115067926Y-97925939D01*
X115039847Y-97983377D01*
X114958377Y-98064847D01*
X114900955Y-98092919D01*
X114862965Y-98112276D01*
X114860591Y-98112651D01*
X114854868Y-98115450D01*
X114755000Y-98130000D01*
X114230000Y-98130000D01*
X114130132Y-98115450D01*
X114124410Y-98112652D01*
X114122037Y-98112277D01*
X114084035Y-98092914D01*
X114026623Y-98064847D01*
X113945153Y-97983377D01*
X113917104Y-97926003D01*
X113897723Y-97887965D01*
X113897346Y-97885588D01*
X113894550Y-97879868D01*
X113880000Y-97780000D01*
X113880000Y-96880000D01*
X113894550Y-96780132D01*
X113897345Y-96774413D01*
X113897722Y-96772037D01*
X113917108Y-96733987D01*
X113945153Y-96676623D01*
X114026623Y-96595153D01*
X114083971Y-96567116D01*
X114122034Y-96547723D01*
X114124411Y-96547346D01*
X114130132Y-96544550D01*
X114230000Y-96530000D01*
X114755000Y-96530000D01*
X114854868Y-96544550D01*
G37*
G36*
X143029868Y-96544550D02*
G01*
X143035586Y-96547345D01*
X143037962Y-96547722D01*
X143075987Y-96567096D01*
X143133377Y-96595153D01*
X143214847Y-96676623D01*
X143242907Y-96734020D01*
X143262276Y-96772034D01*
X143262652Y-96774408D01*
X143265450Y-96780132D01*
X143280000Y-96880000D01*
X143280000Y-97780000D01*
X143265450Y-97879868D01*
X143262652Y-97885589D01*
X143262277Y-97887962D01*
X143242926Y-97925939D01*
X143214847Y-97983377D01*
X143133377Y-98064847D01*
X143075955Y-98092919D01*
X143037965Y-98112276D01*
X143035591Y-98112651D01*
X143029868Y-98115450D01*
X142930000Y-98130000D01*
X142405000Y-98130000D01*
X142305132Y-98115450D01*
X142299410Y-98112652D01*
X142297037Y-98112277D01*
X142259035Y-98092914D01*
X142201623Y-98064847D01*
X142120153Y-97983377D01*
X142092104Y-97926003D01*
X142072723Y-97887965D01*
X142072346Y-97885588D01*
X142069550Y-97879868D01*
X142055000Y-97780000D01*
X142055000Y-96880000D01*
X142069550Y-96780132D01*
X142072345Y-96774413D01*
X142072722Y-96772037D01*
X142092108Y-96733987D01*
X142120153Y-96676623D01*
X142201623Y-96595153D01*
X142258971Y-96567116D01*
X142297034Y-96547723D01*
X142299411Y-96547346D01*
X142305132Y-96544550D01*
X142405000Y-96530000D01*
X142930000Y-96530000D01*
X143029868Y-96544550D01*
G37*
G36*
X144854868Y-96544550D02*
G01*
X144860586Y-96547345D01*
X144862962Y-96547722D01*
X144900987Y-96567096D01*
X144958377Y-96595153D01*
X145039847Y-96676623D01*
X145067907Y-96734020D01*
X145087276Y-96772034D01*
X145087652Y-96774408D01*
X145090450Y-96780132D01*
X145105000Y-96880000D01*
X145105000Y-97780000D01*
X145090450Y-97879868D01*
X145087652Y-97885589D01*
X145087277Y-97887962D01*
X145067926Y-97925939D01*
X145039847Y-97983377D01*
X144958377Y-98064847D01*
X144900955Y-98092919D01*
X144862965Y-98112276D01*
X144860591Y-98112651D01*
X144854868Y-98115450D01*
X144755000Y-98130000D01*
X144230000Y-98130000D01*
X144130132Y-98115450D01*
X144124410Y-98112652D01*
X144122037Y-98112277D01*
X144084035Y-98092914D01*
X144026623Y-98064847D01*
X143945153Y-97983377D01*
X143917104Y-97926003D01*
X143897723Y-97887965D01*
X143897346Y-97885588D01*
X143894550Y-97879868D01*
X143880000Y-97780000D01*
X143880000Y-96880000D01*
X143894550Y-96780132D01*
X143897345Y-96774413D01*
X143897722Y-96772037D01*
X143917108Y-96733987D01*
X143945153Y-96676623D01*
X144026623Y-96595153D01*
X144083971Y-96567116D01*
X144122034Y-96547723D01*
X144124411Y-96547346D01*
X144130132Y-96544550D01*
X144230000Y-96530000D01*
X144755000Y-96530000D01*
X144854868Y-96544550D01*
G37*
G36*
X146975219Y-96541713D02*
G01*
X146984964Y-96546257D01*
X146992281Y-96547416D01*
X147044415Y-96573979D01*
X147083417Y-96592166D01*
X147086853Y-96595602D01*
X147087932Y-96596152D01*
X147163847Y-96672067D01*
X147164396Y-96673145D01*
X147167834Y-96676583D01*
X147186023Y-96715590D01*
X147212582Y-96767715D01*
X147213740Y-96775031D01*
X147218287Y-96784781D01*
X147230000Y-96873750D01*
X147230000Y-97786250D01*
X147218287Y-97875219D01*
X147213741Y-97884967D01*
X147212583Y-97892281D01*
X147186031Y-97944392D01*
X147167834Y-97983417D01*
X147164395Y-97986855D01*
X147163847Y-97987932D01*
X147087932Y-98063847D01*
X147086855Y-98064395D01*
X147083417Y-98067834D01*
X147044397Y-98086028D01*
X146992284Y-98112582D01*
X146984969Y-98113740D01*
X146975219Y-98118287D01*
X146886250Y-98130000D01*
X146398750Y-98130000D01*
X146309781Y-98118287D01*
X146300033Y-98113741D01*
X146292718Y-98112583D01*
X146240596Y-98086025D01*
X146201583Y-98067834D01*
X146198145Y-98064396D01*
X146197067Y-98063847D01*
X146121152Y-97987932D01*
X146120602Y-97986853D01*
X146117166Y-97983417D01*
X146098981Y-97944420D01*
X146072417Y-97892284D01*
X146071257Y-97884965D01*
X146066713Y-97875219D01*
X146055000Y-97786250D01*
X146055000Y-96873750D01*
X146066713Y-96784781D01*
X146071256Y-96775036D01*
X146072416Y-96767718D01*
X146098984Y-96715573D01*
X146117166Y-96676583D01*
X146120601Y-96673147D01*
X146121152Y-96672067D01*
X146197067Y-96596152D01*
X146198147Y-96595601D01*
X146201583Y-96592166D01*
X146240567Y-96573987D01*
X146292715Y-96547417D01*
X146300034Y-96546257D01*
X146309781Y-96541713D01*
X146398750Y-96530000D01*
X146886250Y-96530000D01*
X146975219Y-96541713D01*
G37*
G36*
X148850219Y-96541713D02*
G01*
X148859964Y-96546257D01*
X148867281Y-96547416D01*
X148919415Y-96573979D01*
X148958417Y-96592166D01*
X148961853Y-96595602D01*
X148962932Y-96596152D01*
X149038847Y-96672067D01*
X149039396Y-96673145D01*
X149042834Y-96676583D01*
X149061023Y-96715590D01*
X149087582Y-96767715D01*
X149088740Y-96775031D01*
X149093287Y-96784781D01*
X149105000Y-96873750D01*
X149105000Y-97786250D01*
X149093287Y-97875219D01*
X149088741Y-97884967D01*
X149087583Y-97892281D01*
X149061031Y-97944392D01*
X149042834Y-97983417D01*
X149039395Y-97986855D01*
X149038847Y-97987932D01*
X148962932Y-98063847D01*
X148961855Y-98064395D01*
X148958417Y-98067834D01*
X148919397Y-98086028D01*
X148867284Y-98112582D01*
X148859969Y-98113740D01*
X148850219Y-98118287D01*
X148761250Y-98130000D01*
X148273750Y-98130000D01*
X148184781Y-98118287D01*
X148175033Y-98113741D01*
X148167718Y-98112583D01*
X148115596Y-98086025D01*
X148076583Y-98067834D01*
X148073145Y-98064396D01*
X148072067Y-98063847D01*
X147996152Y-97987932D01*
X147995602Y-97986853D01*
X147992166Y-97983417D01*
X147973981Y-97944420D01*
X147947417Y-97892284D01*
X147946257Y-97884965D01*
X147941713Y-97875219D01*
X147930000Y-97786250D01*
X147930000Y-96873750D01*
X147941713Y-96784781D01*
X147946256Y-96775036D01*
X147947416Y-96767718D01*
X147973984Y-96715573D01*
X147992166Y-96676583D01*
X147995601Y-96673147D01*
X147996152Y-96672067D01*
X148072067Y-96596152D01*
X148073147Y-96595601D01*
X148076583Y-96592166D01*
X148115567Y-96573987D01*
X148167715Y-96547417D01*
X148175034Y-96546257D01*
X148184781Y-96541713D01*
X148273750Y-96530000D01*
X148761250Y-96530000D01*
X148850219Y-96541713D01*
G37*
G36*
X131484047Y-96603305D02*
G01*
X131535408Y-96609264D01*
X131552954Y-96617011D01*
X131575671Y-96621530D01*
X131599991Y-96637780D01*
X131620793Y-96646965D01*
X131635000Y-96661172D01*
X131656777Y-96675723D01*
X131671327Y-96697499D01*
X131685534Y-96711706D01*
X131694718Y-96732506D01*
X131710970Y-96756829D01*
X131715489Y-96779548D01*
X131723235Y-96797091D01*
X131729192Y-96848440D01*
X131730000Y-96852500D01*
X131730000Y-97152500D01*
X131729192Y-97156559D01*
X131723235Y-97207908D01*
X131715489Y-97225450D01*
X131710970Y-97248171D01*
X131694716Y-97272495D01*
X131685534Y-97293293D01*
X131671329Y-97307497D01*
X131656777Y-97329277D01*
X131634997Y-97343829D01*
X131620793Y-97358034D01*
X131599995Y-97367216D01*
X131575671Y-97383470D01*
X131552950Y-97387989D01*
X131535408Y-97395735D01*
X131484061Y-97401692D01*
X131480000Y-97402500D01*
X129830000Y-97402500D01*
X129825941Y-97401692D01*
X129774591Y-97395735D01*
X129757048Y-97387989D01*
X129734329Y-97383470D01*
X129710006Y-97367218D01*
X129689206Y-97358034D01*
X129674999Y-97343827D01*
X129653223Y-97329277D01*
X129638672Y-97307500D01*
X129624465Y-97293293D01*
X129615280Y-97272491D01*
X129599030Y-97248171D01*
X129594511Y-97225454D01*
X129586764Y-97207908D01*
X129580805Y-97156549D01*
X129580000Y-97152500D01*
X129580000Y-96852500D01*
X129580804Y-96848453D01*
X129586764Y-96797091D01*
X129594511Y-96779543D01*
X129599030Y-96756829D01*
X129615278Y-96732510D01*
X129624465Y-96711706D01*
X129638674Y-96697496D01*
X129653223Y-96675723D01*
X129674996Y-96661174D01*
X129689206Y-96646965D01*
X129710010Y-96637778D01*
X129734329Y-96621530D01*
X129757043Y-96617011D01*
X129774591Y-96609264D01*
X129825952Y-96603305D01*
X129830000Y-96602500D01*
X131480000Y-96602500D01*
X131484047Y-96603305D01*
G37*
G36*
X136434047Y-96603305D02*
G01*
X136485408Y-96609264D01*
X136502954Y-96617011D01*
X136525671Y-96621530D01*
X136549991Y-96637780D01*
X136570793Y-96646965D01*
X136585000Y-96661172D01*
X136606777Y-96675723D01*
X136621327Y-96697499D01*
X136635534Y-96711706D01*
X136644718Y-96732506D01*
X136660970Y-96756829D01*
X136665489Y-96779548D01*
X136673235Y-96797091D01*
X136679192Y-96848440D01*
X136680000Y-96852500D01*
X136680000Y-97152500D01*
X136679192Y-97156559D01*
X136673235Y-97207908D01*
X136665489Y-97225450D01*
X136660970Y-97248171D01*
X136644716Y-97272495D01*
X136635534Y-97293293D01*
X136621329Y-97307497D01*
X136606777Y-97329277D01*
X136584997Y-97343829D01*
X136570793Y-97358034D01*
X136549995Y-97367216D01*
X136525671Y-97383470D01*
X136502950Y-97387989D01*
X136485408Y-97395735D01*
X136434061Y-97401692D01*
X136430000Y-97402500D01*
X134780000Y-97402500D01*
X134775941Y-97401692D01*
X134724591Y-97395735D01*
X134707048Y-97387989D01*
X134684329Y-97383470D01*
X134660006Y-97367218D01*
X134639206Y-97358034D01*
X134624999Y-97343827D01*
X134603223Y-97329277D01*
X134588672Y-97307500D01*
X134574465Y-97293293D01*
X134565280Y-97272491D01*
X134549030Y-97248171D01*
X134544511Y-97225454D01*
X134536764Y-97207908D01*
X134530805Y-97156549D01*
X134530000Y-97152500D01*
X134530000Y-96852500D01*
X134530804Y-96848453D01*
X134536764Y-96797091D01*
X134544511Y-96779543D01*
X134549030Y-96756829D01*
X134565278Y-96732510D01*
X134574465Y-96711706D01*
X134588674Y-96697496D01*
X134603223Y-96675723D01*
X134624996Y-96661174D01*
X134639206Y-96646965D01*
X134660010Y-96637778D01*
X134684329Y-96621530D01*
X134707043Y-96617011D01*
X134724591Y-96609264D01*
X134775952Y-96603305D01*
X134780000Y-96602500D01*
X136430000Y-96602500D01*
X136434047Y-96603305D01*
G37*
G36*
X121164047Y-96213305D02*
G01*
X121215408Y-96219264D01*
X121232954Y-96227011D01*
X121255671Y-96231530D01*
X121279991Y-96247780D01*
X121300793Y-96256965D01*
X121315000Y-96271172D01*
X121336777Y-96285723D01*
X121351327Y-96307499D01*
X121365534Y-96321706D01*
X121374718Y-96342506D01*
X121390970Y-96366829D01*
X121395489Y-96389548D01*
X121403235Y-96407091D01*
X121409192Y-96458440D01*
X121410000Y-96462500D01*
X121410000Y-96762500D01*
X121409192Y-96766559D01*
X121403235Y-96817908D01*
X121395489Y-96835450D01*
X121390970Y-96858171D01*
X121374716Y-96882495D01*
X121365534Y-96903293D01*
X121351329Y-96917497D01*
X121336777Y-96939277D01*
X121314997Y-96953829D01*
X121300793Y-96968034D01*
X121279995Y-96977216D01*
X121255671Y-96993470D01*
X121232950Y-96997989D01*
X121215408Y-97005735D01*
X121164061Y-97011692D01*
X121160000Y-97012500D01*
X119510000Y-97012500D01*
X119505941Y-97011692D01*
X119454591Y-97005735D01*
X119437048Y-96997989D01*
X119414329Y-96993470D01*
X119390006Y-96977218D01*
X119369206Y-96968034D01*
X119354999Y-96953827D01*
X119333223Y-96939277D01*
X119318672Y-96917500D01*
X119304465Y-96903293D01*
X119295280Y-96882491D01*
X119279030Y-96858171D01*
X119274511Y-96835454D01*
X119266764Y-96817908D01*
X119260805Y-96766549D01*
X119260000Y-96762500D01*
X119260000Y-96462500D01*
X119260804Y-96458453D01*
X119266764Y-96407091D01*
X119274511Y-96389543D01*
X119279030Y-96366829D01*
X119295278Y-96342510D01*
X119304465Y-96321706D01*
X119318674Y-96307496D01*
X119333223Y-96285723D01*
X119354996Y-96271174D01*
X119369206Y-96256965D01*
X119390010Y-96247778D01*
X119414329Y-96231530D01*
X119437043Y-96227011D01*
X119454591Y-96219264D01*
X119505952Y-96213305D01*
X119510000Y-96212500D01*
X121160000Y-96212500D01*
X121164047Y-96213305D01*
G37*
G36*
X126114047Y-96213305D02*
G01*
X126165408Y-96219264D01*
X126182954Y-96227011D01*
X126205671Y-96231530D01*
X126229991Y-96247780D01*
X126250793Y-96256965D01*
X126265000Y-96271172D01*
X126286777Y-96285723D01*
X126301327Y-96307499D01*
X126315534Y-96321706D01*
X126324718Y-96342506D01*
X126340970Y-96366829D01*
X126345489Y-96389548D01*
X126353235Y-96407091D01*
X126359192Y-96458440D01*
X126360000Y-96462500D01*
X126360000Y-96762500D01*
X126359192Y-96766559D01*
X126353235Y-96817908D01*
X126345489Y-96835450D01*
X126340970Y-96858171D01*
X126324716Y-96882495D01*
X126315534Y-96903293D01*
X126301329Y-96917497D01*
X126286777Y-96939277D01*
X126264997Y-96953829D01*
X126250793Y-96968034D01*
X126229995Y-96977216D01*
X126205671Y-96993470D01*
X126182950Y-96997989D01*
X126165408Y-97005735D01*
X126114061Y-97011692D01*
X126110000Y-97012500D01*
X124460000Y-97012500D01*
X124455941Y-97011692D01*
X124404591Y-97005735D01*
X124387048Y-96997989D01*
X124364329Y-96993470D01*
X124340006Y-96977218D01*
X124319206Y-96968034D01*
X124304999Y-96953827D01*
X124283223Y-96939277D01*
X124268672Y-96917500D01*
X124254465Y-96903293D01*
X124245280Y-96882491D01*
X124229030Y-96858171D01*
X124224511Y-96835454D01*
X124216764Y-96817908D01*
X124210805Y-96766549D01*
X124210000Y-96762500D01*
X124210000Y-96462500D01*
X124210804Y-96458453D01*
X124216764Y-96407091D01*
X124224511Y-96389543D01*
X124229030Y-96366829D01*
X124245278Y-96342510D01*
X124254465Y-96321706D01*
X124268674Y-96307496D01*
X124283223Y-96285723D01*
X124304996Y-96271174D01*
X124319206Y-96256965D01*
X124340010Y-96247778D01*
X124364329Y-96231530D01*
X124387043Y-96227011D01*
X124404591Y-96219264D01*
X124455952Y-96213305D01*
X124460000Y-96212500D01*
X126110000Y-96212500D01*
X126114047Y-96213305D01*
G37*
G36*
X131484047Y-95333305D02*
G01*
X131535408Y-95339264D01*
X131552954Y-95347011D01*
X131575671Y-95351530D01*
X131599991Y-95367780D01*
X131620793Y-95376965D01*
X131635000Y-95391172D01*
X131656777Y-95405723D01*
X131671327Y-95427499D01*
X131685534Y-95441706D01*
X131694718Y-95462506D01*
X131710970Y-95486829D01*
X131715489Y-95509548D01*
X131723235Y-95527091D01*
X131729192Y-95578440D01*
X131730000Y-95582500D01*
X131730000Y-95882500D01*
X131729192Y-95886559D01*
X131723235Y-95937908D01*
X131715489Y-95955450D01*
X131710970Y-95978171D01*
X131694716Y-96002495D01*
X131685534Y-96023293D01*
X131671329Y-96037497D01*
X131656777Y-96059277D01*
X131634997Y-96073829D01*
X131620793Y-96088034D01*
X131599995Y-96097216D01*
X131575671Y-96113470D01*
X131552950Y-96117989D01*
X131535408Y-96125735D01*
X131484061Y-96131692D01*
X131480000Y-96132500D01*
X129830000Y-96132500D01*
X129825941Y-96131692D01*
X129774591Y-96125735D01*
X129757048Y-96117989D01*
X129734329Y-96113470D01*
X129710006Y-96097218D01*
X129689206Y-96088034D01*
X129674999Y-96073827D01*
X129653223Y-96059277D01*
X129638672Y-96037500D01*
X129624465Y-96023293D01*
X129615280Y-96002491D01*
X129599030Y-95978171D01*
X129594511Y-95955454D01*
X129586764Y-95937908D01*
X129580805Y-95886549D01*
X129580000Y-95882500D01*
X129580000Y-95582500D01*
X129580804Y-95578453D01*
X129586764Y-95527091D01*
X129594511Y-95509543D01*
X129599030Y-95486829D01*
X129615278Y-95462510D01*
X129624465Y-95441706D01*
X129638674Y-95427496D01*
X129653223Y-95405723D01*
X129674996Y-95391174D01*
X129689206Y-95376965D01*
X129710010Y-95367778D01*
X129734329Y-95351530D01*
X129757043Y-95347011D01*
X129774591Y-95339264D01*
X129825952Y-95333305D01*
X129830000Y-95332500D01*
X131480000Y-95332500D01*
X131484047Y-95333305D01*
G37*
G36*
X136434047Y-95333305D02*
G01*
X136485408Y-95339264D01*
X136502954Y-95347011D01*
X136525671Y-95351530D01*
X136549991Y-95367780D01*
X136570793Y-95376965D01*
X136585000Y-95391172D01*
X136606777Y-95405723D01*
X136621327Y-95427499D01*
X136635534Y-95441706D01*
X136644718Y-95462506D01*
X136660970Y-95486829D01*
X136665489Y-95509548D01*
X136673235Y-95527091D01*
X136679192Y-95578440D01*
X136680000Y-95582500D01*
X136680000Y-95882500D01*
X136679192Y-95886559D01*
X136673235Y-95937908D01*
X136665489Y-95955450D01*
X136660970Y-95978171D01*
X136644716Y-96002495D01*
X136635534Y-96023293D01*
X136621329Y-96037497D01*
X136606777Y-96059277D01*
X136584997Y-96073829D01*
X136570793Y-96088034D01*
X136549995Y-96097216D01*
X136525671Y-96113470D01*
X136502950Y-96117989D01*
X136485408Y-96125735D01*
X136434061Y-96131692D01*
X136430000Y-96132500D01*
X134780000Y-96132500D01*
X134775941Y-96131692D01*
X134724591Y-96125735D01*
X134707048Y-96117989D01*
X134684329Y-96113470D01*
X134660006Y-96097218D01*
X134639206Y-96088034D01*
X134624999Y-96073827D01*
X134603223Y-96059277D01*
X134588672Y-96037500D01*
X134574465Y-96023293D01*
X134565280Y-96002491D01*
X134549030Y-95978171D01*
X134544511Y-95955454D01*
X134536764Y-95937908D01*
X134530805Y-95886549D01*
X134530000Y-95882500D01*
X134530000Y-95582500D01*
X134530804Y-95578453D01*
X134536764Y-95527091D01*
X134544511Y-95509543D01*
X134549030Y-95486829D01*
X134565278Y-95462510D01*
X134574465Y-95441706D01*
X134588674Y-95427496D01*
X134603223Y-95405723D01*
X134624996Y-95391174D01*
X134639206Y-95376965D01*
X134660010Y-95367778D01*
X134684329Y-95351530D01*
X134707043Y-95347011D01*
X134724591Y-95339264D01*
X134775952Y-95333305D01*
X134780000Y-95332500D01*
X136430000Y-95332500D01*
X136434047Y-95333305D01*
G37*
G36*
X121164047Y-94943305D02*
G01*
X121215408Y-94949264D01*
X121232954Y-94957011D01*
X121255671Y-94961530D01*
X121279991Y-94977780D01*
X121300793Y-94986965D01*
X121315000Y-95001172D01*
X121336777Y-95015723D01*
X121351327Y-95037499D01*
X121365534Y-95051706D01*
X121374718Y-95072506D01*
X121390970Y-95096829D01*
X121395489Y-95119548D01*
X121403235Y-95137091D01*
X121409192Y-95188440D01*
X121410000Y-95192500D01*
X121410000Y-95492500D01*
X121409192Y-95496559D01*
X121403235Y-95547908D01*
X121395489Y-95565450D01*
X121390970Y-95588171D01*
X121374716Y-95612495D01*
X121365534Y-95633293D01*
X121351329Y-95647497D01*
X121336777Y-95669277D01*
X121314997Y-95683829D01*
X121300793Y-95698034D01*
X121279995Y-95707216D01*
X121255671Y-95723470D01*
X121232950Y-95727989D01*
X121215408Y-95735735D01*
X121164061Y-95741692D01*
X121160000Y-95742500D01*
X119510000Y-95742500D01*
X119505941Y-95741692D01*
X119454591Y-95735735D01*
X119437048Y-95727989D01*
X119414329Y-95723470D01*
X119390006Y-95707218D01*
X119369206Y-95698034D01*
X119354999Y-95683827D01*
X119333223Y-95669277D01*
X119318672Y-95647500D01*
X119304465Y-95633293D01*
X119295280Y-95612491D01*
X119279030Y-95588171D01*
X119274511Y-95565454D01*
X119266764Y-95547908D01*
X119260805Y-95496549D01*
X119260000Y-95492500D01*
X119260000Y-95192500D01*
X119260804Y-95188453D01*
X119266764Y-95137091D01*
X119274511Y-95119543D01*
X119279030Y-95096829D01*
X119295278Y-95072510D01*
X119304465Y-95051706D01*
X119318674Y-95037496D01*
X119333223Y-95015723D01*
X119354996Y-95001174D01*
X119369206Y-94986965D01*
X119390010Y-94977778D01*
X119414329Y-94961530D01*
X119437043Y-94957011D01*
X119454591Y-94949264D01*
X119505952Y-94943305D01*
X119510000Y-94942500D01*
X121160000Y-94942500D01*
X121164047Y-94943305D01*
G37*
G36*
X126114047Y-94943305D02*
G01*
X126165408Y-94949264D01*
X126182954Y-94957011D01*
X126205671Y-94961530D01*
X126229991Y-94977780D01*
X126250793Y-94986965D01*
X126265000Y-95001172D01*
X126286777Y-95015723D01*
X126301327Y-95037499D01*
X126315534Y-95051706D01*
X126324718Y-95072506D01*
X126340970Y-95096829D01*
X126345489Y-95119548D01*
X126353235Y-95137091D01*
X126359192Y-95188440D01*
X126360000Y-95192500D01*
X126360000Y-95492500D01*
X126359192Y-95496559D01*
X126353235Y-95547908D01*
X126345489Y-95565450D01*
X126340970Y-95588171D01*
X126324716Y-95612495D01*
X126315534Y-95633293D01*
X126301329Y-95647497D01*
X126286777Y-95669277D01*
X126264997Y-95683829D01*
X126250793Y-95698034D01*
X126229995Y-95707216D01*
X126205671Y-95723470D01*
X126182950Y-95727989D01*
X126165408Y-95735735D01*
X126114061Y-95741692D01*
X126110000Y-95742500D01*
X124460000Y-95742500D01*
X124455941Y-95741692D01*
X124404591Y-95735735D01*
X124387048Y-95727989D01*
X124364329Y-95723470D01*
X124340006Y-95707218D01*
X124319206Y-95698034D01*
X124304999Y-95683827D01*
X124283223Y-95669277D01*
X124268672Y-95647500D01*
X124254465Y-95633293D01*
X124245280Y-95612491D01*
X124229030Y-95588171D01*
X124224511Y-95565454D01*
X124216764Y-95547908D01*
X124210805Y-95496549D01*
X124210000Y-95492500D01*
X124210000Y-95192500D01*
X124210804Y-95188453D01*
X124216764Y-95137091D01*
X124224511Y-95119543D01*
X124229030Y-95096829D01*
X124245278Y-95072510D01*
X124254465Y-95051706D01*
X124268674Y-95037496D01*
X124283223Y-95015723D01*
X124304996Y-95001174D01*
X124319206Y-94986965D01*
X124340010Y-94977778D01*
X124364329Y-94961530D01*
X124387043Y-94957011D01*
X124404591Y-94949264D01*
X124455952Y-94943305D01*
X124460000Y-94942500D01*
X126110000Y-94942500D01*
X126114047Y-94943305D01*
G37*
G36*
X131484047Y-94063305D02*
G01*
X131535408Y-94069264D01*
X131552954Y-94077011D01*
X131575671Y-94081530D01*
X131599991Y-94097780D01*
X131620793Y-94106965D01*
X131635000Y-94121172D01*
X131656777Y-94135723D01*
X131671327Y-94157499D01*
X131685534Y-94171706D01*
X131694718Y-94192506D01*
X131710970Y-94216829D01*
X131715489Y-94239548D01*
X131723235Y-94257091D01*
X131729192Y-94308440D01*
X131730000Y-94312500D01*
X131730000Y-94612500D01*
X131729192Y-94616559D01*
X131723235Y-94667908D01*
X131715489Y-94685450D01*
X131710970Y-94708171D01*
X131694716Y-94732495D01*
X131685534Y-94753293D01*
X131671329Y-94767497D01*
X131656777Y-94789277D01*
X131634997Y-94803829D01*
X131620793Y-94818034D01*
X131599995Y-94827216D01*
X131575671Y-94843470D01*
X131552950Y-94847989D01*
X131535408Y-94855735D01*
X131484061Y-94861692D01*
X131480000Y-94862500D01*
X129830000Y-94862500D01*
X129825941Y-94861692D01*
X129774591Y-94855735D01*
X129757048Y-94847989D01*
X129734329Y-94843470D01*
X129710006Y-94827218D01*
X129689206Y-94818034D01*
X129674999Y-94803827D01*
X129653223Y-94789277D01*
X129638672Y-94767500D01*
X129624465Y-94753293D01*
X129615280Y-94732491D01*
X129599030Y-94708171D01*
X129594511Y-94685454D01*
X129586764Y-94667908D01*
X129580805Y-94616549D01*
X129580000Y-94612500D01*
X129580000Y-94312500D01*
X129580804Y-94308453D01*
X129586764Y-94257091D01*
X129594511Y-94239543D01*
X129599030Y-94216829D01*
X129615278Y-94192510D01*
X129624465Y-94171706D01*
X129638674Y-94157496D01*
X129653223Y-94135723D01*
X129674996Y-94121174D01*
X129689206Y-94106965D01*
X129710010Y-94097778D01*
X129734329Y-94081530D01*
X129757043Y-94077011D01*
X129774591Y-94069264D01*
X129825952Y-94063305D01*
X129830000Y-94062500D01*
X131480000Y-94062500D01*
X131484047Y-94063305D01*
G37*
G36*
X136434047Y-94063305D02*
G01*
X136485408Y-94069264D01*
X136502954Y-94077011D01*
X136525671Y-94081530D01*
X136549991Y-94097780D01*
X136570793Y-94106965D01*
X136585000Y-94121172D01*
X136606777Y-94135723D01*
X136621327Y-94157499D01*
X136635534Y-94171706D01*
X136644718Y-94192506D01*
X136660970Y-94216829D01*
X136665489Y-94239548D01*
X136673235Y-94257091D01*
X136679192Y-94308440D01*
X136680000Y-94312500D01*
X136680000Y-94612500D01*
X136679192Y-94616559D01*
X136673235Y-94667908D01*
X136665489Y-94685450D01*
X136660970Y-94708171D01*
X136644716Y-94732495D01*
X136635534Y-94753293D01*
X136621329Y-94767497D01*
X136606777Y-94789277D01*
X136584997Y-94803829D01*
X136570793Y-94818034D01*
X136549995Y-94827216D01*
X136525671Y-94843470D01*
X136502950Y-94847989D01*
X136485408Y-94855735D01*
X136434061Y-94861692D01*
X136430000Y-94862500D01*
X134780000Y-94862500D01*
X134775941Y-94861692D01*
X134724591Y-94855735D01*
X134707048Y-94847989D01*
X134684329Y-94843470D01*
X134660006Y-94827218D01*
X134639206Y-94818034D01*
X134624999Y-94803827D01*
X134603223Y-94789277D01*
X134588672Y-94767500D01*
X134574465Y-94753293D01*
X134565280Y-94732491D01*
X134549030Y-94708171D01*
X134544511Y-94685454D01*
X134536764Y-94667908D01*
X134530805Y-94616549D01*
X134530000Y-94612500D01*
X134530000Y-94312500D01*
X134530804Y-94308453D01*
X134536764Y-94257091D01*
X134544511Y-94239543D01*
X134549030Y-94216829D01*
X134565278Y-94192510D01*
X134574465Y-94171706D01*
X134588674Y-94157496D01*
X134603223Y-94135723D01*
X134624996Y-94121174D01*
X134639206Y-94106965D01*
X134660010Y-94097778D01*
X134684329Y-94081530D01*
X134707043Y-94077011D01*
X134724591Y-94069264D01*
X134775952Y-94063305D01*
X134780000Y-94062500D01*
X136430000Y-94062500D01*
X136434047Y-94063305D01*
G37*
G36*
X131484047Y-92793305D02*
G01*
X131535408Y-92799264D01*
X131552954Y-92807011D01*
X131575671Y-92811530D01*
X131599991Y-92827780D01*
X131620793Y-92836965D01*
X131635000Y-92851172D01*
X131656777Y-92865723D01*
X131671327Y-92887499D01*
X131685534Y-92901706D01*
X131694718Y-92922506D01*
X131710970Y-92946829D01*
X131715489Y-92969548D01*
X131723235Y-92987091D01*
X131729192Y-93038440D01*
X131730000Y-93042500D01*
X131730000Y-93342500D01*
X131729192Y-93346559D01*
X131723235Y-93397908D01*
X131715489Y-93415450D01*
X131710970Y-93438171D01*
X131694716Y-93462495D01*
X131685534Y-93483293D01*
X131671329Y-93497497D01*
X131656777Y-93519277D01*
X131634997Y-93533829D01*
X131620793Y-93548034D01*
X131599995Y-93557216D01*
X131575671Y-93573470D01*
X131552950Y-93577989D01*
X131535408Y-93585735D01*
X131484061Y-93591692D01*
X131480000Y-93592500D01*
X129830000Y-93592500D01*
X129825941Y-93591692D01*
X129774591Y-93585735D01*
X129757048Y-93577989D01*
X129734329Y-93573470D01*
X129710006Y-93557218D01*
X129689206Y-93548034D01*
X129674999Y-93533827D01*
X129653223Y-93519277D01*
X129638672Y-93497500D01*
X129624465Y-93483293D01*
X129615280Y-93462491D01*
X129599030Y-93438171D01*
X129594511Y-93415454D01*
X129586764Y-93397908D01*
X129580805Y-93346549D01*
X129580000Y-93342500D01*
X129580000Y-93042500D01*
X129580804Y-93038453D01*
X129586764Y-92987091D01*
X129594511Y-92969543D01*
X129599030Y-92946829D01*
X129615278Y-92922510D01*
X129624465Y-92901706D01*
X129638674Y-92887496D01*
X129653223Y-92865723D01*
X129674996Y-92851174D01*
X129689206Y-92836965D01*
X129710010Y-92827778D01*
X129734329Y-92811530D01*
X129757043Y-92807011D01*
X129774591Y-92799264D01*
X129825952Y-92793305D01*
X129830000Y-92792500D01*
X131480000Y-92792500D01*
X131484047Y-92793305D01*
G37*
G36*
X136434047Y-92793305D02*
G01*
X136485408Y-92799264D01*
X136502954Y-92807011D01*
X136525671Y-92811530D01*
X136549991Y-92827780D01*
X136570793Y-92836965D01*
X136585000Y-92851172D01*
X136606777Y-92865723D01*
X136621327Y-92887499D01*
X136635534Y-92901706D01*
X136644718Y-92922506D01*
X136660970Y-92946829D01*
X136665489Y-92969548D01*
X136673235Y-92987091D01*
X136679192Y-93038440D01*
X136680000Y-93042500D01*
X136680000Y-93342500D01*
X136679192Y-93346559D01*
X136673235Y-93397908D01*
X136665489Y-93415450D01*
X136660970Y-93438171D01*
X136644716Y-93462495D01*
X136635534Y-93483293D01*
X136621329Y-93497497D01*
X136606777Y-93519277D01*
X136584997Y-93533829D01*
X136570793Y-93548034D01*
X136549995Y-93557216D01*
X136525671Y-93573470D01*
X136502950Y-93577989D01*
X136485408Y-93585735D01*
X136434061Y-93591692D01*
X136430000Y-93592500D01*
X134780000Y-93592500D01*
X134775941Y-93591692D01*
X134724591Y-93585735D01*
X134707048Y-93577989D01*
X134684329Y-93573470D01*
X134660006Y-93557218D01*
X134639206Y-93548034D01*
X134624999Y-93533827D01*
X134603223Y-93519277D01*
X134588672Y-93497500D01*
X134574465Y-93483293D01*
X134565280Y-93462491D01*
X134549030Y-93438171D01*
X134544511Y-93415454D01*
X134536764Y-93397908D01*
X134530805Y-93346549D01*
X134530000Y-93342500D01*
X134530000Y-93042500D01*
X134530804Y-93038453D01*
X134536764Y-92987091D01*
X134544511Y-92969543D01*
X134549030Y-92946829D01*
X134565278Y-92922510D01*
X134574465Y-92901706D01*
X134588674Y-92887496D01*
X134603223Y-92865723D01*
X134624996Y-92851174D01*
X134639206Y-92836965D01*
X134660010Y-92827778D01*
X134684329Y-92811530D01*
X134707043Y-92807011D01*
X134724591Y-92799264D01*
X134775952Y-92793305D01*
X134780000Y-92792500D01*
X136430000Y-92792500D01*
X136434047Y-92793305D01*
G37*
G36*
X118875903Y-86546956D02*
G01*
X118916431Y-86560125D01*
X118918373Y-86561536D01*
X118924399Y-86563605D01*
X119005305Y-86623934D01*
X119376536Y-86995165D01*
X119436865Y-87076071D01*
X119438932Y-87082094D01*
X119440344Y-87084037D01*
X119453511Y-87124562D01*
X119474275Y-87185044D01*
X119474275Y-87300260D01*
X119453516Y-87360729D01*
X119440345Y-87401266D01*
X119438933Y-87403208D01*
X119436865Y-87409234D01*
X119376536Y-87490140D01*
X118740140Y-88126536D01*
X118659234Y-88186865D01*
X118653208Y-88188933D01*
X118651267Y-88190344D01*
X118610752Y-88203508D01*
X118550260Y-88224275D01*
X118435044Y-88224275D01*
X118374544Y-88203505D01*
X118334038Y-88190344D01*
X118332096Y-88188933D01*
X118326071Y-88186865D01*
X118245165Y-88126536D01*
X117873934Y-87755305D01*
X117813605Y-87674399D01*
X117811537Y-87668375D01*
X117810125Y-87666432D01*
X117796952Y-87625892D01*
X117776195Y-87565426D01*
X117776195Y-87450210D01*
X117796936Y-87389790D01*
X117810124Y-87349203D01*
X117811538Y-87347256D01*
X117813605Y-87341236D01*
X117873934Y-87260330D01*
X118510330Y-86623934D01*
X118591236Y-86563605D01*
X118597257Y-86561537D01*
X118599202Y-86560125D01*
X118639761Y-86546946D01*
X118700210Y-86526195D01*
X118815426Y-86526195D01*
X118875903Y-86546956D01*
G37*
G36*
X138520226Y-86546942D02*
G01*
X138560796Y-86560124D01*
X138562741Y-86561537D01*
X138568764Y-86563605D01*
X138649670Y-86623934D01*
X139286066Y-87260330D01*
X139346395Y-87341236D01*
X139348462Y-87347259D01*
X139349874Y-87349202D01*
X139363044Y-87389735D01*
X139383805Y-87450210D01*
X139383805Y-87565426D01*
X139363032Y-87625936D01*
X139349874Y-87666431D01*
X139348464Y-87668371D01*
X139346395Y-87674399D01*
X139286066Y-87755305D01*
X138914835Y-88126536D01*
X138833929Y-88186865D01*
X138827903Y-88188933D01*
X138825962Y-88190344D01*
X138785455Y-88203505D01*
X138724956Y-88224275D01*
X138609740Y-88224275D01*
X138549280Y-88203519D01*
X138508733Y-88190345D01*
X138506789Y-88188932D01*
X138500766Y-88186865D01*
X138419860Y-88126536D01*
X137783464Y-87490140D01*
X137723135Y-87409234D01*
X137721067Y-87403210D01*
X137719655Y-87401267D01*
X137706480Y-87360719D01*
X137685725Y-87300260D01*
X137685725Y-87185044D01*
X137706480Y-87124584D01*
X137719655Y-87084038D01*
X137721067Y-87082094D01*
X137723135Y-87076071D01*
X137783464Y-86995165D01*
X137969080Y-86809549D01*
X138151914Y-86626714D01*
X138151917Y-86626711D01*
X138154695Y-86623934D01*
X138235601Y-86563605D01*
X138241622Y-86561537D01*
X138243567Y-86560125D01*
X138284118Y-86546949D01*
X138344574Y-86526195D01*
X138459790Y-86526195D01*
X138520226Y-86546942D01*
G37*
G36*
X129618268Y-85380158D02*
G01*
X129650711Y-85401835D01*
X129672388Y-85434278D01*
X129680000Y-85472546D01*
X129680000Y-87472546D01*
X129672388Y-87510814D01*
X129650711Y-87543257D01*
X129618268Y-87564934D01*
X129580000Y-87572546D01*
X127580000Y-87572546D01*
X127541732Y-87564934D01*
X127509289Y-87543257D01*
X127487612Y-87510814D01*
X127480000Y-87472546D01*
X127480000Y-85472546D01*
X127487612Y-85434278D01*
X127509289Y-85401835D01*
X127541732Y-85380158D01*
X127580000Y-85372546D01*
X129580000Y-85372546D01*
X129618268Y-85380158D01*
G37*
G36*
X117585433Y-85256486D02*
G01*
X117625961Y-85269655D01*
X117627903Y-85271066D01*
X117633929Y-85273135D01*
X117714835Y-85333464D01*
X118086066Y-85704695D01*
X118146395Y-85785601D01*
X118148462Y-85791624D01*
X118149874Y-85793567D01*
X118163041Y-85834092D01*
X118183805Y-85894574D01*
X118183805Y-86009790D01*
X118163046Y-86070259D01*
X118149875Y-86110796D01*
X118148463Y-86112738D01*
X118146395Y-86118764D01*
X118086066Y-86199670D01*
X117449670Y-86836066D01*
X117368764Y-86896395D01*
X117362738Y-86898463D01*
X117360797Y-86899874D01*
X117320282Y-86913038D01*
X117259790Y-86933805D01*
X117144574Y-86933805D01*
X117084074Y-86913035D01*
X117043568Y-86899874D01*
X117041626Y-86898463D01*
X117035601Y-86896395D01*
X116954695Y-86836066D01*
X116583464Y-86464835D01*
X116523135Y-86383929D01*
X116521067Y-86377905D01*
X116519655Y-86375962D01*
X116506482Y-86335422D01*
X116485725Y-86274956D01*
X116485725Y-86159740D01*
X116506466Y-86099320D01*
X116519654Y-86058733D01*
X116521068Y-86056786D01*
X116523135Y-86050766D01*
X116583464Y-85969860D01*
X117219860Y-85333464D01*
X117300766Y-85273135D01*
X117306787Y-85271067D01*
X117308732Y-85269655D01*
X117349291Y-85256476D01*
X117409740Y-85235725D01*
X117524956Y-85235725D01*
X117585433Y-85256486D01*
G37*
G36*
X139810696Y-85256472D02*
G01*
X139851266Y-85269654D01*
X139853211Y-85271067D01*
X139859234Y-85273135D01*
X139940140Y-85333464D01*
X140576536Y-85969860D01*
X140636865Y-86050766D01*
X140638932Y-86056789D01*
X140640344Y-86058732D01*
X140653514Y-86099265D01*
X140674275Y-86159740D01*
X140674275Y-86274956D01*
X140653502Y-86335466D01*
X140640344Y-86375961D01*
X140638934Y-86377901D01*
X140636865Y-86383929D01*
X140576536Y-86464835D01*
X140205305Y-86836066D01*
X140124399Y-86896395D01*
X140118373Y-86898463D01*
X140116432Y-86899874D01*
X140075925Y-86913035D01*
X140015426Y-86933805D01*
X139900210Y-86933805D01*
X139839750Y-86913049D01*
X139799203Y-86899875D01*
X139797259Y-86898462D01*
X139791236Y-86896395D01*
X139710330Y-86836066D01*
X139073934Y-86199670D01*
X139013605Y-86118764D01*
X139011537Y-86112740D01*
X139010125Y-86110797D01*
X138996950Y-86070249D01*
X138976195Y-86009790D01*
X138976195Y-85894574D01*
X138996950Y-85834114D01*
X139010125Y-85793568D01*
X139011537Y-85791624D01*
X139013605Y-85785601D01*
X139073934Y-85704695D01*
X139344351Y-85434278D01*
X139442384Y-85336244D01*
X139442387Y-85336241D01*
X139445165Y-85333464D01*
X139526071Y-85273135D01*
X139532092Y-85271067D01*
X139534037Y-85269655D01*
X139574588Y-85256479D01*
X139635044Y-85235725D01*
X139750260Y-85235725D01*
X139810696Y-85256472D01*
G37*
G36*
X115948001Y-83659410D02*
G01*
X115952865Y-83659410D01*
X115993317Y-83674133D01*
X116048949Y-83692209D01*
X116054942Y-83696564D01*
X116065048Y-83700242D01*
X116136241Y-83754870D01*
X116480956Y-84099585D01*
X116535584Y-84170778D01*
X116539262Y-84180883D01*
X116543616Y-84186876D01*
X116561691Y-84242505D01*
X116576416Y-84282961D01*
X116576416Y-84287823D01*
X116576790Y-84288975D01*
X116576790Y-84396330D01*
X116576416Y-84397481D01*
X116576416Y-84402345D01*
X116561688Y-84442808D01*
X116543616Y-84498429D01*
X116539263Y-84504420D01*
X116535584Y-84514528D01*
X116480956Y-84585721D01*
X115835721Y-85230956D01*
X115764528Y-85285584D01*
X115754420Y-85289262D01*
X115748429Y-85293616D01*
X115692808Y-85311688D01*
X115652345Y-85326416D01*
X115647481Y-85326416D01*
X115646330Y-85326790D01*
X115538976Y-85326790D01*
X115537825Y-85326416D01*
X115532961Y-85326416D01*
X115492500Y-85311689D01*
X115436876Y-85293616D01*
X115430883Y-85289262D01*
X115420778Y-85285584D01*
X115349585Y-85230956D01*
X115004870Y-84886241D01*
X114950242Y-84815048D01*
X114946564Y-84804943D01*
X114942209Y-84798949D01*
X114924133Y-84743317D01*
X114909410Y-84702865D01*
X114909410Y-84698001D01*
X114909036Y-84696850D01*
X114909036Y-84589495D01*
X114909410Y-84588343D01*
X114909410Y-84583481D01*
X114924130Y-84543036D01*
X114942209Y-84487396D01*
X114946564Y-84481401D01*
X114950242Y-84471298D01*
X115004870Y-84400105D01*
X115650105Y-83754870D01*
X115721298Y-83700242D01*
X115731400Y-83696564D01*
X115737396Y-83692209D01*
X115793032Y-83674132D01*
X115833481Y-83659410D01*
X115838345Y-83659410D01*
X115839496Y-83659036D01*
X115946850Y-83659036D01*
X115948001Y-83659410D01*
G37*
G36*
X141321655Y-83659410D02*
G01*
X141326519Y-83659410D01*
X141366971Y-83674133D01*
X141422603Y-83692209D01*
X141428596Y-83696563D01*
X141438702Y-83700242D01*
X141509895Y-83754870D01*
X142155130Y-84400105D01*
X142209758Y-84471298D01*
X142213436Y-84481403D01*
X142217790Y-84487396D01*
X142235865Y-84543025D01*
X142250590Y-84583481D01*
X142250590Y-84588343D01*
X142250964Y-84589495D01*
X142250964Y-84696850D01*
X142250590Y-84698001D01*
X142250590Y-84702865D01*
X142235862Y-84743328D01*
X142217790Y-84798949D01*
X142213436Y-84804940D01*
X142209758Y-84815048D01*
X142155130Y-84886241D01*
X141810415Y-85230956D01*
X141739222Y-85285584D01*
X141729114Y-85289262D01*
X141723123Y-85293616D01*
X141667502Y-85311688D01*
X141627039Y-85326416D01*
X141622175Y-85326416D01*
X141621024Y-85326790D01*
X141513670Y-85326790D01*
X141512519Y-85326416D01*
X141507655Y-85326416D01*
X141467194Y-85311689D01*
X141411570Y-85293616D01*
X141405577Y-85289262D01*
X141395472Y-85285584D01*
X141324279Y-85230956D01*
X140679044Y-84585721D01*
X140624416Y-84514528D01*
X140620738Y-84504423D01*
X140616383Y-84498429D01*
X140598307Y-84442797D01*
X140583584Y-84402345D01*
X140583584Y-84397481D01*
X140583210Y-84396330D01*
X140583210Y-84288975D01*
X140583584Y-84287823D01*
X140583584Y-84282961D01*
X140598304Y-84242516D01*
X140616383Y-84186876D01*
X140620738Y-84180881D01*
X140624416Y-84170778D01*
X140679044Y-84099585D01*
X141023759Y-83754870D01*
X141094952Y-83700242D01*
X141105054Y-83696564D01*
X141111050Y-83692209D01*
X141166686Y-83674132D01*
X141207135Y-83659410D01*
X141211999Y-83659410D01*
X141213150Y-83659036D01*
X141320504Y-83659036D01*
X141321655Y-83659410D01*
G37*
G36*
X114622175Y-82333584D02*
G01*
X114627039Y-82333584D01*
X114667491Y-82348307D01*
X114723123Y-82366383D01*
X114729116Y-82370738D01*
X114739222Y-82374416D01*
X114810415Y-82429044D01*
X115155130Y-82773759D01*
X115209758Y-82844952D01*
X115213436Y-82855057D01*
X115217790Y-82861050D01*
X115235865Y-82916679D01*
X115250590Y-82957135D01*
X115250590Y-82961997D01*
X115250964Y-82963149D01*
X115250964Y-83070504D01*
X115250590Y-83071655D01*
X115250590Y-83076519D01*
X115235862Y-83116982D01*
X115217790Y-83172603D01*
X115213437Y-83178594D01*
X115209758Y-83188702D01*
X115155130Y-83259895D01*
X114509895Y-83905130D01*
X114438702Y-83959758D01*
X114428594Y-83963436D01*
X114422603Y-83967790D01*
X114366982Y-83985862D01*
X114326519Y-84000590D01*
X114321655Y-84000590D01*
X114320504Y-84000964D01*
X114213150Y-84000964D01*
X114211999Y-84000590D01*
X114207135Y-84000590D01*
X114166674Y-83985863D01*
X114111050Y-83967790D01*
X114105057Y-83963436D01*
X114094952Y-83959758D01*
X114023759Y-83905130D01*
X113679044Y-83560415D01*
X113624416Y-83489222D01*
X113620738Y-83479117D01*
X113616383Y-83473123D01*
X113598307Y-83417491D01*
X113583584Y-83377039D01*
X113583584Y-83372175D01*
X113583210Y-83371024D01*
X113583210Y-83263669D01*
X113583584Y-83262517D01*
X113583584Y-83257655D01*
X113598304Y-83217210D01*
X113616383Y-83161570D01*
X113620738Y-83155575D01*
X113624416Y-83145472D01*
X113679044Y-83074279D01*
X114324279Y-82429044D01*
X114395472Y-82374416D01*
X114405574Y-82370738D01*
X114411570Y-82366383D01*
X114467206Y-82348306D01*
X114507655Y-82333584D01*
X114512519Y-82333584D01*
X114513670Y-82333210D01*
X114621024Y-82333210D01*
X114622175Y-82333584D01*
G37*
G36*
X142647481Y-82333584D02*
G01*
X142652345Y-82333584D01*
X142692797Y-82348307D01*
X142748429Y-82366383D01*
X142754422Y-82370737D01*
X142764528Y-82374416D01*
X142835721Y-82429044D01*
X143480956Y-83074279D01*
X143535584Y-83145472D01*
X143539262Y-83155577D01*
X143543616Y-83161570D01*
X143561691Y-83217199D01*
X143576416Y-83257655D01*
X143576416Y-83262517D01*
X143576790Y-83263669D01*
X143576790Y-83371024D01*
X143576416Y-83372175D01*
X143576416Y-83377039D01*
X143561688Y-83417502D01*
X143543616Y-83473123D01*
X143539262Y-83479114D01*
X143535584Y-83489222D01*
X143480956Y-83560415D01*
X143136241Y-83905130D01*
X143065048Y-83959758D01*
X143054940Y-83963436D01*
X143048949Y-83967790D01*
X142993328Y-83985862D01*
X142952865Y-84000590D01*
X142948001Y-84000590D01*
X142946850Y-84000964D01*
X142839496Y-84000964D01*
X142838345Y-84000590D01*
X142833481Y-84000590D01*
X142793020Y-83985863D01*
X142737396Y-83967790D01*
X142731403Y-83963436D01*
X142721298Y-83959758D01*
X142650105Y-83905130D01*
X142004870Y-83259895D01*
X141950242Y-83188702D01*
X141946564Y-83178597D01*
X141942209Y-83172603D01*
X141924133Y-83116971D01*
X141909410Y-83076519D01*
X141909410Y-83071655D01*
X141909036Y-83070504D01*
X141909036Y-82963149D01*
X141909410Y-82961997D01*
X141909410Y-82957135D01*
X141924130Y-82916690D01*
X141942209Y-82861050D01*
X141946564Y-82855055D01*
X141950242Y-82844952D01*
X142004870Y-82773759D01*
X142349585Y-82429044D01*
X142420778Y-82374416D01*
X142430880Y-82370738D01*
X142436876Y-82366383D01*
X142492512Y-82348306D01*
X142532961Y-82333584D01*
X142537825Y-82333584D01*
X142538976Y-82333210D01*
X142646330Y-82333210D01*
X142647481Y-82333584D01*
G37*
G36*
X129129868Y-82644550D02*
G01*
X129135586Y-82647345D01*
X129137962Y-82647722D01*
X129175987Y-82667096D01*
X129233377Y-82695153D01*
X129314847Y-82776623D01*
X129342907Y-82834020D01*
X129362276Y-82872034D01*
X129362652Y-82874408D01*
X129365450Y-82880132D01*
X129380000Y-82980000D01*
X129380000Y-83505000D01*
X129365450Y-83604868D01*
X129362652Y-83610589D01*
X129362277Y-83612962D01*
X129342926Y-83650939D01*
X129314847Y-83708377D01*
X129233377Y-83789847D01*
X129175955Y-83817919D01*
X129137965Y-83837276D01*
X129135591Y-83837651D01*
X129129868Y-83840450D01*
X129030000Y-83855000D01*
X128130000Y-83855000D01*
X128030132Y-83840450D01*
X128024410Y-83837652D01*
X128022037Y-83837277D01*
X127984035Y-83817914D01*
X127926623Y-83789847D01*
X127845153Y-83708377D01*
X127817104Y-83651003D01*
X127797723Y-83612965D01*
X127797346Y-83610588D01*
X127794550Y-83604868D01*
X127780000Y-83505000D01*
X127780000Y-82980000D01*
X127794550Y-82880132D01*
X127797345Y-82874413D01*
X127797722Y-82872037D01*
X127817108Y-82833987D01*
X127845153Y-82776623D01*
X127926623Y-82695153D01*
X127983971Y-82667116D01*
X128022034Y-82647723D01*
X128024411Y-82647346D01*
X128030132Y-82644550D01*
X128130000Y-82630000D01*
X129030000Y-82630000D01*
X129129868Y-82644550D01*
G37*
G36*
X129129868Y-80819550D02*
G01*
X129135586Y-80822345D01*
X129137962Y-80822722D01*
X129175987Y-80842096D01*
X129233377Y-80870153D01*
X129314847Y-80951623D01*
X129342907Y-81009020D01*
X129362276Y-81047034D01*
X129362652Y-81049408D01*
X129365450Y-81055132D01*
X129380000Y-81155000D01*
X129380000Y-81680000D01*
X129365450Y-81779868D01*
X129362652Y-81785589D01*
X129362277Y-81787962D01*
X129342926Y-81825939D01*
X129314847Y-81883377D01*
X129233377Y-81964847D01*
X129175955Y-81992919D01*
X129137965Y-82012276D01*
X129135591Y-82012651D01*
X129129868Y-82015450D01*
X129030000Y-82030000D01*
X128130000Y-82030000D01*
X128030132Y-82015450D01*
X128024410Y-82012652D01*
X128022037Y-82012277D01*
X127984035Y-81992914D01*
X127926623Y-81964847D01*
X127845153Y-81883377D01*
X127817104Y-81826003D01*
X127797723Y-81787965D01*
X127797346Y-81785588D01*
X127794550Y-81779868D01*
X127780000Y-81680000D01*
X127780000Y-81155000D01*
X127794550Y-81055132D01*
X127797345Y-81049413D01*
X127797722Y-81047037D01*
X127817108Y-81008987D01*
X127845153Y-80951623D01*
X127926623Y-80870153D01*
X127983971Y-80842116D01*
X128022034Y-80822723D01*
X128024411Y-80822346D01*
X128030132Y-80819550D01*
X128130000Y-80805000D01*
X129030000Y-80805000D01*
X129129868Y-80819550D01*
G37*
G36*
X129125219Y-78691713D02*
G01*
X129134964Y-78696257D01*
X129142281Y-78697416D01*
X129194415Y-78723979D01*
X129233417Y-78742166D01*
X129236853Y-78745602D01*
X129237932Y-78746152D01*
X129313847Y-78822067D01*
X129314396Y-78823145D01*
X129317834Y-78826583D01*
X129336023Y-78865590D01*
X129362582Y-78917715D01*
X129363740Y-78925031D01*
X129368287Y-78934781D01*
X129380000Y-79023750D01*
X129380000Y-79511250D01*
X129368287Y-79600219D01*
X129363741Y-79609967D01*
X129362583Y-79617281D01*
X129336031Y-79669392D01*
X129317834Y-79708417D01*
X129314395Y-79711855D01*
X129313847Y-79712932D01*
X129237932Y-79788847D01*
X129236855Y-79789395D01*
X129233417Y-79792834D01*
X129194397Y-79811028D01*
X129142284Y-79837582D01*
X129134969Y-79838740D01*
X129125219Y-79843287D01*
X129036250Y-79855000D01*
X128123750Y-79855000D01*
X128034781Y-79843287D01*
X128025033Y-79838741D01*
X128017718Y-79837583D01*
X127965596Y-79811025D01*
X127926583Y-79792834D01*
X127923145Y-79789396D01*
X127922067Y-79788847D01*
X127846152Y-79712932D01*
X127845602Y-79711853D01*
X127842166Y-79708417D01*
X127823981Y-79669420D01*
X127797417Y-79617284D01*
X127796257Y-79609965D01*
X127791713Y-79600219D01*
X127780000Y-79511250D01*
X127780000Y-79023750D01*
X127791713Y-78934781D01*
X127796256Y-78925036D01*
X127797416Y-78917718D01*
X127823984Y-78865573D01*
X127842166Y-78826583D01*
X127845601Y-78823147D01*
X127846152Y-78822067D01*
X127922067Y-78746152D01*
X127923147Y-78745601D01*
X127926583Y-78742166D01*
X127965567Y-78723987D01*
X128017715Y-78697417D01*
X128025034Y-78696257D01*
X128034781Y-78691713D01*
X128123750Y-78680000D01*
X129036250Y-78680000D01*
X129125219Y-78691713D01*
G37*
G36*
X129125219Y-76816713D02*
G01*
X129134964Y-76821257D01*
X129142281Y-76822416D01*
X129194415Y-76848979D01*
X129233417Y-76867166D01*
X129236853Y-76870602D01*
X129237932Y-76871152D01*
X129313847Y-76947067D01*
X129314396Y-76948145D01*
X129317834Y-76951583D01*
X129336023Y-76990590D01*
X129362582Y-77042715D01*
X129363740Y-77050031D01*
X129368287Y-77059781D01*
X129380000Y-77148750D01*
X129380000Y-77636250D01*
X129368287Y-77725219D01*
X129363741Y-77734967D01*
X129362583Y-77742281D01*
X129336031Y-77794392D01*
X129317834Y-77833417D01*
X129314395Y-77836855D01*
X129313847Y-77837932D01*
X129237932Y-77913847D01*
X129236855Y-77914395D01*
X129233417Y-77917834D01*
X129194397Y-77936028D01*
X129142284Y-77962582D01*
X129134969Y-77963740D01*
X129125219Y-77968287D01*
X129036250Y-77980000D01*
X128123750Y-77980000D01*
X128034781Y-77968287D01*
X128025033Y-77963741D01*
X128017718Y-77962583D01*
X127965596Y-77936025D01*
X127926583Y-77917834D01*
X127923145Y-77914396D01*
X127922067Y-77913847D01*
X127846152Y-77837932D01*
X127845602Y-77836853D01*
X127842166Y-77833417D01*
X127823981Y-77794420D01*
X127797417Y-77742284D01*
X127796257Y-77734965D01*
X127791713Y-77725219D01*
X127780000Y-77636250D01*
X127780000Y-77148750D01*
X127791713Y-77059781D01*
X127796256Y-77050036D01*
X127797416Y-77042718D01*
X127823984Y-76990573D01*
X127842166Y-76951583D01*
X127845601Y-76948147D01*
X127846152Y-76947067D01*
X127922067Y-76871152D01*
X127923147Y-76870601D01*
X127926583Y-76867166D01*
X127965567Y-76848987D01*
X128017715Y-76822417D01*
X128025034Y-76821257D01*
X128034781Y-76816713D01*
X128123750Y-76805000D01*
X129036250Y-76805000D01*
X129125219Y-76816713D01*
G37*
M02*
