%TF.GenerationSoftware,KiCad,Pcbnew,10.0.0*%
%TF.CreationDate,2026-03-29T20:07:52+03:00*%
%TF.ProjectId,Christmas Ornaments,43687269-7374-46d6-9173-204f726e616d,A*%
%TF.SameCoordinates,Original*%
%TF.FileFunction,Legend,Top*%
%TF.FilePolarity,Positive*%
%FSLAX46Y46*%
G04 Gerber Fmt 4.6, Leading zero omitted, Abs format (unit mm)*
G04 Created by KiCad (PCBNEW 10.0.0) date 2026-03-29 20:07:52*
%MOMM*%
%LPD*%
G01*
G04 APERTURE LIST*
%ADD10C,0.000000*%
%ADD11C,0.120000*%
G04 APERTURE END LIST*
D10*
%TO.C,G\u002A\u002A\u002A*%
G36*
X122455869Y-114775510D02*
G01*
X122407308Y-114988474D01*
X122327354Y-115285615D01*
X122286186Y-115427735D01*
X122193562Y-115726471D01*
X122120714Y-115933732D01*
X122078176Y-116020900D01*
X122071571Y-116010667D01*
X122090498Y-115876450D01*
X122143973Y-115649957D01*
X122218785Y-115375829D01*
X122301722Y-115098706D01*
X122379574Y-114863227D01*
X122439128Y-114714034D01*
X122463753Y-114685531D01*
X122455869Y-114775510D01*
G37*
G36*
X123585619Y-114802453D02*
G01*
X123560406Y-114993353D01*
X123490407Y-115231234D01*
X123397589Y-115460263D01*
X123303921Y-115624610D01*
X123243473Y-115672000D01*
X123168943Y-115614311D01*
X123168000Y-115603515D01*
X123122790Y-115487748D01*
X123050766Y-115374705D01*
X122979828Y-115297329D01*
X122911488Y-115303168D01*
X122816749Y-115413144D01*
X122666613Y-115648179D01*
X122662504Y-115654856D01*
X122504669Y-115899254D01*
X122392214Y-116051132D01*
X122338346Y-116097223D01*
X122356270Y-116024263D01*
X122413645Y-115904833D01*
X122528761Y-115712572D01*
X122689459Y-115477505D01*
X122727118Y-115426250D01*
X122942322Y-115138166D01*
X123099611Y-115332410D01*
X123214829Y-115452649D01*
X123298821Y-115461844D01*
X123372029Y-115342666D01*
X123454893Y-115077782D01*
X123471359Y-115017204D01*
X123532192Y-114826131D01*
X123574073Y-114760797D01*
X123585619Y-114802453D01*
G37*
G36*
X121862374Y-103596776D02*
G01*
X121935662Y-103686682D01*
X122029057Y-103908170D01*
X122063039Y-104220102D01*
X122037280Y-104554233D01*
X121951454Y-104842315D01*
X121941298Y-104862647D01*
X121874523Y-105014449D01*
X121878664Y-105136317D01*
X121968461Y-105287708D01*
X122082989Y-105434147D01*
X122302207Y-105665813D01*
X122488986Y-105751419D01*
X122678861Y-105699995D01*
X122798257Y-105615951D01*
X123028614Y-105356036D01*
X123144977Y-105022743D01*
X123168000Y-104711808D01*
X123155747Y-104487218D01*
X123099607Y-104315858D01*
X122970508Y-104141455D01*
X122765833Y-103933363D01*
X122593076Y-103754871D01*
X122512296Y-103648068D01*
X122538736Y-103633637D01*
X122548418Y-103638357D01*
X122763626Y-103804082D01*
X123005508Y-104073508D01*
X123245473Y-104403118D01*
X123454930Y-104749397D01*
X123605287Y-105068826D01*
X123667954Y-105317890D01*
X123668175Y-105342667D01*
X123641460Y-105351816D01*
X123578516Y-105229379D01*
X123540846Y-105133045D01*
X123422630Y-104851296D01*
X123330507Y-104714565D01*
X123271459Y-104728946D01*
X123252350Y-104881233D01*
X123185212Y-105196186D01*
X123012568Y-105500475D01*
X122776434Y-105729909D01*
X122655039Y-105793789D01*
X122481294Y-105885119D01*
X122451347Y-105988688D01*
X122569205Y-106125509D01*
X122742548Y-106252833D01*
X122967673Y-106392445D01*
X123121722Y-106425318D01*
X123269252Y-106346090D01*
X123428513Y-106195846D01*
X123579180Y-106062239D01*
X123666895Y-106017464D01*
X123676000Y-106030361D01*
X123621048Y-106139822D01*
X123486164Y-106301600D01*
X123460072Y-106328291D01*
X123233735Y-106484568D01*
X122997942Y-106499768D01*
X122742268Y-106368692D01*
X122456291Y-106086143D01*
X122147935Y-105673986D01*
X121839459Y-105276689D01*
X121553738Y-105031513D01*
X121274573Y-104925785D01*
X121183264Y-104919333D01*
X120964521Y-104993765D01*
X120803289Y-105177603D01*
X120741260Y-105411661D01*
X120758355Y-105522570D01*
X120816440Y-105646544D01*
X120947588Y-105893942D01*
X121139224Y-106242105D01*
X121378776Y-106668373D01*
X121653670Y-107150087D01*
X121853150Y-107495656D01*
X122150064Y-108008878D01*
X122425825Y-108487823D01*
X122666626Y-108908331D01*
X122858663Y-109246243D01*
X122988128Y-109477400D01*
X123031713Y-109558041D01*
X123145431Y-109724092D01*
X123246407Y-109785969D01*
X123264009Y-109780656D01*
X123320000Y-109811568D01*
X123327658Y-109997321D01*
X123323903Y-110045057D01*
X123328616Y-110278139D01*
X123387042Y-110395137D01*
X123394808Y-110398549D01*
X123497714Y-110352320D01*
X123673677Y-110188893D01*
X123902757Y-109932580D01*
X124165014Y-109607695D01*
X124440509Y-109238552D01*
X124709301Y-108849464D01*
X124867905Y-108602333D01*
X125112213Y-108181897D01*
X125297898Y-107808317D01*
X125414484Y-107507052D01*
X125451493Y-107303558D01*
X125429685Y-107237463D01*
X125320210Y-107239219D01*
X125125114Y-107344192D01*
X124873546Y-107531091D01*
X124594654Y-107778627D01*
X124359282Y-108019276D01*
X124097819Y-108344631D01*
X123831750Y-108738425D01*
X123629516Y-109094973D01*
X123499769Y-109345738D01*
X123412232Y-109494638D01*
X123379892Y-109520584D01*
X123385451Y-109491333D01*
X123551023Y-109076102D01*
X123817559Y-108611751D01*
X124148709Y-108148249D01*
X124508122Y-107735565D01*
X124859450Y-107423670D01*
X124920530Y-107381090D01*
X125150729Y-107237290D01*
X125327254Y-107142709D01*
X125391952Y-107120666D01*
X125605080Y-107193705D01*
X125861159Y-107393855D01*
X126136242Y-107692671D01*
X126406382Y-108061708D01*
X126647630Y-108472518D01*
X126792503Y-108784314D01*
X126898122Y-109095679D01*
X126994043Y-109471928D01*
X127072300Y-109867079D01*
X127124926Y-110235152D01*
X127143956Y-110530165D01*
X127124262Y-110699334D01*
X127018931Y-110823900D01*
X126822432Y-110962944D01*
X126758676Y-110997911D01*
X126446136Y-111158254D01*
X126874801Y-111209023D01*
X127340739Y-111318417D01*
X127800947Y-111519619D01*
X128192533Y-111781275D01*
X128367451Y-111953136D01*
X128514626Y-112153741D01*
X128544541Y-112256890D01*
X128459728Y-112251346D01*
X128319303Y-112166969D01*
X128148738Y-112084248D01*
X127953878Y-112035590D01*
X127797070Y-112031042D01*
X127740000Y-112073622D01*
X127778012Y-112164804D01*
X127876123Y-112355889D01*
X127972581Y-112532485D01*
X128089572Y-112768936D01*
X128149143Y-112945139D01*
X128145759Y-113008463D01*
X128050048Y-112998076D01*
X127837472Y-112923667D01*
X127541943Y-112798282D01*
X127277866Y-112674561D01*
X126769392Y-112435076D01*
X126247434Y-112202999D01*
X125748057Y-111993213D01*
X125307329Y-111820599D01*
X124961315Y-111700038D01*
X124819000Y-111660007D01*
X124580394Y-111600409D01*
X124406891Y-111552785D01*
X124394125Y-111601075D01*
X124479802Y-111780310D01*
X124661108Y-112085710D01*
X124935229Y-112512497D01*
X125244413Y-112974972D01*
X125552311Y-113427954D01*
X125837023Y-113844180D01*
X126081663Y-114199172D01*
X126269346Y-114468456D01*
X126383188Y-114627555D01*
X126397356Y-114646251D01*
X126535308Y-114921904D01*
X126514572Y-115208806D01*
X126389876Y-115454624D01*
X126128948Y-115749105D01*
X125845178Y-115894283D01*
X125560112Y-115885563D01*
X125295299Y-115718351D01*
X125271158Y-115693167D01*
X125083777Y-115473928D01*
X124924989Y-115263201D01*
X124919747Y-115255414D01*
X124840578Y-115116514D01*
X124841593Y-115109922D01*
X124946000Y-115109922D01*
X125009562Y-115263266D01*
X125167742Y-115459826D01*
X125371784Y-115652722D01*
X125572930Y-115795076D01*
X125706719Y-115841333D01*
X125876456Y-115783776D01*
X126088988Y-115638258D01*
X126182133Y-115553467D01*
X126351754Y-115365600D01*
X126455176Y-115215877D01*
X126470000Y-115171222D01*
X126395962Y-115049571D01*
X126209282Y-114920412D01*
X125963113Y-114810681D01*
X125710606Y-114747315D01*
X125621005Y-114740983D01*
X125352135Y-114782188D01*
X125117841Y-114887209D01*
X124970714Y-115027301D01*
X124946000Y-115109922D01*
X124841593Y-115109922D01*
X124855625Y-115018747D01*
X124984253Y-114902410D01*
X125050211Y-114853247D01*
X125406769Y-114689386D01*
X125804326Y-114670202D01*
X126162178Y-114783521D01*
X126339353Y-114870772D01*
X126438232Y-114909849D01*
X126440262Y-114910000D01*
X126427702Y-114851156D01*
X126332089Y-114697672D01*
X126179810Y-114484124D01*
X125997255Y-114245085D01*
X125810811Y-114015130D01*
X125646868Y-113828832D01*
X125533502Y-113721966D01*
X125175469Y-113531904D01*
X124851017Y-113488138D01*
X124580372Y-113589028D01*
X124393064Y-113814365D01*
X124320895Y-113981547D01*
X124324226Y-114117912D01*
X124412077Y-114295929D01*
X124463453Y-114379865D01*
X124631701Y-114651946D01*
X124725680Y-114810816D01*
X124761409Y-114886516D01*
X124754907Y-114909089D01*
X124746130Y-114910000D01*
X124686995Y-114842992D01*
X124560125Y-114662405D01*
X124386500Y-114398897D01*
X124256620Y-114194664D01*
X124028943Y-113850952D01*
X123861812Y-113640036D01*
X123761765Y-113569731D01*
X123743116Y-113580831D01*
X123700908Y-113578541D01*
X123679142Y-113437786D01*
X123678091Y-113386000D01*
X123677589Y-113089667D01*
X123938275Y-113544266D01*
X124198961Y-113998865D01*
X124358187Y-113737038D01*
X124573301Y-113496354D01*
X124847800Y-113400190D01*
X125198509Y-113445007D01*
X125403086Y-113517282D01*
X125463280Y-113515004D01*
X125431410Y-113413544D01*
X125301768Y-113199121D01*
X125221489Y-113078977D01*
X124986321Y-112745783D01*
X124804761Y-112532047D01*
X124644337Y-112411407D01*
X124472572Y-112357500D01*
X124317397Y-112345021D01*
X124008384Y-112401415D01*
X123781597Y-112569714D01*
X123674081Y-112819867D01*
X123670285Y-112869955D01*
X123653217Y-112949082D01*
X123609457Y-112865271D01*
X123553940Y-112677915D01*
X123467660Y-112424435D01*
X123412313Y-112318077D01*
X123539743Y-112318077D01*
X123549254Y-112370799D01*
X123625439Y-112499137D01*
X123714051Y-112541830D01*
X123760416Y-112474534D01*
X123760667Y-112464938D01*
X123834137Y-112372960D01*
X124010820Y-112289496D01*
X124225125Y-112236432D01*
X124411460Y-112235653D01*
X124431758Y-112241019D01*
X124569710Y-112265750D01*
X124607333Y-112247023D01*
X124563883Y-112138160D01*
X124457594Y-111958126D01*
X124324562Y-111760346D01*
X124200880Y-111598246D01*
X124122643Y-111525250D01*
X124119438Y-111524859D01*
X124034297Y-111585641D01*
X123884270Y-111739617D01*
X123776381Y-111864325D01*
X123592722Y-112125866D01*
X123539743Y-112318077D01*
X123412313Y-112318077D01*
X123372027Y-112240662D01*
X123326821Y-112192378D01*
X123254408Y-112131521D01*
X123324531Y-112117296D01*
X123450702Y-112058765D01*
X123624443Y-111914565D01*
X123676080Y-111861914D01*
X123913431Y-111607829D01*
X123813892Y-111431195D01*
X124389942Y-111431195D01*
X124447692Y-111461208D01*
X124587441Y-111501860D01*
X124607333Y-111507232D01*
X124951984Y-111615315D01*
X125401375Y-111777680D01*
X125907790Y-111974910D01*
X126423512Y-112187592D01*
X126900827Y-112396310D01*
X127292018Y-112581650D01*
X127443667Y-112661291D01*
X127755730Y-112830691D01*
X127948218Y-112923826D01*
X128047071Y-112951030D01*
X128078228Y-112922635D01*
X128078667Y-112914243D01*
X128039291Y-112819392D01*
X127938646Y-112630126D01*
X127860438Y-112493441D01*
X127722966Y-112212144D01*
X127710224Y-112039295D01*
X127825959Y-111964862D01*
X128053972Y-111975461D01*
X128239667Y-111996856D01*
X128288212Y-111968507D01*
X128246122Y-111902070D01*
X128059482Y-111753288D01*
X127762757Y-111595007D01*
X127411890Y-111451036D01*
X127062820Y-111345184D01*
X126845870Y-111306132D01*
X126597820Y-111294794D01*
X126230263Y-111296097D01*
X125792481Y-111309152D01*
X125333759Y-111333071D01*
X125327000Y-111333506D01*
X124882720Y-111362976D01*
X124590053Y-111386280D01*
X124431594Y-111407619D01*
X124389942Y-111431195D01*
X123813892Y-111431195D01*
X123679649Y-111192980D01*
X123760667Y-111192980D01*
X123838969Y-111233454D01*
X124049926Y-111258798D01*
X124357609Y-111269825D01*
X124726092Y-111267347D01*
X125119447Y-111252176D01*
X125501746Y-111225124D01*
X125837063Y-111187004D01*
X126082448Y-111140482D01*
X126398282Y-111044631D01*
X126683727Y-110935334D01*
X126819903Y-110868228D01*
X126978439Y-110747349D01*
X127048220Y-110591260D01*
X127062667Y-110362078D01*
X127053085Y-110141186D01*
X127028970Y-110012639D01*
X127016638Y-109999333D01*
X126931148Y-110052020D01*
X126778469Y-110182187D01*
X126741471Y-110216735D01*
X126334250Y-110515584D01*
X125802826Y-110752212D01*
X125134721Y-110930905D01*
X124317458Y-111055949D01*
X124289833Y-111058990D01*
X124015972Y-111099914D01*
X123824771Y-111149682D01*
X123760667Y-111192980D01*
X123679649Y-111192980D01*
X123543707Y-110951748D01*
X123369904Y-110643991D01*
X123331964Y-110577122D01*
X123474351Y-110577122D01*
X123484443Y-110660387D01*
X123617215Y-110664078D01*
X123707865Y-110644526D01*
X123997589Y-110500141D01*
X124318917Y-110216965D01*
X124654064Y-109818176D01*
X124985246Y-109326953D01*
X125294678Y-108766476D01*
X125509252Y-108296724D01*
X125629770Y-108019312D01*
X125715411Y-107846373D01*
X125755487Y-107797955D01*
X125752546Y-107840333D01*
X125631835Y-108232283D01*
X125429850Y-108680043D01*
X125168616Y-109150814D01*
X124870156Y-109611795D01*
X124556495Y-110030186D01*
X124249657Y-110373186D01*
X123971665Y-110607995D01*
X123849111Y-110675102D01*
X123672077Y-110782868D01*
X123591764Y-110899758D01*
X123591333Y-110907198D01*
X123617841Y-110970607D01*
X123719242Y-110999535D01*
X123928355Y-110997629D01*
X124205167Y-110975436D01*
X124619305Y-110924673D01*
X125064660Y-110851504D01*
X125369333Y-110788675D01*
X125993546Y-110585999D01*
X126507716Y-110303475D01*
X126802084Y-110049909D01*
X126921875Y-109904829D01*
X126966240Y-109770141D01*
X126946904Y-109578317D01*
X126911869Y-109417513D01*
X126711112Y-108803495D01*
X126410058Y-108208489D01*
X126044869Y-107702296D01*
X125994346Y-107646414D01*
X125802239Y-107450416D01*
X125659188Y-107323657D01*
X125599337Y-107293741D01*
X125554350Y-107389445D01*
X125474610Y-107589065D01*
X125427048Y-107715222D01*
X125278095Y-108038642D01*
X125046698Y-108448530D01*
X124760631Y-108902798D01*
X124447666Y-109359360D01*
X124135575Y-109776130D01*
X123852133Y-110111020D01*
X123831640Y-110132894D01*
X123589298Y-110404539D01*
X123474351Y-110577122D01*
X123331964Y-110577122D01*
X123223111Y-110385269D01*
X123126674Y-110216683D01*
X123107492Y-110183798D01*
X123032767Y-110132119D01*
X122898281Y-110177513D01*
X122744667Y-110274462D01*
X122557163Y-110440054D01*
X122470408Y-110630330D01*
X122485911Y-110872248D01*
X122605184Y-111192768D01*
X122818938Y-111599832D01*
X123005243Y-111932251D01*
X123114716Y-112140335D01*
X123156269Y-112245768D01*
X123138816Y-112270233D01*
X123083333Y-112243000D01*
X123025597Y-112278627D01*
X122999245Y-112450714D01*
X122998667Y-112489597D01*
X122979382Y-112771623D01*
X122928456Y-113100909D01*
X122856281Y-113435950D01*
X122773250Y-113735241D01*
X122689756Y-113957278D01*
X122616191Y-114060557D01*
X122604607Y-114063333D01*
X122500509Y-114107938D01*
X122490667Y-114138353D01*
X122421378Y-114218469D01*
X122248551Y-114326503D01*
X122182153Y-114359772D01*
X121934425Y-114451649D01*
X121714054Y-114450710D01*
X121552679Y-114410009D01*
X121463059Y-114362846D01*
X121633069Y-114362846D01*
X121759121Y-114386369D01*
X121967368Y-114342003D01*
X122195141Y-114249540D01*
X122379769Y-114128772D01*
X122382702Y-114126102D01*
X122533901Y-113934387D01*
X122674283Y-113674185D01*
X122702195Y-113606076D01*
X122783581Y-113334650D01*
X122853208Y-113002796D01*
X122905328Y-112656398D01*
X122934194Y-112341340D01*
X122934058Y-112103508D01*
X122904224Y-111993233D01*
X122842134Y-111984314D01*
X122829333Y-112059464D01*
X122784858Y-112314390D01*
X122666587Y-112659969D01*
X122497248Y-113047728D01*
X122299570Y-113429192D01*
X122096284Y-113755888D01*
X121945310Y-113944799D01*
X121764871Y-114146862D01*
X121653014Y-114299383D01*
X121633069Y-114362846D01*
X121463059Y-114362846D01*
X121229852Y-114240119D01*
X120877241Y-113923314D01*
X120508752Y-113476280D01*
X120138291Y-112915702D01*
X119911346Y-112503002D01*
X119944153Y-112503002D01*
X120273128Y-113011992D01*
X120505306Y-113344903D01*
X120756512Y-113662564D01*
X120999967Y-113935437D01*
X121208893Y-114133987D01*
X121356509Y-114228677D01*
X121379869Y-114232667D01*
X121520052Y-114189341D01*
X121684864Y-114098843D01*
X121924946Y-113870186D01*
X122173237Y-113506714D01*
X122410766Y-113040747D01*
X122615881Y-112512637D01*
X122721127Y-112145499D01*
X122775043Y-111841761D01*
X122775993Y-111628822D01*
X122722340Y-111534078D01*
X122673982Y-111539839D01*
X122575589Y-111587127D01*
X122366998Y-111688507D01*
X122090094Y-111823614D01*
X122039872Y-111848162D01*
X121673195Y-112005047D01*
X121225944Y-112164438D01*
X120783725Y-112296321D01*
X120703115Y-112316830D01*
X119944153Y-112503002D01*
X119911346Y-112503002D01*
X119810451Y-112319524D01*
X119599632Y-111899682D01*
X119466959Y-111599203D01*
X119464925Y-111590206D01*
X119527731Y-111590206D01*
X119569937Y-111713490D01*
X119673895Y-111907366D01*
X119802319Y-112111215D01*
X119917923Y-112264421D01*
X119969569Y-112308528D01*
X120189527Y-112324861D01*
X120537243Y-112270539D01*
X120988756Y-112150109D01*
X121247701Y-112065926D01*
X121715461Y-111889131D01*
X122098148Y-111711476D01*
X122372921Y-111545641D01*
X122516937Y-111404309D01*
X122533000Y-111352348D01*
X122516650Y-111279441D01*
X122447898Y-111249961D01*
X122297195Y-111265826D01*
X122034988Y-111328954D01*
X121771000Y-111401806D01*
X121374122Y-111481929D01*
X120870761Y-111535575D01*
X120395564Y-111555334D01*
X120035380Y-111561852D01*
X119748186Y-111571289D01*
X119569416Y-111582221D01*
X119527731Y-111590206D01*
X119464925Y-111590206D01*
X119418380Y-111384276D01*
X119423531Y-111364007D01*
X119469242Y-111364007D01*
X119527939Y-111427005D01*
X119580461Y-111449136D01*
X119825270Y-111498562D01*
X120189837Y-111513805D01*
X120628147Y-111495228D01*
X121094186Y-111443193D01*
X121136000Y-111436868D01*
X121555385Y-111356299D01*
X121922604Y-111256739D01*
X122205802Y-111149480D01*
X122373126Y-111045812D01*
X122404703Y-110987164D01*
X122323276Y-110784240D01*
X122097762Y-110633194D01*
X121747399Y-110541203D01*
X121291428Y-110515440D01*
X121153882Y-110520703D01*
X120788549Y-110557010D01*
X120507900Y-110634165D01*
X120227919Y-110778371D01*
X120128604Y-110840479D01*
X119868991Y-111014325D01*
X119654153Y-111170987D01*
X119551539Y-111257222D01*
X119469242Y-111364007D01*
X119423531Y-111364007D01*
X119459847Y-111221094D01*
X119597309Y-111075847D01*
X119836714Y-110914726D01*
X120084056Y-110764761D01*
X120401664Y-110592421D01*
X120693772Y-110492079D01*
X121043800Y-110438105D01*
X121186330Y-110426094D01*
X121804893Y-110380333D01*
X121479393Y-109855928D01*
X121703242Y-109855928D01*
X121715178Y-110024865D01*
X121815270Y-110240220D01*
X121964033Y-110442612D01*
X122121981Y-110572660D01*
X122192697Y-110592000D01*
X122314534Y-110535099D01*
X122474760Y-110397140D01*
X122484271Y-110387141D01*
X122704340Y-110204372D01*
X122923734Y-110079968D01*
X123082479Y-109973826D01*
X123077141Y-109860900D01*
X122912401Y-109748290D01*
X122644626Y-109656527D01*
X122353694Y-109619942D01*
X122062652Y-109648981D01*
X121827178Y-109731849D01*
X121703242Y-109855928D01*
X121479393Y-109855928D01*
X121000751Y-109084798D01*
X120755348Y-108682295D01*
X120937854Y-108682295D01*
X120960140Y-108802066D01*
X121057288Y-109016987D01*
X121208803Y-109282277D01*
X121222113Y-109303471D01*
X121547351Y-109817855D01*
X121870842Y-109649635D01*
X122198776Y-109532423D01*
X122448333Y-109521504D01*
X122688531Y-109571715D01*
X122859319Y-109623573D01*
X122932490Y-109634963D01*
X122931678Y-109567457D01*
X122850566Y-109396523D01*
X122757612Y-109228609D01*
X122508711Y-108846538D01*
X122259338Y-108600649D01*
X121974212Y-108461407D01*
X121791580Y-108419938D01*
X121503516Y-108415172D01*
X121224103Y-108477163D01*
X121012779Y-108587645D01*
X120937854Y-108682295D01*
X120755348Y-108682295D01*
X120623347Y-108465790D01*
X120281498Y-107883749D01*
X119985097Y-107357089D01*
X119913209Y-107222037D01*
X120035333Y-107222037D01*
X120075906Y-107333545D01*
X120184480Y-107551426D01*
X120341337Y-107837211D01*
X120424306Y-107980932D01*
X120813278Y-108644414D01*
X121028391Y-108475207D01*
X121271548Y-108352616D01*
X121522906Y-108306000D01*
X121800130Y-108333774D01*
X122031230Y-108393035D01*
X122201758Y-108448190D01*
X122282176Y-108456535D01*
X122254005Y-108377621D01*
X122159212Y-108191752D01*
X122017623Y-107937576D01*
X122002705Y-107911708D01*
X121692224Y-107476725D01*
X121335837Y-107187222D01*
X120901731Y-107019931D01*
X120739909Y-106988202D01*
X120448418Y-106978854D01*
X120205914Y-107036655D01*
X120058790Y-107146207D01*
X120035333Y-107222037D01*
X119913209Y-107222037D01*
X119744037Y-106904224D01*
X119568215Y-106543568D01*
X119467522Y-106293535D01*
X119447066Y-106193194D01*
X119477919Y-106197129D01*
X119555014Y-106330236D01*
X119662224Y-106564258D01*
X119671797Y-106586918D01*
X119892130Y-107111503D01*
X120128860Y-106989085D01*
X120477853Y-106880682D01*
X120859377Y-106911969D01*
X121206171Y-107036707D01*
X121412128Y-107120259D01*
X121531549Y-107149165D01*
X121544838Y-107136444D01*
X121491766Y-107037675D01*
X121373800Y-106830764D01*
X121212428Y-106553211D01*
X121138314Y-106427031D01*
X120865112Y-106008919D01*
X120610253Y-105732681D01*
X120344430Y-105577702D01*
X120038333Y-105523366D01*
X119859649Y-105527594D01*
X119623467Y-105556127D01*
X119503668Y-105620493D01*
X119447304Y-105755799D01*
X119436233Y-105808333D01*
X119404535Y-105946981D01*
X119378976Y-105955999D01*
X119347569Y-105820747D01*
X119321607Y-105668349D01*
X119316898Y-105485035D01*
X119340669Y-105485035D01*
X119805232Y-105446510D01*
X120095756Y-105440894D01*
X120335453Y-105468377D01*
X120427731Y-105499751D01*
X120591503Y-105581063D01*
X120660582Y-105550686D01*
X120679916Y-105406167D01*
X120719244Y-105195807D01*
X120801362Y-104947239D01*
X120806281Y-104935282D01*
X120872058Y-104738963D01*
X120860753Y-104581170D01*
X120763452Y-104378676D01*
X120742802Y-104342615D01*
X120535739Y-104084584D01*
X120294366Y-103936100D01*
X120058144Y-103916949D01*
X119967365Y-103953774D01*
X119819506Y-104107931D01*
X119661139Y-104373772D01*
X119518213Y-104697616D01*
X119416676Y-105025782D01*
X119394615Y-105138684D01*
X119340669Y-105485035D01*
X119316898Y-105485035D01*
X119310639Y-105241357D01*
X119396548Y-104785210D01*
X119560823Y-104345534D01*
X119784948Y-103967953D01*
X120050411Y-103698094D01*
X120144608Y-103640106D01*
X120267271Y-103584337D01*
X120260646Y-103617428D01*
X120226410Y-103655326D01*
X120182252Y-103744980D01*
X120266841Y-103823383D01*
X120372909Y-103872568D01*
X120590296Y-104023963D01*
X120792095Y-104259463D01*
X120931288Y-104515315D01*
X120966350Y-104677237D01*
X121046197Y-104797412D01*
X121241833Y-104854835D01*
X121477022Y-104899769D01*
X121650086Y-104952036D01*
X121775334Y-104933320D01*
X121877986Y-104786509D01*
X121950106Y-104552208D01*
X121983760Y-104271018D01*
X121971014Y-103983543D01*
X121903935Y-103730385D01*
X121893329Y-103707267D01*
X121835364Y-103580707D01*
X121862374Y-103596776D01*
G37*
G36*
X122652753Y-114232667D02*
G01*
X122612773Y-114413408D01*
X122575333Y-114486667D01*
X122510290Y-114554430D01*
X122497914Y-114529000D01*
X122526410Y-114392205D01*
X122580010Y-114264345D01*
X122631290Y-114197900D01*
X122652753Y-114232667D01*
G37*
G36*
X123651085Y-114042167D02*
G01*
X123665093Y-114288884D01*
X123651085Y-114423167D01*
X123630147Y-114463289D01*
X123616863Y-114356915D01*
X123614393Y-114232667D01*
X123620998Y-114049545D01*
X123637885Y-113999276D01*
X123651085Y-114042167D01*
G37*
G36*
X123733837Y-105580792D02*
G01*
X123743930Y-105713115D01*
X123727153Y-105743069D01*
X123688671Y-105717818D01*
X123682684Y-105631944D01*
X123703361Y-105541602D01*
X123733837Y-105580792D01*
G37*
G36*
X138276000Y-87080495D02*
G01*
X137260000Y-87142259D01*
X136412756Y-87234340D01*
X135676995Y-87409378D01*
X135008866Y-87682912D01*
X134364516Y-88070481D01*
X134104013Y-88260614D01*
X133849597Y-88466890D01*
X133722247Y-88595373D01*
X133722645Y-88638176D01*
X133851475Y-88587410D01*
X134087720Y-88448949D01*
X134507636Y-88224906D01*
X135038118Y-88003598D01*
X135621510Y-87807101D01*
X136091199Y-87681764D01*
X136394757Y-87620533D01*
X136745139Y-87563802D01*
X137106120Y-87515501D01*
X137441475Y-87479563D01*
X137714981Y-87459919D01*
X137890413Y-87460500D01*
X137934420Y-87481713D01*
X137839933Y-87513600D01*
X137619745Y-87549177D01*
X137317172Y-87581792D01*
X137241730Y-87588077D01*
X136693806Y-87656635D01*
X136124095Y-87772448D01*
X135557070Y-87925801D01*
X135017204Y-88106978D01*
X134528969Y-88306265D01*
X134116841Y-88513947D01*
X133805291Y-88720310D01*
X133618794Y-88915638D01*
X133575695Y-89043333D01*
X133523227Y-89229815D01*
X133407666Y-89424333D01*
X133290032Y-89605728D01*
X133240215Y-89743648D01*
X133169097Y-89851172D01*
X133005500Y-89954282D01*
X132806063Y-90066574D01*
X132683976Y-90171189D01*
X132541060Y-90244713D01*
X132283824Y-90282541D01*
X132186412Y-90285110D01*
X131777537Y-90285110D01*
X132076504Y-90531544D01*
X132306245Y-90758246D01*
X132536753Y-91042406D01*
X132616402Y-91159337D01*
X132813262Y-91418745D01*
X132998680Y-91526381D01*
X133207429Y-91493377D01*
X133372639Y-91401426D01*
X133561053Y-91233469D01*
X133708542Y-91023186D01*
X133800128Y-90810192D01*
X133820833Y-90634104D01*
X133755679Y-90534536D01*
X133704000Y-90524999D01*
X133530698Y-90456865D01*
X133358917Y-90296013D01*
X133250970Y-90107772D01*
X133239629Y-90038166D01*
X133302197Y-89802846D01*
X133496000Y-89665754D01*
X133577848Y-89641869D01*
X133811018Y-89633757D01*
X133954337Y-89720237D01*
X133973238Y-89878288D01*
X133965782Y-89900248D01*
X133907083Y-90002295D01*
X133841755Y-89949230D01*
X133829970Y-89930667D01*
X133742139Y-89852604D01*
X133648258Y-89911874D01*
X133590420Y-90014736D01*
X133648847Y-90109157D01*
X133839337Y-90206005D01*
X134177685Y-90316148D01*
X134276337Y-90344021D01*
X134711737Y-90482189D01*
X135015143Y-90627623D01*
X135223104Y-90803954D01*
X135372165Y-91034811D01*
X135384677Y-91060621D01*
X135506928Y-91479633D01*
X135463439Y-91874782D01*
X135253367Y-92248231D01*
X134875867Y-92602144D01*
X134747117Y-92693295D01*
X134564919Y-92802378D01*
X134355367Y-92895272D01*
X134086848Y-92981513D01*
X133727746Y-93070642D01*
X133246448Y-93172197D01*
X132995725Y-93221734D01*
X132455037Y-93322390D01*
X131894951Y-93418473D01*
X131370318Y-93501093D01*
X130935988Y-93561360D01*
X130807354Y-93576408D01*
X130432639Y-93619521D01*
X130107514Y-93661706D01*
X129878414Y-93696710D01*
X129809333Y-93710854D01*
X129546567Y-93773034D01*
X129375826Y-93786944D01*
X129228390Y-93757570D01*
X129216666Y-93753861D01*
X129026466Y-93676059D01*
X128792619Y-93560384D01*
X128774440Y-93550547D01*
X128598222Y-93465599D01*
X128537781Y-93472888D01*
X128547379Y-93521104D01*
X128547382Y-93655409D01*
X128442027Y-93693946D01*
X128284049Y-93624864D01*
X128168063Y-93474735D01*
X128194751Y-93337789D01*
X128339839Y-93255515D01*
X128501598Y-93253068D01*
X128677329Y-93266444D01*
X128729557Y-93205464D01*
X128706653Y-93055833D01*
X128706689Y-93030999D01*
X128822562Y-93030999D01*
X128885226Y-93274023D01*
X128983430Y-93424833D01*
X129195961Y-93562143D01*
X129417361Y-93544709D01*
X129602647Y-93381309D01*
X129767000Y-93381309D01*
X129783828Y-93521600D01*
X129867962Y-93562061D01*
X130042166Y-93536859D01*
X130327398Y-93490320D01*
X130571333Y-93463749D01*
X130748754Y-93428446D01*
X130827585Y-93319763D01*
X130852514Y-93162119D01*
X130850895Y-92975371D01*
X130837382Y-92961772D01*
X130978507Y-92961772D01*
X131027660Y-93164855D01*
X131084824Y-93240400D01*
X131266930Y-93382710D01*
X131446883Y-93373953D01*
X131534680Y-93327169D01*
X131604457Y-93205551D01*
X131581927Y-93137965D01*
X131552061Y-93066126D01*
X131632715Y-93115152D01*
X131634580Y-93116586D01*
X131821846Y-93191551D01*
X132080303Y-93219842D01*
X132338907Y-93201933D01*
X132526618Y-93138298D01*
X132558444Y-93110412D01*
X132609664Y-92975172D01*
X132602523Y-92817008D01*
X132559354Y-92720293D01*
X132740845Y-92720293D01*
X132764739Y-92946014D01*
X132834399Y-93050532D01*
X132975127Y-93099794D01*
X133191134Y-93101806D01*
X133396539Y-93061297D01*
X133483231Y-93014821D01*
X133463673Y-92935288D01*
X133398565Y-92841517D01*
X133326799Y-92743443D01*
X133379574Y-92752519D01*
X133450901Y-92789271D01*
X133681732Y-92840405D01*
X133964175Y-92815681D01*
X134204002Y-92725297D01*
X134233166Y-92704604D01*
X134338939Y-92543061D01*
X134298503Y-92384748D01*
X134127569Y-92282460D01*
X134106166Y-92277777D01*
X133862371Y-92266109D01*
X133551992Y-92296846D01*
X133236240Y-92358465D01*
X132976323Y-92439444D01*
X132844650Y-92515254D01*
X132740845Y-92720293D01*
X132559354Y-92720293D01*
X132550479Y-92700410D01*
X132470237Y-92687767D01*
X132397858Y-92671746D01*
X132391666Y-92637049D01*
X132351759Y-92589902D01*
X132218548Y-92575743D01*
X131971795Y-92595704D01*
X131591264Y-92650913D01*
X131315053Y-92697154D01*
X131079049Y-92794678D01*
X130978507Y-92961772D01*
X130837382Y-92961772D01*
X130802543Y-92926712D01*
X130794864Y-92930666D01*
X130683391Y-92928821D01*
X130662301Y-92905862D01*
X130554342Y-92871142D01*
X130354549Y-92890260D01*
X130126541Y-92949912D01*
X129933937Y-93036799D01*
X129891599Y-93066991D01*
X129794083Y-93227923D01*
X129767000Y-93381309D01*
X129602647Y-93381309D01*
X129605114Y-93379133D01*
X129637825Y-93323204D01*
X129746361Y-93064017D01*
X129742469Y-92891366D01*
X129623181Y-92762587D01*
X129597666Y-92745981D01*
X129465534Y-92692638D01*
X129428333Y-92725615D01*
X129357427Y-92794986D01*
X129259000Y-92810999D01*
X129116020Y-92769140D01*
X129103717Y-92680004D01*
X129195500Y-92613072D01*
X129210388Y-92578677D01*
X129112446Y-92563683D01*
X128943472Y-92627098D01*
X128844411Y-92799113D01*
X128822562Y-93030999D01*
X128706689Y-93030999D01*
X128707035Y-92790635D01*
X128807924Y-92574165D01*
X128975098Y-92438126D01*
X129174335Y-92414218D01*
X129321248Y-92486504D01*
X129419901Y-92553523D01*
X129418839Y-92491811D01*
X129401491Y-92443300D01*
X129337706Y-92238180D01*
X129293900Y-92062300D01*
X129286874Y-92032428D01*
X134357800Y-92032428D01*
X134367545Y-92170600D01*
X134474968Y-92289946D01*
X134617157Y-92273889D01*
X134743477Y-92133245D01*
X134764428Y-92085821D01*
X134843109Y-91714909D01*
X134818530Y-91342656D01*
X134696464Y-91036378D01*
X134671521Y-91002084D01*
X134521981Y-90843681D01*
X134413801Y-90781340D01*
X134375881Y-90821893D01*
X134420687Y-90942766D01*
X134498403Y-91228125D01*
X134487784Y-91568201D01*
X134412536Y-91827950D01*
X134357800Y-92032428D01*
X129286874Y-92032428D01*
X129229781Y-91789670D01*
X129181208Y-91661038D01*
X129133538Y-91653779D01*
X129079765Y-91731499D01*
X128925851Y-91848872D01*
X128740584Y-91879666D01*
X128559792Y-91856998D01*
X128508366Y-91773470D01*
X128513118Y-91731499D01*
X128597154Y-91605540D01*
X128667492Y-91583333D01*
X128767586Y-91637368D01*
X128773182Y-91686119D01*
X128813625Y-91751478D01*
X128883172Y-91738965D01*
X128982244Y-91626193D01*
X128985815Y-91551512D01*
X128921327Y-91462801D01*
X128750355Y-91421196D01*
X128552576Y-91413999D01*
X128246967Y-91387401D01*
X128068479Y-91300951D01*
X128037417Y-91265833D01*
X127888203Y-91144767D01*
X127787350Y-91117666D01*
X127653228Y-91047781D01*
X127650974Y-91044600D01*
X128331413Y-91044600D01*
X128397581Y-91163331D01*
X128602833Y-91225752D01*
X128812600Y-91253278D01*
X128941903Y-91272939D01*
X128944478Y-91273449D01*
X128963134Y-91223240D01*
X128921371Y-91119606D01*
X128768010Y-90929746D01*
X128589650Y-90840214D01*
X128436142Y-90874632D01*
X128425303Y-90884562D01*
X128331413Y-91044600D01*
X127650974Y-91044600D01*
X127545728Y-90896051D01*
X127500176Y-90757854D01*
X127828388Y-90757854D01*
X127866584Y-90881931D01*
X127876111Y-90891888D01*
X128003897Y-90942356D01*
X128147608Y-90834210D01*
X128152077Y-90828870D01*
X128196450Y-90702528D01*
X128112372Y-90637790D01*
X127954307Y-90660783D01*
X127828388Y-90757854D01*
X127500176Y-90757854D01*
X127493335Y-90737099D01*
X127533858Y-90615692D01*
X127688182Y-90465046D01*
X127901262Y-90330494D01*
X128144773Y-90291845D01*
X128465358Y-90345902D01*
X128646425Y-90399375D01*
X128781948Y-90425548D01*
X128797217Y-90355743D01*
X128779600Y-90302370D01*
X128687151Y-90138827D01*
X128630175Y-90081796D01*
X128619126Y-90028950D01*
X128708666Y-90009856D01*
X128813161Y-89997070D01*
X128762567Y-89968647D01*
X128682503Y-89945060D01*
X128538793Y-89863475D01*
X128530207Y-89773210D01*
X128655533Y-89727144D01*
X128687500Y-89727388D01*
X128812575Y-89680662D01*
X128835666Y-89621555D01*
X128903746Y-89521929D01*
X128962666Y-89508999D01*
X129075026Y-89571770D01*
X129089666Y-89626262D01*
X129154584Y-89751544D01*
X129310714Y-89888360D01*
X129311115Y-89888623D01*
X129478561Y-89980324D01*
X129586337Y-89968868D01*
X129655829Y-89910455D01*
X129734807Y-89791287D01*
X129673784Y-89677832D01*
X129665645Y-89669261D01*
X129581741Y-89499093D01*
X129557698Y-89318499D01*
X129523731Y-89135134D01*
X129443824Y-89085666D01*
X129361905Y-89028190D01*
X129360397Y-88840935D01*
X129361726Y-88831666D01*
X129384864Y-88653961D01*
X129388954Y-88577716D01*
X129388757Y-88577666D01*
X129306129Y-88634618D01*
X129154027Y-88776817D01*
X128973563Y-88961274D01*
X128805852Y-89144999D01*
X128692005Y-89285004D01*
X128666333Y-89333046D01*
X128592790Y-89397130D01*
X128415585Y-89424325D01*
X128412333Y-89424333D01*
X128230806Y-89401551D01*
X128164399Y-89304711D01*
X128158333Y-89212666D01*
X128182070Y-89066866D01*
X128286938Y-89009222D01*
X128439908Y-89000999D01*
X128742138Y-88921967D01*
X128987278Y-88704233D01*
X129132631Y-88408333D01*
X129246217Y-88145097D01*
X129424228Y-88000111D01*
X129655519Y-87934168D01*
X129924621Y-87925292D01*
X130160827Y-88035156D01*
X130193916Y-88058928D01*
X130393266Y-88180743D01*
X130555542Y-88238309D01*
X130567904Y-88238999D01*
X130670258Y-88309618D01*
X130698333Y-88492999D01*
X130724296Y-88671318D01*
X130786856Y-88746979D01*
X130787996Y-88746999D01*
X130838562Y-88798869D01*
X130825333Y-88831666D01*
X130844527Y-88904149D01*
X130905003Y-88916333D01*
X131015746Y-88949169D01*
X131027843Y-88979833D01*
X131055120Y-89177858D01*
X131161561Y-89349645D01*
X131302956Y-89424314D01*
X131305079Y-89424333D01*
X131495962Y-89462512D01*
X131712554Y-89550413D01*
X132002727Y-89633582D01*
X132203092Y-89627147D01*
X132376424Y-89567406D01*
X132421719Y-89456246D01*
X132412212Y-89381074D01*
X132418968Y-89224283D01*
X132549160Y-89160019D01*
X132573635Y-89156172D01*
X132750390Y-89062943D01*
X132799721Y-88937499D01*
X132861184Y-88777788D01*
X132959036Y-88759197D01*
X133024381Y-88827968D01*
X133120909Y-88875970D01*
X133291680Y-88810690D01*
X133438845Y-88704666D01*
X133577000Y-88704666D01*
X133619333Y-88746999D01*
X133661666Y-88704666D01*
X133619333Y-88662333D01*
X133577000Y-88704666D01*
X133438845Y-88704666D01*
X133548498Y-88625667D01*
X133814935Y-88395160D01*
X134226649Y-88079770D01*
X134746753Y-87765829D01*
X135316781Y-87483648D01*
X135878268Y-87263538D01*
X136155955Y-87181507D01*
X136552865Y-87112189D01*
X137047458Y-87072844D01*
X137468288Y-87067080D01*
X138276000Y-87080495D01*
G37*
G36*
X140018933Y-86122333D02*
G01*
X140181971Y-86260421D01*
X140328199Y-86306446D01*
X140334856Y-86305306D01*
X140420736Y-86308697D01*
X140376245Y-86389973D01*
X140284937Y-86613595D01*
X140349255Y-86839027D01*
X140558430Y-87036674D01*
X140625500Y-87074885D01*
X140857861Y-87218091D01*
X140930448Y-87330815D01*
X140847224Y-87425745D01*
X140749020Y-87470275D01*
X140540214Y-87593303D01*
X140431520Y-87695698D01*
X140354603Y-87802856D01*
X140403470Y-87807530D01*
X140477333Y-87779607D01*
X140898824Y-87616158D01*
X141307045Y-87467054D01*
X141666938Y-87344212D01*
X141943445Y-87259549D01*
X142101508Y-87224983D01*
X142109604Y-87224742D01*
X142100121Y-87249748D01*
X141956305Y-87315612D01*
X141704912Y-87410995D01*
X141510053Y-87478867D01*
X140968091Y-87672040D01*
X140584668Y-87831426D01*
X140353077Y-87960222D01*
X140266609Y-88061624D01*
X140265666Y-88071840D01*
X140274037Y-88126067D01*
X140317761Y-88142008D01*
X140424760Y-88110930D01*
X140622952Y-88024099D01*
X140940258Y-87872783D01*
X141010414Y-87838877D01*
X141376220Y-87672895D01*
X141664494Y-87576381D01*
X141942939Y-87531733D01*
X142231698Y-87521377D01*
X142800731Y-87519333D01*
X143334643Y-88048499D01*
X143577910Y-88284154D01*
X143775895Y-88465804D01*
X143898444Y-88566227D01*
X143920778Y-88577666D01*
X143937184Y-88506267D01*
X143913641Y-88328711D01*
X143862305Y-88099960D01*
X143795327Y-87874975D01*
X143731130Y-87720032D01*
X143504832Y-87474565D01*
X143131939Y-87303139D01*
X142739538Y-87222641D01*
X142255333Y-87160535D01*
X142660872Y-87149434D01*
X143050355Y-87190716D01*
X143414826Y-87319640D01*
X143698413Y-87512337D01*
X143798908Y-87635594D01*
X143880547Y-87832380D01*
X143948402Y-88096569D01*
X143957640Y-88149036D01*
X144048141Y-88469972D01*
X144182770Y-88629931D01*
X144348531Y-88627344D01*
X144532432Y-88460644D01*
X144670339Y-88235068D01*
X144774699Y-88008892D01*
X144797473Y-87870593D01*
X144745462Y-87763608D01*
X144729366Y-87744109D01*
X144602809Y-87554727D01*
X144555172Y-87451435D01*
X144547396Y-87352000D01*
X144641837Y-87378240D01*
X144842540Y-87531407D01*
X144858833Y-87545333D01*
X144970666Y-87627164D01*
X145005145Y-87587294D01*
X145007000Y-87535112D01*
X145058510Y-87437733D01*
X145133513Y-87446195D01*
X145215394Y-87531990D01*
X145205098Y-87583619D01*
X145204097Y-87631950D01*
X145247918Y-87612084D01*
X145323788Y-87488460D01*
X145345666Y-87345002D01*
X145383545Y-87185537D01*
X145523618Y-87140972D01*
X145536166Y-87141025D01*
X145668228Y-87151673D01*
X145646123Y-87202410D01*
X145570021Y-87262392D01*
X145467657Y-87384971D01*
X145464715Y-87464134D01*
X145450101Y-87562713D01*
X145409694Y-87588129D01*
X145399466Y-87663720D01*
X145520417Y-87820804D01*
X145640633Y-87937960D01*
X145830484Y-88124477D01*
X145902558Y-88238646D01*
X145873530Y-88311057D01*
X145852300Y-88326302D01*
X145656146Y-88397964D01*
X145574457Y-88407036D01*
X145404934Y-88474293D01*
X145216795Y-88634466D01*
X145066662Y-88828772D01*
X145010827Y-88992196D01*
X145079711Y-89101556D01*
X145257790Y-89263777D01*
X145508288Y-89445890D01*
X145539994Y-89466566D01*
X146001074Y-89755330D01*
X146347252Y-89954109D01*
X146573940Y-90061211D01*
X146676549Y-90074945D01*
X146650490Y-89993618D01*
X146493797Y-89818161D01*
X146323799Y-89619351D01*
X146284269Y-89505431D01*
X146370128Y-89489390D01*
X146576294Y-89584216D01*
X146583626Y-89588520D01*
X146773287Y-89690077D01*
X146847879Y-89697188D01*
X146840283Y-89639217D01*
X146851027Y-89527999D01*
X146919654Y-89508999D01*
X147003212Y-89554003D01*
X146988581Y-89606748D01*
X146978602Y-89664685D01*
X147025918Y-89644084D01*
X147110517Y-89503071D01*
X147107685Y-89281776D01*
X147036021Y-89080100D01*
X146991621Y-88945310D01*
X147036021Y-88916333D01*
X147112122Y-88985518D01*
X147123666Y-89053207D01*
X147173126Y-89150806D01*
X147300793Y-89143762D01*
X147422132Y-89123621D01*
X147402024Y-89185431D01*
X147357904Y-89239721D01*
X147234616Y-89482661D01*
X147279536Y-89715672D01*
X147491615Y-89933871D01*
X147509873Y-89946550D01*
X147714071Y-90117649D01*
X147794546Y-90257148D01*
X147743481Y-90342535D01*
X147652833Y-90358359D01*
X147467595Y-90410043D01*
X147346790Y-90480625D01*
X147211305Y-90620703D01*
X147084562Y-90807630D01*
X146999279Y-90984444D01*
X146988179Y-91094184D01*
X146991775Y-91098664D01*
X146985460Y-91193333D01*
X146914538Y-91366683D01*
X146910256Y-91375037D01*
X146846304Y-91610095D01*
X146929672Y-91794511D01*
X147166352Y-91933897D01*
X147562337Y-92033861D01*
X147625076Y-92044136D01*
X147920647Y-92102707D01*
X148152007Y-92171298D01*
X148260076Y-92228436D01*
X148295624Y-92291710D01*
X148195413Y-92269722D01*
X148182000Y-92264786D01*
X147976511Y-92215279D01*
X147692033Y-92179533D01*
X147377728Y-92159370D01*
X147082757Y-92156615D01*
X146856283Y-92173090D01*
X146747468Y-92210618D01*
X146746848Y-92211567D01*
X146763098Y-92288194D01*
X146833950Y-92302999D01*
X146952630Y-92344703D01*
X147161802Y-92453035D01*
X147420703Y-92602831D01*
X147688572Y-92768922D01*
X147924643Y-92926143D01*
X148088156Y-93049327D01*
X148139666Y-93109132D01*
X148070579Y-93145177D01*
X148012666Y-93149666D01*
X147899975Y-93105263D01*
X147885666Y-93067480D01*
X147812174Y-92982770D01*
X147621102Y-92867690D01*
X147356562Y-92742173D01*
X147062662Y-92626154D01*
X146783511Y-92539568D01*
X146658000Y-92512655D01*
X146225982Y-92432464D01*
X145936764Y-92355308D01*
X145764351Y-92270712D01*
X145682748Y-92168204D01*
X145668827Y-92114130D01*
X145598549Y-91973750D01*
X145412029Y-91867866D01*
X145269579Y-91821266D01*
X145001293Y-91721490D01*
X144780194Y-91601758D01*
X144731324Y-91563897D01*
X144534566Y-91460273D01*
X144263748Y-91401391D01*
X144214745Y-91397906D01*
X143805014Y-91381893D01*
X143526991Y-91383576D01*
X143343365Y-91410357D01*
X143216825Y-91469640D01*
X143110059Y-91568828D01*
X143059666Y-91627099D01*
X142802348Y-91837558D01*
X142551666Y-91935568D01*
X142362722Y-91965789D01*
X142310761Y-91943977D01*
X142367785Y-91856239D01*
X142374731Y-91847759D01*
X142510680Y-91748129D01*
X142597974Y-91742475D01*
X142719475Y-91717599D01*
X142879861Y-91605247D01*
X143035670Y-91449641D01*
X143143437Y-91295007D01*
X143159702Y-91185569D01*
X143153294Y-91177427D01*
X143030753Y-91171345D01*
X142813835Y-91294040D01*
X142747645Y-91343132D01*
X142367318Y-91621476D01*
X142095867Y-91786244D01*
X141922325Y-91843488D01*
X141863899Y-91830884D01*
X141875934Y-91767462D01*
X142011538Y-91672474D01*
X142100235Y-91628817D01*
X142361968Y-91464253D01*
X142611439Y-91234563D01*
X142668104Y-91166321D01*
X142839893Y-90968872D01*
X142979417Y-90891987D01*
X143111492Y-90900816D01*
X143267498Y-90910867D01*
X143313604Y-90818798D01*
X143313666Y-90812579D01*
X143339257Y-90722018D01*
X143430437Y-90770510D01*
X143520602Y-90808662D01*
X143575140Y-90711537D01*
X143592798Y-90632710D01*
X143595837Y-90440876D01*
X143539528Y-90363225D01*
X143341605Y-90236865D01*
X143136413Y-90022668D01*
X142970279Y-89779236D01*
X142889531Y-89565168D01*
X142888288Y-89547720D01*
X142975000Y-89547720D01*
X143056615Y-89834685D01*
X143289259Y-90096219D01*
X143424903Y-90190547D01*
X143642919Y-90313700D01*
X143767948Y-90346760D01*
X143845668Y-90296824D01*
X143870890Y-90259850D01*
X143858980Y-90146684D01*
X143791220Y-90086310D01*
X143753183Y-90041084D01*
X144583666Y-90041084D01*
X144653273Y-90096773D01*
X144833928Y-90199923D01*
X145035897Y-90303050D01*
X145311482Y-90453728D01*
X145541989Y-90607308D01*
X145641686Y-90693986D01*
X145842432Y-90822284D01*
X146084467Y-90859230D01*
X146294637Y-90799098D01*
X146351000Y-90749518D01*
X146377481Y-90615186D01*
X146246352Y-90459579D01*
X145953492Y-90278157D01*
X145896000Y-90248758D01*
X145722803Y-90187524D01*
X145469291Y-90126499D01*
X145182267Y-90073090D01*
X144908536Y-90034704D01*
X144694903Y-90018748D01*
X144588175Y-90032628D01*
X144583666Y-90041084D01*
X143753183Y-90041084D01*
X143672480Y-89945129D01*
X143652333Y-89853826D01*
X143581263Y-89653890D01*
X143361510Y-89512304D01*
X143207359Y-89464294D01*
X143037299Y-89442612D01*
X142977733Y-89508098D01*
X142975000Y-89547720D01*
X142888288Y-89547720D01*
X142887640Y-89538633D01*
X142858804Y-89412544D01*
X144811435Y-89412544D01*
X144844022Y-89606638D01*
X144856249Y-89631437D01*
X145020935Y-89847189D01*
X145239422Y-89928122D01*
X145303333Y-89931300D01*
X145465282Y-89967269D01*
X145719814Y-90059517D01*
X145980666Y-90173776D01*
X146297569Y-90306728D01*
X146491690Y-90348180D01*
X146546580Y-90325721D01*
X146573195Y-90196181D01*
X146562750Y-90169208D01*
X146450121Y-90102378D01*
X146437594Y-90101666D01*
X146332412Y-90056654D01*
X146128838Y-89937379D01*
X145866642Y-89767483D01*
X145804774Y-89725477D01*
X145518564Y-89537575D01*
X145265815Y-89385841D01*
X145094857Y-89299038D01*
X145078279Y-89293083D01*
X144898143Y-89294887D01*
X144811435Y-89412544D01*
X142858804Y-89412544D01*
X142816871Y-89229188D01*
X142626724Y-89023731D01*
X142357372Y-88946726D01*
X142090323Y-88915715D01*
X141789382Y-88855213D01*
X141747333Y-88844419D01*
X141513728Y-88796580D01*
X141367569Y-88819702D01*
X141252136Y-88909407D01*
X141171997Y-89000200D01*
X141179617Y-89059192D01*
X141301229Y-89109538D01*
X141548469Y-89170969D01*
X141922392Y-89278425D01*
X142139645Y-89391136D01*
X142212886Y-89515775D01*
X142213000Y-89521318D01*
X142153315Y-89539377D01*
X142022500Y-89478690D01*
X141791961Y-89368633D01*
X141582889Y-89301707D01*
X141383038Y-89279945D01*
X141104428Y-89279733D01*
X140792578Y-89297011D01*
X140493010Y-89327721D01*
X140251242Y-89367802D01*
X140112797Y-89413195D01*
X140096333Y-89434280D01*
X140166839Y-89496356D01*
X140254728Y-89508999D01*
X140411288Y-89541409D01*
X140652986Y-89625544D01*
X140936024Y-89741767D01*
X141216602Y-89870438D01*
X141450921Y-89991918D01*
X141595184Y-90086567D01*
X141620333Y-90121328D01*
X141572305Y-90173929D01*
X141556833Y-90168549D01*
X141018364Y-89929036D01*
X140528896Y-89785659D01*
X140081582Y-89721628D01*
X139654326Y-89681899D01*
X139368408Y-89643690D01*
X139196119Y-89598727D01*
X139109746Y-89538739D01*
X139081579Y-89455452D01*
X139080333Y-89422719D01*
X139035270Y-89281581D01*
X138974500Y-89245535D01*
X138593554Y-89200532D01*
X138328676Y-89137584D01*
X138222380Y-89087429D01*
X140308000Y-89087429D01*
X140605045Y-89058140D01*
X140864437Y-89010028D01*
X141078184Y-88934582D01*
X141081917Y-88932610D01*
X141238356Y-88812542D01*
X141317383Y-88684603D01*
X141299087Y-88594532D01*
X141236426Y-88577666D01*
X141099437Y-88620728D01*
X140879491Y-88731519D01*
X140709916Y-88832548D01*
X140308000Y-89087429D01*
X138222380Y-89087429D01*
X138126638Y-89042254D01*
X138059058Y-88997243D01*
X137865162Y-88885840D01*
X137714871Y-88884235D01*
X137636618Y-88918678D01*
X137445831Y-88975112D01*
X137331322Y-88965261D01*
X137167283Y-88945826D01*
X136928449Y-88961180D01*
X136885371Y-88967468D01*
X136607605Y-89061597D01*
X136423753Y-89260182D01*
X136421390Y-89264159D01*
X136237388Y-89482432D01*
X136019930Y-89642413D01*
X135849156Y-89723913D01*
X135786609Y-89719541D01*
X135792403Y-89625494D01*
X135793299Y-89620813D01*
X135875908Y-89491398D01*
X135948826Y-89466666D01*
X136140536Y-89392319D01*
X136337721Y-89195610D01*
X136447163Y-89022166D01*
X136502039Y-88868845D01*
X136446268Y-88837337D01*
X136284719Y-88925640D01*
X136022262Y-89131754D01*
X135880834Y-89254999D01*
X135559909Y-89519857D01*
X135335559Y-89657221D01*
X135211269Y-89665393D01*
X135185666Y-89593666D01*
X135250554Y-89511999D01*
X135273761Y-89508999D01*
X135444299Y-89445266D01*
X135654451Y-89285127D01*
X135853136Y-89075172D01*
X135989272Y-88861989D01*
X135993207Y-88852833D01*
X136058678Y-88743709D01*
X140155590Y-88743709D01*
X140158770Y-88864116D01*
X140163086Y-88870197D01*
X140294289Y-88891830D01*
X140495454Y-88802800D01*
X140728672Y-88622976D01*
X140832456Y-88519368D01*
X141011189Y-88344411D01*
X141136869Y-88282505D01*
X141258681Y-88311714D01*
X141276956Y-88321145D01*
X141413887Y-88371825D01*
X141451000Y-88317586D01*
X141512105Y-88257478D01*
X141573665Y-88267954D01*
X141696457Y-88240392D01*
X141750342Y-88144851D01*
X141865741Y-87980436D01*
X142008676Y-87881581D01*
X142160634Y-87790006D01*
X142213000Y-87721459D01*
X142285169Y-87704814D01*
X142469552Y-87736050D01*
X142611216Y-87774277D01*
X142889187Y-87847379D01*
X143022703Y-87858532D01*
X143006699Y-87810166D01*
X142836110Y-87704712D01*
X142797944Y-87684673D01*
X142426743Y-87581642D01*
X141962093Y-87610015D01*
X141399741Y-87770408D01*
X140974237Y-87948314D01*
X140633949Y-88112347D01*
X140417074Y-88240522D01*
X140289498Y-88359101D01*
X140217109Y-88494350D01*
X140200448Y-88544069D01*
X140155590Y-88743709D01*
X136058678Y-88743709D01*
X136113787Y-88651856D01*
X136274130Y-88580096D01*
X136324346Y-88577666D01*
X136500835Y-88532021D01*
X136540333Y-88440299D01*
X136562602Y-88350455D01*
X136655025Y-88398246D01*
X136667333Y-88408333D01*
X136766997Y-88465458D01*
X136794124Y-88380221D01*
X136794333Y-88360439D01*
X136840390Y-88191808D01*
X136953611Y-87975983D01*
X136977326Y-87940083D01*
X137141276Y-87753436D01*
X137339067Y-87674189D01*
X137497882Y-87659794D01*
X137947773Y-87692709D01*
X138392523Y-87810806D01*
X138752949Y-87993034D01*
X138753960Y-87993753D01*
X139046268Y-88133503D01*
X139315424Y-88145439D01*
X139527416Y-88043525D01*
X139648236Y-87841727D01*
X139657149Y-87622883D01*
X139620843Y-87525341D01*
X139522346Y-87450788D01*
X139327981Y-87383670D01*
X139004073Y-87308432D01*
X138953333Y-87297792D01*
X138667078Y-87233729D01*
X138482122Y-87183315D01*
X138425410Y-87154363D01*
X138445333Y-87150515D01*
X138614064Y-87164547D01*
X138885336Y-87207311D01*
X139162572Y-87261722D01*
X139451854Y-87315734D01*
X139674413Y-87342531D01*
X139778575Y-87337077D01*
X139765112Y-87260764D01*
X139651783Y-87117263D01*
X139578882Y-87044837D01*
X139404887Y-86856369D01*
X139369717Y-86754044D01*
X139469397Y-86746637D01*
X139675845Y-86830729D01*
X139850270Y-86911662D01*
X139910713Y-86911799D01*
X139892128Y-86830917D01*
X139891531Y-86829358D01*
X139886631Y-86733545D01*
X140005132Y-86737839D01*
X140010408Y-86739202D01*
X140148047Y-86727419D01*
X140174795Y-86597837D01*
X140090691Y-86360597D01*
X140008373Y-86206999D01*
X139836380Y-85910666D01*
X140018933Y-86122333D01*
G37*
G36*
X129315444Y-89706555D02*
G01*
X129303822Y-89756889D01*
X129259000Y-89762999D01*
X129189309Y-89732021D01*
X129202555Y-89706555D01*
X129303035Y-89696422D01*
X129315444Y-89706555D01*
G37*
G36*
X146758170Y-89239124D02*
G01*
X146768263Y-89371448D01*
X146751486Y-89401402D01*
X146713004Y-89376151D01*
X146707017Y-89290277D01*
X146727694Y-89199935D01*
X146758170Y-89239124D01*
G37*
G36*
X146341567Y-88938098D02*
G01*
X146489968Y-88974621D01*
X146531000Y-89019017D01*
X146473891Y-89081234D01*
X146318215Y-89027508D01*
X146278067Y-89003451D01*
X146214971Y-88946156D01*
X146303050Y-88935618D01*
X146341567Y-88938098D01*
G37*
G36*
X146954333Y-88789333D02*
G01*
X146912000Y-88831666D01*
X146869666Y-88789333D01*
X146912000Y-88746999D01*
X146954333Y-88789333D01*
G37*
G36*
X139187284Y-87493788D02*
G01*
X139453432Y-87512907D01*
X139580675Y-87548113D01*
X139588333Y-87561666D01*
X139541206Y-87631754D01*
X139524833Y-87630559D01*
X139416413Y-87617506D01*
X139182501Y-87596396D01*
X138866523Y-87571047D01*
X138741666Y-87561666D01*
X138022000Y-87508547D01*
X138805166Y-87492773D01*
X139187284Y-87493788D01*
G37*
G36*
X145089206Y-87202762D02*
G01*
X145091666Y-87222999D01*
X145027237Y-87305206D01*
X145007000Y-87307666D01*
X144924793Y-87243237D01*
X144922333Y-87222999D01*
X144986762Y-87140793D01*
X145007000Y-87138333D01*
X145089206Y-87202762D01*
G37*
G36*
X144647166Y-86856085D02*
G01*
X144795406Y-86921387D01*
X144837666Y-86978874D01*
X144821214Y-87044977D01*
X144745118Y-87018975D01*
X144621015Y-86930877D01*
X144510688Y-86842487D01*
X144544946Y-86831882D01*
X144647166Y-86856085D01*
G37*
G36*
X145401229Y-86936202D02*
G01*
X145388000Y-86968999D01*
X145311917Y-87049770D01*
X145298336Y-87053666D01*
X145261970Y-86988160D01*
X145261000Y-86968999D01*
X145326087Y-86887586D01*
X145350663Y-86884333D01*
X145401229Y-86936202D01*
G37*
G36*
X139829915Y-86437914D02*
G01*
X139842333Y-86498336D01*
X139814430Y-86620665D01*
X139741118Y-86583994D01*
X139718949Y-86551516D01*
X139729566Y-86442776D01*
X139756285Y-86419519D01*
X139829915Y-86437914D01*
G37*
G36*
X139475444Y-86235221D02*
G01*
X139485577Y-86335701D01*
X139475444Y-86348110D01*
X139425110Y-86336488D01*
X139419000Y-86291666D01*
X139449978Y-86221976D01*
X139475444Y-86235221D01*
G37*
G36*
X139311402Y-86240513D02*
G01*
X139286151Y-86278995D01*
X139200277Y-86284982D01*
X139109935Y-86264304D01*
X139149125Y-86233829D01*
X139281448Y-86223735D01*
X139311402Y-86240513D01*
G37*
G36*
X130613666Y-93191999D02*
G01*
X130571333Y-93234333D01*
X130529000Y-93191999D01*
X130571333Y-93149666D01*
X130613666Y-93191999D01*
G37*
G36*
X134085000Y-92429999D02*
G01*
X134042666Y-92472333D01*
X134000333Y-92429999D01*
X134042666Y-92387666D01*
X134085000Y-92429999D01*
G37*
%TO.C,R5*%
D11*
X127845000Y-112102936D02*
X127845000Y-112557064D01*
X129315000Y-112102936D02*
X129315000Y-112557064D01*
%TO.C,R2*%
X138499718Y-86370835D02*
X138820835Y-86049718D01*
X139539165Y-87410282D02*
X139860282Y-87089165D01*
%TO.C,R3*%
X143352936Y-96595000D02*
X143807064Y-96595000D01*
X143352936Y-98065000D02*
X143807064Y-98065000D01*
%TO.C,U2*%
X131070000Y-92577500D02*
X135190000Y-92577500D01*
X131070000Y-92632500D02*
X131070000Y-92577500D01*
X131070000Y-102697500D02*
X131070000Y-102642500D01*
X135190000Y-92577500D02*
X135190000Y-92632500D01*
X135190000Y-102642500D02*
X135190000Y-102697500D01*
X135190000Y-102697500D02*
X131070000Y-102697500D01*
X130530000Y-92627500D02*
X130290000Y-92297500D01*
X130770000Y-92297500D01*
X130530000Y-92627500D01*
G36*
X130530000Y-92627500D02*
G01*
X130290000Y-92297500D01*
X130770000Y-92297500D01*
X130530000Y-92627500D01*
G37*
%TO.C,U1*%
X120750000Y-94687500D02*
X124870000Y-94687500D01*
X120750000Y-94782500D02*
X120750000Y-94687500D01*
X120750000Y-99807500D02*
X120750000Y-99712500D01*
X124870000Y-94687500D02*
X124870000Y-94782500D01*
X124870000Y-99712500D02*
X124870000Y-99807500D01*
X124870000Y-99807500D02*
X120750000Y-99807500D01*
X120210000Y-94777500D02*
X119970000Y-94447500D01*
X120450000Y-94447500D01*
X120210000Y-94777500D01*
G36*
X120210000Y-94777500D02*
G01*
X119970000Y-94447500D01*
X120450000Y-94447500D01*
X120210000Y-94777500D01*
G37*
%TO.C,D4*%
X140209703Y-110317348D02*
X142108284Y-112215929D01*
X141567348Y-108959703D02*
X140209703Y-110317348D01*
X143465929Y-110858284D02*
X141567348Y-108959703D01*
%TO.C,D3*%
X145895000Y-96370000D02*
X145895000Y-98290000D01*
X145895000Y-98290000D02*
X148580000Y-98290000D01*
X148580000Y-96370000D02*
X145895000Y-96370000D01*
%TO.C,R6*%
X117620835Y-107249718D02*
X117299718Y-107570835D01*
X118660282Y-108289165D02*
X118339165Y-108610282D01*
%TO.C,R8*%
X117620835Y-87410282D02*
X117299718Y-87089165D01*
X118660282Y-86370835D02*
X118339165Y-86049718D01*
%TO.C,D1*%
X127620000Y-77330000D02*
X127620000Y-80015000D01*
X127620000Y-80015000D02*
X129540000Y-80015000D01*
X129540000Y-80015000D02*
X129540000Y-77330000D01*
%TO.C,R4*%
X138499718Y-108289165D02*
X138820835Y-108610282D01*
X139539165Y-107249718D02*
X139860282Y-107570835D01*
%TO.C,R1*%
X127845000Y-82557064D02*
X127845000Y-82102936D01*
X129315000Y-82557064D02*
X129315000Y-82102936D01*
%TO.C,D5*%
X127620000Y-114645000D02*
X127620000Y-117330000D01*
X129540000Y-114645000D02*
X127620000Y-114645000D01*
X129540000Y-117330000D02*
X129540000Y-114645000D01*
%TO.C,D7*%
X108580000Y-98290000D02*
X111264999Y-98290000D01*
X111264999Y-96370000D02*
X108580000Y-96370000D01*
X111264999Y-98290000D02*
X111264999Y-96370000D01*
%TO.C,D8*%
X113694071Y-83801716D02*
X115592652Y-85700297D01*
X115592652Y-85700297D02*
X116950297Y-84342652D01*
X116950297Y-84342652D02*
X115051716Y-82444071D01*
%TO.C,R7*%
X113807064Y-96595000D02*
X113352936Y-96595000D01*
X113807064Y-98065000D02*
X113352936Y-98065000D01*
%TO.C,D6*%
X115051716Y-112215929D02*
X116950297Y-110317348D01*
X115592652Y-108959703D02*
X113694071Y-110858284D01*
X116950297Y-110317348D02*
X115592652Y-108959703D01*
%TO.C,D2*%
X140209703Y-84342652D02*
X141567348Y-85700297D01*
X141567348Y-85700297D02*
X143465929Y-83801716D01*
X142108284Y-82444071D02*
X140209703Y-84342652D01*
%TD*%
M02*
